NotoSansJavanese-Regular.ufo
<glyph name="panyangga.ns" format="2">
  <unicode hex="A980"/>
  <note>
panyangga.ns
</note>
  <outline>
    <contour>
      <point x="-465" y="587" type="curve" smooth="yes"/>
      <point x="-389" y="587"/>
      <point x="-333" y="623"/>
      <point x="-298" y="693" type="curve"/>
      <point x="-341" y="722" type="line"/>
      <point x="-349" y="707"/>
      <point x="-360" y="695"/>
      <point x="-374" y="686" type="curve"/>
      <point x="-381" y="743"/>
      <point x="-412" y="786"/>
      <point x="-465" y="815" type="curve"/>
      <point x="-519" y="786"/>
      <point x="-549" y="743"/>
      <point x="-557" y="686" type="curve"/>
      <point x="-570" y="695"/>
      <point x="-582" y="707"/>
      <point x="-590" y="722" type="curve"/>
      <point x="-632" y="693" type="line"/>
      <point x="-597" y="623"/>
      <point x="-542" y="587"/>
    </contour>
    <contour>
      <point x="-465" y="661" type="curve" smooth="yes"/>
      <point x="-483" y="661"/>
      <point x="-497" y="663"/>
      <point x="-507" y="666" type="curve"/>
      <point x="-506" y="702"/>
      <point x="-493" y="729"/>
      <point x="-465" y="750" type="curve"/>
      <point x="-438" y="729"/>
      <point x="-424" y="702"/>
      <point x="-424" y="666" type="curve"/>
      <point x="-434" y="663"/>
      <point x="-448" y="661"/>
    </contour>
  </outline>
</glyph>
<glyph name="cecak.ns" format="2">
  <unicode hex="A981"/>
  <note>
cecak.ns
</note>
  <outline>
    <contour>
      <point x="-182" y="626" type="curve" smooth="yes"/>
      <point x="-128" y="626"/>
      <point x="-86" y="653"/>
      <point x="-54" y="708" type="curve"/>
      <point x="-93" y="734" type="line"/>
      <point x="-113" y="704"/>
      <point x="-132" y="684"/>
      <point x="-152" y="673" type="curve"/>
      <point x="-156" y="677" type="line"/>
      <point x="-153" y="683"/>
      <point x="-151" y="689"/>
      <point x="-151" y="693" type="curve" smooth="yes"/>
      <point x="-151" y="710"/>
      <point x="-168" y="726"/>
      <point x="-191" y="726" type="curve" smooth="yes"/>
      <point x="-220" y="726"/>
      <point x="-244" y="704"/>
      <point x="-244" y="676" type="curve" smooth="yes"/>
      <point x="-244" y="646"/>
      <point x="-213" y="626"/>
    </contour>
  </outline>
</glyph>
<glyph name="layar.ns" format="2">
  <unicode hex="A982"/>
  <note>
layar.ns
</note>
  <outline>
    <contour>
      <point x="-205" y="602" type="line"/>
      <point x="145" y="838" type="line"/>
      <point x="110" y="891" type="line"/>
      <point x="-239" y="652" type="line"/>
    </contour>
  </outline>
</glyph>
<glyph name="wignyan" format="2">
  <advance width="353"/>
  <unicode hex="A983"/>
  <note>
wignyan
</note>
  <outline>
    <contour>
      <point x="380" y="-833" type="line"/>
      <point x="421" y="-630"/>
      <point x="441" y="-466"/>
      <point x="441" y="-342" type="curve" smooth="yes"/>
      <point x="441" y="-120"/>
      <point x="356" y="27"/>
      <point x="146" y="52" type="curve"/>
      <point x="242" y="140"/>
      <point x="317" y="284"/>
      <point x="317" y="395" type="curve" smooth="yes"/>
      <point x="317" y="483"/>
      <point x="268" y="546"/>
      <point x="182" y="546" type="curve" smooth="yes"/>
      <point x="98" y="546"/>
      <point x="52" y="485"/>
      <point x="52" y="399" type="curve" smooth="yes"/>
      <point x="52" y="313"/>
      <point x="107" y="257"/>
      <point x="195" y="244" type="curve"/>
      <point x="157" y="163"/>
      <point x="118" y="107"/>
      <point x="49" y="56" type="curve"/>
      <point x="49" y="1" type="line"/>
      <point x="274" y="-21"/>
      <point x="355" y="-145"/>
      <point x="355" y="-380" type="curve" smooth="yes"/>
      <point x="355" y="-494"/>
      <point x="340" y="-644"/>
      <point x="309" y="-825" type="curve"/>
    </contour>
    <contour>
      <point x="219" y="317" type="curve"/>
      <point x="160" y="323"/>
      <point x="130" y="350"/>
      <point x="130" y="399" type="curve" smooth="yes"/>
      <point x="130" y="437"/>
      <point x="147" y="469"/>
      <point x="181" y="469" type="curve" smooth="yes"/>
      <point x="215" y="469"/>
      <point x="233" y="437"/>
      <point x="233" y="394" type="curve" smooth="yes"/>
      <point x="233" y="371"/>
      <point x="229" y="346"/>
    </contour>
  </outline>
</glyph>
<glyph name="akara" format="2">
  <advance width="1338"/>
  <unicode hex="A984"/>
  <note>
akara
</note>
  <outline>
    <contour>
      <point x="983" y="-2" type="curve" smooth="yes"/>
      <point x="1053" y="-2"/>
      <point x="1087" y="39"/>
      <point x="1087" y="134" type="curve" smooth="yes"/>
      <point x="1087" y="220" type="line"/>
      <point x="1164" y="220"/>
      <point x="1202" y="197"/>
      <point x="1202" y="151" type="curve" smooth="yes"/>
      <point x="1202" y="0" type="line"/>
      <point x="1289" y="0" type="line"/>
      <point x="1289" y="393" type="line" smooth="yes"/>
      <point x="1289" y="495"/>
      <point x="1241" y="546"/>
      <point x="1145" y="546" type="curve" smooth="yes"/>
      <point x="1049" y="546"/>
      <point x="1000" y="493"/>
      <point x="1000" y="388" type="curve" smooth="yes"/>
      <point x="1000" y="292" type="line"/>
      <point x="885" y="292" type="line"/>
      <point x="919" y="390" type="line"/>
      <point x="837" y="390" type="line"/>
      <point x="788" y="252" type="line"/>
      <point x="803" y="220" type="line"/>
      <point x="1000" y="220" type="line"/>
      <point x="1000" y="134" type="line" smooth="yes"/>
      <point x="1000" y="98"/>
      <point x="988" y="80"/>
      <point x="965" y="80" type="curve" smooth="yes"/>
      <point x="956" y="80"/>
      <point x="920" y="97"/>
      <point x="866" y="136" type="curve" smooth="yes"/>
      <point x="800" y="184"/>
      <point x="767" y="205"/>
      <point x="718" y="205" type="curve" smooth="yes"/>
      <point x="663" y="205"/>
      <point x="614" y="150"/>
      <point x="572" y="42" type="curve"/>
      <point x="642" y="2" type="line"/>
      <point x="666" y="77"/>
      <point x="695" y="114"/>
      <point x="729" y="114" type="curve" smooth="yes"/>
      <point x="750" y="114"/>
      <point x="790" y="95"/>
      <point x="850" y="54" type="curve" smooth="yes"/>
      <point x="899" y="20"/>
      <point x="944" y="-2"/>
    </contour>
    <contour>
      <point x="354" y="0" type="curve" smooth="yes"/>
      <point x="447" y="0"/>
      <point x="541" y="45"/>
      <point x="541" y="144" type="curve" smooth="yes"/>
      <point x="541" y="221"/>
      <point x="498" y="255"/>
      <point x="422" y="277" type="curve"/>
      <point x="422" y="282" type="line"/>
      <point x="489" y="301"/>
      <point x="522" y="342"/>
      <point x="522" y="404" type="curve" smooth="yes"/>
      <point x="522" y="495"/>
      <point x="465" y="544"/>
      <point x="373" y="544" type="curve" smooth="yes"/>
      <point x="323" y="544"/>
      <point x="276" y="527"/>
      <point x="231" y="494" type="curve"/>
      <point x="262" y="424" type="line"/>
      <point x="297" y="452"/>
      <point x="334" y="466"/>
      <point x="373" y="466" type="curve" smooth="yes"/>
      <point x="414" y="466"/>
      <point x="440" y="443"/>
      <point x="440" y="404" type="curve" smooth="yes"/>
      <point x="440" y="345"/>
      <point x="395" y="315"/>
      <point x="310" y="315" type="curve" smooth="yes"/>
      <point x="278" y="315" type="line"/>
      <point x="278" y="243" type="line"/>
      <point x="326" y="243" type="line" smooth="yes"/>
      <point x="411" y="243"/>
      <point x="453" y="212"/>
      <point x="453" y="151" type="curve" smooth="yes"/>
      <point x="453" y="103"/>
      <point x="417" y="78"/>
      <point x="345" y="78" type="curve" smooth="yes"/>
      <point x="226" y="78"/>
      <point x="161" y="156"/>
      <point x="161" y="294" type="curve" smooth="yes"/>
      <point x="161" y="441"/>
      <point x="209" y="578"/>
      <point x="308" y="717" type="curve"/>
      <point x="248" y="750" type="line"/>
      <point x="147" y="609"/>
      <point x="73" y="456"/>
      <point x="73" y="296" type="curve" smooth="yes"/>
      <point x="73" y="110"/>
      <point x="179" y="0"/>
    </contour>
    <contour>
      <point x="1202" y="248" type="line"/>
      <point x="1180" y="278"/>
      <point x="1145" y="292"/>
      <point x="1097" y="292" type="curve" smooth="yes"/>
      <point x="1087" y="292" type="line"/>
      <point x="1087" y="391" type="line" smooth="yes"/>
      <point x="1087" y="444"/>
      <point x="1107" y="470"/>
      <point x="1145" y="470" type="curve" smooth="yes"/>
      <point x="1183" y="470"/>
      <point x="1202" y="445"/>
      <point x="1202" y="394" type="curve" smooth="yes"/>
    </contour>
  </outline>
</glyph>
<glyph name="iikara" format="2">
  <advance width="1207"/>
  <unicode hex="A987"/>
  <note>
iikara
</note>
  <outline>
    <contour>
      <point x="840" y="0" type="line"/>
      <point x="927" y="0" type="line"/>
      <point x="927" y="391" type="line" smooth="yes"/>
      <point x="927" y="444"/>
      <point x="952" y="470"/>
      <point x="1000" y="470" type="curve" smooth="yes"/>
      <point x="1047" y="470"/>
      <point x="1071" y="445"/>
      <point x="1071" y="394" type="curve" smooth="yes"/>
      <point x="1071" y="0" type="line"/>
      <point x="1158" y="0" type="line"/>
      <point x="1158" y="393" type="line" smooth="yes"/>
      <point x="1158" y="495"/>
      <point x="1107" y="546"/>
      <point x="1004" y="546" type="curve" smooth="yes"/>
      <point x="952" y="546"/>
      <point x="912" y="525"/>
      <point x="886" y="483" type="curve"/>
      <point x="867" y="525"/>
      <point x="832" y="546"/>
      <point x="783" y="546" type="curve" smooth="yes"/>
      <point x="736" y="546"/>
      <point x="704" y="526"/>
      <point x="686" y="485" type="curve"/>
      <point x="663" y="528"/>
      <point x="626" y="548"/>
      <point x="579" y="548" type="curve" smooth="yes"/>
      <point x="488" y="548"/>
      <point x="455" y="493"/>
      <point x="455" y="432" type="curve" smooth="yes"/>
      <point x="455" y="363"/>
      <point x="495" y="318"/>
      <point x="574" y="301" type="curve"/>
      <point x="603" y="360" type="line"/>
      <point x="558" y="373"/>
      <point x="535" y="395"/>
      <point x="535" y="427" type="curve" smooth="yes"/>
      <point x="535" y="454"/>
      <point x="551" y="473"/>
      <point x="578" y="473" type="curve" smooth="yes"/>
      <point x="615" y="473"/>
      <point x="642" y="441"/>
      <point x="647" y="384" type="curve"/>
      <point x="715" y="384" type="line"/>
      <point x="722" y="441"/>
      <point x="745" y="470"/>
      <point x="783" y="470" type="curve" smooth="yes"/>
      <point x="821" y="470"/>
      <point x="840" y="445"/>
      <point x="840" y="394" type="curve" smooth="yes"/>
    </contour>
    <contour>
      <point x="577" y="-446" type="line"/>
      <point x="646" y="-405"/>
      <point x="704" y="-362"/>
      <point x="704" y="-304" type="curve" smooth="yes"/>
      <point x="704" y="-266"/>
      <point x="681" y="-241"/>
      <point x="639" y="-222" type="curve" smooth="yes"/>
      <point x="594" y="-201" type="line" smooth="yes"/>
      <point x="571" y="-190"/>
      <point x="560" y="-178"/>
      <point x="560" y="-161" type="curve" smooth="yes"/>
      <point x="560" y="-142"/>
      <point x="580" y="-132"/>
      <point x="614" y="-132" type="curve" smooth="yes"/>
      <point x="625" y="-132"/>
      <point x="641" y="-133"/>
      <point x="660" y="-136" type="curve"/>
      <point x="660" y="-78" type="line"/>
      <point x="643" y="-74"/>
      <point x="626" y="-71"/>
      <point x="609" y="-71" type="curve" smooth="yes"/>
      <point x="543" y="-71"/>
      <point x="484" y="-102"/>
      <point x="484" y="-169" type="curve" smooth="yes"/>
      <point x="484" y="-191"/>
      <point x="491" y="-210"/>
      <point x="506" y="-226" type="curve" smooth="yes"/>
      <point x="521" y="-241"/>
      <point x="543" y="-257"/>
      <point x="576" y="-270" type="curve" smooth="yes"/>
      <point x="613" y="-285"/>
      <point x="628" y="-290"/>
      <point x="628" y="-313" type="curve" smooth="yes"/>
      <point x="628" y="-338"/>
      <point x="591" y="-366"/>
      <point x="541" y="-404" type="curve"/>
    </contour>
    <contour>
      <point x="222" y="0" type="curve"/>
      <point x="240" y="68" type="line"/>
      <point x="190" y="76"/>
      <point x="165" y="104"/>
      <point x="165" y="154" type="curve" smooth="yes"/>
      <point x="165" y="391" type="line" smooth="yes"/>
      <point x="165" y="444"/>
      <point x="190" y="470"/>
      <point x="238" y="470" type="curve" smooth="yes"/>
      <point x="286" y="470"/>
      <point x="310" y="445"/>
      <point x="310" y="394" type="curve" smooth="yes"/>
      <point x="310" y="133" type="line" smooth="yes"/>
      <point x="310" y="45"/>
      <point x="357" y="0"/>
      <point x="450" y="0" type="curve" smooth="yes"/>
      <point x="676" y="0" type="line"/>
      <point x="693" y="30" type="line"/>
      <point x="563" y="219" type="line"/>
      <point x="469" y="219" type="line"/>
      <point x="575" y="68" type="line"/>
      <point x="455" y="68" type="line" smooth="yes"/>
      <point x="416" y="68"/>
      <point x="396" y="89"/>
      <point x="396" y="131" type="curve" smooth="yes"/>
      <point x="396" y="393" type="line" smooth="yes"/>
      <point x="396" y="495"/>
      <point x="344" y="546"/>
      <point x="238" y="546" type="curve" smooth="yes"/>
      <point x="132" y="546"/>
      <point x="78" y="493"/>
      <point x="78" y="388" type="curve" smooth="yes"/>
      <point x="78" y="149" type="line" smooth="yes"/>
      <point x="78" y="53"/>
      <point x="137" y="9"/>
    </contour>
  </outline>
</glyph>
<glyph name="ukara" format="2">
  <advance width="976"/>
  <unicode hex="A988"/>
  <note>
ukara
</note>
  <outline>
    <contour>
      <point x="257" y="-825" type="curve" smooth="yes"/>
      <point x="324" y="-825"/>
      <point x="383" y="-787"/>
      <point x="440" y="-715" type="curve" smooth="yes"/>
      <point x="585" y="-533" type="line" smooth="yes"/>
      <point x="628" y="-479"/>
      <point x="675" y="-448"/>
      <point x="726" y="-448" type="curve" smooth="yes"/>
      <point x="768" y="-448"/>
      <point x="798" y="-464"/>
      <point x="824" y="-502" type="curve" smooth="yes"/>
      <point x="849" y="-539"/>
      <point x="889" y="-643"/>
      <point x="946" y="-816" type="curve"/>
      <point x="1013" y="-791" type="line"/>
      <point x="969" y="-621"/>
      <point x="927" y="-503"/>
      <point x="887" y="-440" type="curve" smooth="yes"/>
      <point x="846" y="-375"/>
      <point x="801" y="-353"/>
      <point x="720" y="-353" type="curve" smooth="yes"/>
      <point x="647" y="-353"/>
      <point x="572" y="-402"/>
      <point x="506" y="-484" type="curve" smooth="yes"/>
      <point x="329" y="-703" type="line" smooth="yes"/>
      <point x="309" y="-728"/>
      <point x="285" y="-739"/>
      <point x="265" y="-739" type="curve" smooth="yes"/>
      <point x="237" y="-739"/>
      <point x="222" y="-716"/>
      <point x="222" y="-676" type="curve" smooth="yes"/>
      <point x="222" y="-611"/>
      <point x="255" y="-527"/>
      <point x="317" y="-443" type="curve" smooth="yes"/>
      <point x="378" y="-360"/>
      <point x="492" y="-275"/>
      <point x="664" y="-189" type="curve" smooth="yes"/>
      <point x="834" y="-104"/>
      <point x="927" y="-9"/>
      <point x="927" y="87" type="curve" smooth="yes"/>
      <point x="927" y="391" type="line" smooth="yes"/>
      <point x="927" y="494"/>
      <point x="881" y="546"/>
      <point x="792" y="546" type="curve" smooth="yes"/>
      <point x="739" y="546"/>
      <point x="704" y="526"/>
      <point x="686" y="485" type="curve"/>
      <point x="663" y="527"/>
      <point x="626" y="548"/>
      <point x="579" y="548" type="curve" smooth="yes"/>
      <point x="494" y="548"/>
      <point x="455" y="498"/>
      <point x="455" y="433" type="curve" smooth="yes"/>
      <point x="455" y="361"/>
      <point x="495" y="318"/>
      <point x="574" y="301" type="curve"/>
      <point x="603" y="360" type="line"/>
      <point x="558" y="373"/>
      <point x="535" y="395"/>
      <point x="535" y="428" type="curve" smooth="yes"/>
      <point x="535" y="455"/>
      <point x="552" y="473"/>
      <point x="579" y="473" type="curve" smooth="yes"/>
      <point x="618" y="473"/>
      <point x="641" y="441"/>
      <point x="647" y="384" type="curve"/>
      <point x="715" y="384" type="line"/>
      <point x="722" y="441"/>
      <point x="745" y="470"/>
      <point x="783" y="470" type="curve" smooth="yes"/>
      <point x="821" y="470"/>
      <point x="840" y="445"/>
      <point x="840" y="394" type="curve" smooth="yes"/>
      <point x="840" y="100" type="line" smooth="yes"/>
      <point x="840" y="24"/>
      <point x="763" y="-51"/>
      <point x="608" y="-128" type="curve" smooth="yes"/>
      <point x="454" y="-204"/>
      <point x="336" y="-290"/>
      <point x="256" y="-385" type="curve" smooth="yes"/>
      <point x="176" y="-479"/>
      <point x="136" y="-581"/>
      <point x="136" y="-690" type="curve" smooth="yes"/>
      <point x="136" y="-770"/>
      <point x="181" y="-825"/>
    </contour>
    <contour>
      <point x="450" y="0" type="curve" smooth="yes"/>
      <point x="676" y="0" type="line"/>
      <point x="693" y="30" type="line"/>
      <point x="563" y="219" type="line"/>
      <point x="469" y="219" type="line"/>
      <point x="575" y="68" type="line"/>
      <point x="455" y="68" type="line" smooth="yes"/>
      <point x="416" y="68"/>
      <point x="396" y="89"/>
      <point x="396" y="131" type="curve" smooth="yes"/>
      <point x="396" y="393" type="line" smooth="yes"/>
      <point x="396" y="495"/>
      <point x="344" y="546"/>
      <point x="238" y="546" type="curve" smooth="yes"/>
      <point x="132" y="546"/>
      <point x="78" y="493"/>
      <point x="78" y="388" type="curve" smooth="yes"/>
      <point x="78" y="149" type="line" smooth="yes"/>
      <point x="78" y="53"/>
      <point x="137" y="9"/>
      <point x="222" y="0" type="curve"/>
      <point x="240" y="68" type="line"/>
      <point x="190" y="76"/>
      <point x="165" y="104"/>
      <point x="165" y="154" type="curve" smooth="yes"/>
      <point x="165" y="391" type="line" smooth="yes"/>
      <point x="165" y="444"/>
      <point x="190" y="470"/>
      <point x="238" y="470" type="curve" smooth="yes"/>
      <point x="286" y="470"/>
      <point x="310" y="445"/>
      <point x="310" y="394" type="curve" smooth="yes"/>
      <point x="310" y="133" type="line" smooth="yes"/>
      <point x="310" y="45"/>
      <point x="357" y="0"/>
    </contour>
  </outline>
</glyph>
<glyph name="pacerek" format="2">
  <advance width="963"/>
  <unicode hex="A989"/>
  <note>
pacerek
</note>
  <outline>
    <contour>
      <point x="666" y="-278" type="curve"/>
      <point x="744" y="-278" type="line"/>
      <point x="739" y="-152"/>
      <point x="685" y="-88"/>
      <point x="581" y="-88" type="curve" smooth="yes"/>
      <point x="495" y="-88" type="line"/>
      <point x="538" y="34" type="line"/>
      <point x="490" y="0" type="line"/>
      <point x="542" y="0" type="line" smooth="yes"/>
      <point x="636" y="0"/>
      <point x="683" y="45"/>
      <point x="683" y="133" type="curve" smooth="yes"/>
      <point x="683" y="391" type="line" smooth="yes"/>
      <point x="683" y="444"/>
      <point x="708" y="470"/>
      <point x="755" y="470" type="curve" smooth="yes"/>
      <point x="803" y="470"/>
      <point x="827" y="445"/>
      <point x="827" y="394" type="curve" smooth="yes"/>
      <point x="827" y="0" type="line"/>
      <point x="914" y="0" type="line"/>
      <point x="914" y="393" type="line" smooth="yes"/>
      <point x="914" y="495"/>
      <point x="861" y="546"/>
      <point x="755" y="546" type="curve" smooth="yes"/>
      <point x="649" y="546"/>
      <point x="596" y="493"/>
      <point x="596" y="388" type="curve" smooth="yes"/>
      <point x="596" y="131" type="line" smooth="yes"/>
      <point x="596" y="89"/>
      <point x="576" y="68"/>
      <point x="537" y="68" type="curve" smooth="yes"/>
      <point x="455" y="68" type="line" smooth="yes"/>
      <point x="416" y="68"/>
      <point x="396" y="89"/>
      <point x="396" y="131" type="curve" smooth="yes"/>
      <point x="396" y="393" type="line" smooth="yes"/>
      <point x="396" y="495"/>
      <point x="344" y="546"/>
      <point x="238" y="546" type="curve" smooth="yes"/>
      <point x="132" y="546"/>
      <point x="78" y="493"/>
      <point x="78" y="388" type="curve" smooth="yes"/>
      <point x="78" y="151" type="line" smooth="yes"/>
      <point x="78" y="58"/>
      <point x="131" y="9"/>
      <point x="222" y="0" type="curve"/>
      <point x="240" y="68" type="line"/>
      <point x="190" y="76"/>
      <point x="165" y="104"/>
      <point x="165" y="154" type="curve" smooth="yes"/>
      <point x="165" y="391" type="line" smooth="yes"/>
      <point x="165" y="444"/>
      <point x="190" y="470"/>
      <point x="238" y="470" type="curve" smooth="yes"/>
      <point x="286" y="470"/>
      <point x="310" y="445"/>
      <point x="310" y="394" type="curve" smooth="yes"/>
      <point x="310" y="133" type="line" smooth="yes"/>
      <point x="310" y="47"/>
      <point x="354" y="3"/>
      <point x="444" y="0" type="curve"/>
      <point x="398" y="-129" type="line"/>
      <point x="413" y="-161" type="line"/>
      <point x="571" y="-161" type="line" smooth="yes"/>
      <point x="634" y="-161"/>
      <point x="666" y="-200"/>
    </contour>
  </outline>
</glyph>
<glyph name="ngaleletras" format="2">
  <advance width="977"/>
  <unicode hex="A98B"/>
  <note>
ngaleletras
</note>
  <outline>
    <contour>
      <point x="596" y="-830" type="curve" smooth="yes"/>
      <point x="816" y="-830"/>
      <point x="927" y="-730"/>
      <point x="927" y="-534" type="curve" smooth="yes"/>
      <point x="927" y="-177" type="line"/>
      <point x="1049" y="-177" type="line" smooth="yes"/>
      <point x="1100" y="-177"/>
      <point x="1125" y="-196"/>
      <point x="1125" y="-234" type="curve" smooth="yes"/>
      <point x="1125" y="-272"/>
      <point x="1097" y="-295"/>
      <point x="1040" y="-302" type="curve"/>
      <point x="1040" y="-370" type="line"/>
      <point x="1097" y="-376"/>
      <point x="1128" y="-401"/>
      <point x="1128" y="-438" type="curve" smooth="yes"/>
      <point x="1128" y="-464"/>
      <point x="1111" y="-482"/>
      <point x="1083" y="-482" type="curve" smooth="yes"/>
      <point x="1050" y="-482"/>
      <point x="1028" y="-459"/>
      <point x="1016" y="-415" type="curve"/>
      <point x="956" y="-443" type="line"/>
      <point x="973" y="-522"/>
      <point x="1018" y="-562"/>
      <point x="1090" y="-562" type="curve"/>
      <point x="1169" y="-558"/>
      <point x="1208" y="-516"/>
      <point x="1208" y="-436" type="curve" smooth="yes"/>
      <point x="1208" y="-389"/>
      <point x="1186" y="-354"/>
      <point x="1141" y="-332" type="curve"/>
      <point x="1184" y="-313"/>
      <point x="1206" y="-278"/>
      <point x="1206" y="-225" type="curve" smooth="yes"/>
      <point x="1206" y="-141"/>
      <point x="1153" y="-98"/>
      <point x="1046" y="-98" type="curve" smooth="yes"/>
      <point x="927" y="-98" type="line"/>
      <point x="927" y="391" type="line" smooth="yes"/>
      <point x="927" y="494"/>
      <point x="881" y="546"/>
      <point x="792" y="546" type="curve" smooth="yes"/>
      <point x="739" y="546"/>
      <point x="704" y="526"/>
      <point x="686" y="485" type="curve"/>
      <point x="663" y="527"/>
      <point x="628" y="548"/>
      <point x="581" y="548" type="curve" smooth="yes"/>
      <point x="501" y="548"/>
      <point x="455" y="505"/>
      <point x="455" y="433" type="curve" smooth="yes"/>
      <point x="455" y="362"/>
      <point x="495" y="318"/>
      <point x="574" y="301" type="curve"/>
      <point x="603" y="360" type="line"/>
      <point x="558" y="373"/>
      <point x="535" y="394"/>
      <point x="535" y="427" type="curve" smooth="yes"/>
      <point x="535" y="457"/>
      <point x="552" y="473"/>
      <point x="579" y="473" type="curve" smooth="yes"/>
      <point x="616" y="473"/>
      <point x="641" y="441"/>
      <point x="647" y="384" type="curve"/>
      <point x="715" y="384" type="line"/>
      <point x="722" y="441"/>
      <point x="745" y="470"/>
      <point x="783" y="470" type="curve" smooth="yes"/>
      <point x="821" y="470"/>
      <point x="840" y="445"/>
      <point x="840" y="394" type="curve" smooth="yes"/>
      <point x="840" y="-97" type="line"/>
      <point x="655" y="-97"/>
      <point x="514" y="-137"/>
      <point x="417" y="-216" type="curve" smooth="yes"/>
      <point x="319" y="-296"/>
      <point x="271" y="-401"/>
      <point x="271" y="-534" type="curve" smooth="yes"/>
      <point x="271" y="-625"/>
      <point x="300" y="-697"/>
      <point x="360" y="-750" type="curve" smooth="yes"/>
      <point x="420" y="-803"/>
      <point x="499" y="-830"/>
    </contour>
    <contour>
      <point x="608" y="-740" type="curve" smooth="yes"/>
      <point x="510" y="-740"/>
      <point x="448" y="-714"/>
      <point x="408" y="-662" type="curve" smooth="yes"/>
      <point x="379" y="-624"/>
      <point x="365" y="-579"/>
      <point x="365" y="-525" type="curve" smooth="yes"/>
      <point x="365" y="-423"/>
      <point x="405" y="-340"/>
      <point x="483" y="-275" type="curve" smooth="yes"/>
      <point x="562" y="-210"/>
      <point x="681" y="-178"/>
      <point x="839" y="-177" type="curve"/>
      <point x="839" y="-523" type="line" smooth="yes"/>
      <point x="839" y="-664"/>
      <point x="756" y="-740"/>
    </contour>
    <contour>
      <point x="450" y="0" type="curve" smooth="yes"/>
      <point x="676" y="0" type="line"/>
      <point x="693" y="30" type="line"/>
      <point x="563" y="219" type="line"/>
      <point x="469" y="219" type="line"/>
      <point x="575" y="68" type="line"/>
      <point x="455" y="68" type="line" smooth="yes"/>
      <point x="416" y="68"/>
      <point x="396" y="89"/>
      <point x="396" y="131" type="curve" smooth="yes"/>
      <point x="396" y="393" type="line" smooth="yes"/>
      <point x="396" y="495"/>
      <point x="344" y="546"/>
      <point x="238" y="546" type="curve" smooth="yes"/>
      <point x="132" y="546"/>
      <point x="78" y="493"/>
      <point x="78" y="388" type="curve" smooth="yes"/>
      <point x="78" y="149" type="line" smooth="yes"/>
      <point x="78" y="53"/>
      <point x="137" y="9"/>
      <point x="222" y="0" type="curve"/>
      <point x="240" y="68" type="line"/>
      <point x="190" y="76"/>
      <point x="165" y="104"/>
      <point x="165" y="154" type="curve" smooth="yes"/>
      <point x="165" y="391" type="line" smooth="yes"/>
      <point x="165" y="444"/>
      <point x="190" y="470"/>
      <point x="238" y="470" type="curve" smooth="yes"/>
      <point x="286" y="470"/>
      <point x="310" y="445"/>
      <point x="310" y="394" type="curve" smooth="yes"/>
      <point x="310" y="133" type="line" smooth="yes"/>
      <point x="310" y="45"/>
      <point x="357" y="0"/>
    </contour>
  </outline>
</glyph>
<glyph name="ekara" format="2">
  <advance width="781"/>
  <unicode hex="A98C"/>
  <note>
ekara
</note>
  <outline>
    <contour>
      <point x="719" y="-82" type="curve"/>
      <point x="777" y="-56" type="line"/>
      <point x="734" y="61"/>
      <point x="691" y="131"/>
      <point x="648" y="155" type="curve" smooth="yes"/>
      <point x="631" y="165"/>
      <point x="608" y="170"/>
      <point x="579" y="170" type="curve" smooth="yes"/>
      <point x="535" y="170"/>
      <point x="479" y="159"/>
      <point x="411" y="138" type="curve" smooth="yes"/>
      <point x="296" y="102"/>
      <point x="225" y="84"/>
      <point x="198" y="84" type="curve" smooth="yes"/>
      <point x="166" y="84"/>
      <point x="148" y="99"/>
      <point x="148" y="128" type="curve" smooth="yes"/>
      <point x="148" y="179"/>
      <point x="187" y="245"/>
      <point x="258" y="327" type="curve"/>
      <point x="270" y="324"/>
      <point x="282" y="323"/>
      <point x="294" y="323" type="curve" smooth="yes"/>
      <point x="471" y="323"/>
      <point x="559" y="371"/>
      <point x="559" y="466" type="curve" smooth="yes"/>
      <point x="559" y="516"/>
      <point x="514" y="545"/>
      <point x="453" y="545" type="curve" smooth="yes"/>
      <point x="387" y="545"/>
      <point x="304" y="493"/>
      <point x="206" y="388" type="curve" smooth="yes"/>
      <point x="108" y="283"/>
      <point x="59" y="187"/>
      <point x="59" y="100" type="curve" smooth="yes"/>
      <point x="59" y="33"/>
      <point x="91" y="0"/>
      <point x="156" y="0" type="curve" smooth="yes"/>
      <point x="200" y="0"/>
      <point x="273" y="16"/>
      <point x="376" y="49" type="curve" smooth="yes"/>
      <point x="458" y="75"/>
      <point x="523" y="88"/>
      <point x="565" y="88" type="curve" smooth="yes"/>
      <point x="636" y="88"/>
      <point x="673" y="12"/>
    </contour>
    <contour>
      <point x="314" y="386" type="curve"/>
      <point x="374" y="445"/>
      <point x="419" y="474"/>
      <point x="451" y="474" type="curve" smooth="yes"/>
      <point x="468" y="474"/>
      <point x="477" y="469"/>
      <point x="477" y="458" type="curve" smooth="yes"/>
      <point x="477" y="418"/>
      <point x="423" y="394"/>
    </contour>
  </outline>
</glyph>
<glyph name="aikara" format="2">
  <advance width="781"/>
  <unicode hex="A98D"/>
  <note>
aikara
</note>
  <outline>
    <contour>
      <point x="719" y="-82" type="curve"/>
      <point x="777" y="-56" type="line"/>
      <point x="734" y="61"/>
      <point x="691" y="131"/>
      <point x="648" y="155" type="curve" smooth="yes"/>
      <point x="631" y="165"/>
      <point x="608" y="170"/>
      <point x="579" y="170" type="curve" smooth="yes"/>
      <point x="535" y="170"/>
      <point x="479" y="159"/>
      <point x="411" y="138" type="curve" smooth="yes"/>
      <point x="296" y="102"/>
      <point x="225" y="84"/>
      <point x="198" y="84" type="curve" smooth="yes"/>
      <point x="166" y="84"/>
      <point x="148" y="99"/>
      <point x="148" y="128" type="curve" smooth="yes"/>
      <point x="148" y="179"/>
      <point x="187" y="245"/>
      <point x="258" y="327" type="curve"/>
      <point x="270" y="324"/>
      <point x="282" y="323"/>
      <point x="294" y="323" type="curve" smooth="yes"/>
      <point x="471" y="323"/>
      <point x="559" y="371"/>
      <point x="559" y="466" type="curve" smooth="yes"/>
      <point x="559" y="516"/>
      <point x="514" y="545"/>
      <point x="453" y="545" type="curve" smooth="yes"/>
      <point x="387" y="545"/>
      <point x="304" y="493"/>
      <point x="206" y="388" type="curve" smooth="yes"/>
      <point x="108" y="283"/>
      <point x="59" y="187"/>
      <point x="59" y="100" type="curve" smooth="yes"/>
      <point x="59" y="33"/>
      <point x="91" y="0"/>
      <point x="156" y="0" type="curve" smooth="yes"/>
      <point x="200" y="0"/>
      <point x="273" y="16"/>
      <point x="376" y="49" type="curve" smooth="yes"/>
      <point x="458" y="75"/>
      <point x="523" y="88"/>
      <point x="565" y="88" type="curve" smooth="yes"/>
      <point x="636" y="88"/>
      <point x="673" y="12"/>
    </contour>
    <contour>
      <point x="314" y="386" type="curve"/>
      <point x="374" y="445"/>
      <point x="419" y="474"/>
      <point x="451" y="474" type="curve" smooth="yes"/>
      <point x="468" y="474"/>
      <point x="477" y="469"/>
      <point x="477" y="458" type="curve" smooth="yes"/>
      <point x="477" y="418"/>
      <point x="423" y="394"/>
    </contour>
    <contour>
      <point x="346" y="579" type="line"/>
      <point x="414" y="619"/>
      <point x="473" y="664"/>
      <point x="473" y="722" type="curve" smooth="yes"/>
      <point x="473" y="759"/>
      <point x="453" y="783"/>
      <point x="412" y="802" type="curve" smooth="yes"/>
      <point x="363" y="825" type="line" smooth="yes"/>
      <point x="341" y="835"/>
      <point x="329" y="847"/>
      <point x="329" y="864" type="curve" smooth="yes"/>
      <point x="329" y="884"/>
      <point x="349" y="894"/>
      <point x="383" y="894" type="curve" smooth="yes"/>
      <point x="395" y="894"/>
      <point x="410" y="893"/>
      <point x="429" y="890" type="curve"/>
      <point x="429" y="947" type="line"/>
      <point x="412" y="952"/>
      <point x="396" y="954"/>
      <point x="378" y="954" type="curve" smooth="yes"/>
      <point x="312" y="954"/>
      <point x="253" y="923"/>
      <point x="253" y="856" type="curve" smooth="yes"/>
      <point x="253" y="834"/>
      <point x="260" y="815"/>
      <point x="275" y="800" type="curve" smooth="yes"/>
      <point x="292" y="782"/>
      <point x="314" y="769"/>
      <point x="370" y="745" type="curve" smooth="yes"/>
      <point x="388" y="737"/>
      <point x="397" y="727"/>
      <point x="397" y="712" type="curve" smooth="yes"/>
      <point x="397" y="688"/>
      <point x="357" y="657"/>
      <point x="310" y="622" type="curve"/>
    </contour>
  </outline>
</glyph>
<glyph name="okara" format="2">
  <advance width="967"/>
  <unicode hex="A98E"/>
  <note>
okara
</note>
  <outline>
    <contour>
      <point x="249" y="-825" type="curve" smooth="yes"/>
      <point x="315" y="-825"/>
      <point x="398" y="-779"/>
      <point x="441" y="-697" type="curve" smooth="yes"/>
      <point x="516" y="-553" type="line" smooth="yes"/>
      <point x="546" y="-496"/>
      <point x="608" y="-448"/>
      <point x="672" y="-448" type="curve" smooth="yes"/>
      <point x="710" y="-448"/>
      <point x="742" y="-466"/>
      <point x="766" y="-502" type="curve" smooth="yes"/>
      <point x="791" y="-539"/>
      <point x="831" y="-643"/>
      <point x="888" y="-816" type="curve"/>
      <point x="955" y="-791" type="line"/>
      <point x="911" y="-621"/>
      <point x="869" y="-503"/>
      <point x="829" y="-440" type="curve" smooth="yes"/>
      <point x="788" y="-376"/>
      <point x="742" y="-353"/>
      <point x="662" y="-353" type="curve" smooth="yes"/>
      <point x="588" y="-353"/>
      <point x="488" y="-415"/>
      <point x="435" y="-506" type="curve" smooth="yes"/>
      <point x="325" y="-695" type="line" smooth="yes"/>
      <point x="309" y="-722"/>
      <point x="276" y="-739"/>
      <point x="256" y="-739" type="curve" smooth="yes"/>
      <point x="223" y="-739"/>
      <point x="214" y="-713"/>
      <point x="214" y="-667" type="curve" smooth="yes"/>
      <point x="214" y="-603"/>
      <point x="249" y="-526"/>
      <point x="309" y="-443" type="curve" smooth="yes"/>
      <point x="369" y="-360"/>
      <point x="484" y="-275"/>
      <point x="655" y="-189" type="curve" smooth="yes"/>
      <point x="826" y="-103"/>
      <point x="918" y="-7"/>
      <point x="918" y="89" type="curve" smooth="yes"/>
      <point x="918" y="388" type="line" smooth="yes"/>
      <point x="918" y="493"/>
      <point x="864" y="546"/>
      <point x="758" y="546" type="curve" smooth="yes"/>
      <point x="503" y="546" type="line"/>
      <point x="503" y="479" type="line"/>
      <point x="597" y="473"/>
      <point x="645" y="415"/>
      <point x="645" y="305" type="curve" smooth="yes"/>
      <point x="645" y="131" type="line" smooth="yes"/>
      <point x="645" y="89"/>
      <point x="625" y="68"/>
      <point x="586" y="68" type="curve" smooth="yes"/>
      <point x="455" y="68" type="line" smooth="yes"/>
      <point x="416" y="68"/>
      <point x="396" y="89"/>
      <point x="396" y="131" type="curve" smooth="yes"/>
      <point x="396" y="393" type="line" smooth="yes"/>
      <point x="396" y="495"/>
      <point x="344" y="546"/>
      <point x="238" y="546" type="curve" smooth="yes"/>
      <point x="132" y="546"/>
      <point x="78" y="493"/>
      <point x="78" y="388" type="curve" smooth="yes"/>
      <point x="78" y="151" type="line" smooth="yes"/>
      <point x="78" y="58"/>
      <point x="132" y="9"/>
      <point x="222" y="0" type="curve"/>
      <point x="240" y="68" type="line"/>
      <point x="190" y="76"/>
      <point x="165" y="104"/>
      <point x="165" y="154" type="curve" smooth="yes"/>
      <point x="165" y="391" type="line" smooth="yes"/>
      <point x="165" y="444"/>
      <point x="190" y="470"/>
      <point x="238" y="470" type="curve" smooth="yes"/>
      <point x="286" y="470"/>
      <point x="310" y="445"/>
      <point x="310" y="394" type="curve" smooth="yes"/>
      <point x="310" y="133" type="line" smooth="yes"/>
      <point x="310" y="45"/>
      <point x="356" y="0"/>
      <point x="450" y="0" type="curve" smooth="yes"/>
      <point x="591" y="0" type="line" smooth="yes"/>
      <point x="685" y="0"/>
      <point x="731" y="45"/>
      <point x="731" y="133" type="curve" smooth="yes"/>
      <point x="731" y="321" type="line" smooth="yes"/>
      <point x="731" y="404"/>
      <point x="704" y="454"/>
      <point x="649" y="470" type="curve"/>
      <point x="758" y="470" type="line" smooth="yes"/>
      <point x="807" y="470"/>
      <point x="831" y="444"/>
      <point x="831" y="391" type="curve" smooth="yes"/>
      <point x="831" y="100" type="line" smooth="yes"/>
      <point x="831" y="24"/>
      <point x="754" y="-51"/>
      <point x="599" y="-128" type="curve" smooth="yes"/>
      <point x="445" y="-204"/>
      <point x="328" y="-290"/>
      <point x="247" y="-385" type="curve" smooth="yes"/>
      <point x="167" y="-479"/>
      <point x="127" y="-581"/>
      <point x="127" y="-690" type="curve" smooth="yes"/>
      <point x="127" y="-769"/>
      <point x="172" y="-825"/>
    </contour>
  </outline>
</glyph>
<glyph name="ka" format="2">
  <advance width="1221"/>
  <unicode hex="A98F"/>
  <note>
ka
</note>
  <outline>
    <contour>
      <point x="222" y="0" type="curve"/>
      <point x="240" y="68" type="line"/>
      <point x="190" y="76"/>
      <point x="165" y="104"/>
      <point x="165" y="154" type="curve" smooth="yes"/>
      <point x="165" y="391" type="line" smooth="yes"/>
      <point x="165" y="444"/>
      <point x="190" y="470"/>
      <point x="238" y="470" type="curve" smooth="yes"/>
      <point x="286" y="470"/>
      <point x="310" y="445"/>
      <point x="310" y="394" type="curve" smooth="yes"/>
      <point x="310" y="0" type="line"/>
      <point x="396" y="0" type="line"/>
      <point x="396" y="182" type="line"/>
      <point x="495" y="182" type="line"/>
      <point x="495" y="116" type="line" smooth="yes"/>
      <point x="495" y="39"/>
      <point x="538" y="0"/>
      <point x="616" y="0" type="curve" smooth="yes"/>
      <point x="688" y="0"/>
      <point x="733" y="39"/>
      <point x="733" y="118" type="curve" smooth="yes"/>
      <point x="733" y="201"/>
      <point x="673" y="255"/>
      <point x="582" y="257" type="curve"/>
      <point x="582" y="328" type="line" smooth="yes"/>
      <point x="582" y="423"/>
      <point x="628" y="470"/>
      <point x="718" y="470" type="curve" smooth="yes"/>
      <point x="809" y="470"/>
      <point x="854" y="424"/>
      <point x="854" y="331" type="curve" smooth="yes"/>
      <point x="854" y="0" type="line"/>
      <point x="940" y="0" type="line"/>
      <point x="940" y="391" type="line" smooth="yes"/>
      <point x="940" y="444"/>
      <point x="965" y="470"/>
      <point x="1013" y="470" type="curve" smooth="yes"/>
      <point x="1061" y="470"/>
      <point x="1085" y="445"/>
      <point x="1085" y="394" type="curve" smooth="yes"/>
      <point x="1085" y="0" type="line"/>
      <point x="1172" y="0" type="line"/>
      <point x="1172" y="393" type="line" smooth="yes"/>
      <point x="1172" y="495"/>
      <point x="1122" y="546"/>
      <point x="1023" y="546" type="curve" smooth="yes"/>
      <point x="969" y="546"/>
      <point x="929" y="521"/>
      <point x="902" y="472" type="curve"/>
      <point x="866" y="521"/>
      <point x="805" y="546"/>
      <point x="718" y="546" type="curve" smooth="yes"/>
      <point x="570" y="546"/>
      <point x="495" y="472"/>
      <point x="495" y="325" type="curve" smooth="yes"/>
      <point x="495" y="257" type="line"/>
      <point x="396" y="257" type="line"/>
      <point x="396" y="393" type="line" smooth="yes"/>
      <point x="396" y="495"/>
      <point x="344" y="546"/>
      <point x="238" y="546" type="curve" smooth="yes"/>
      <point x="132" y="546"/>
      <point x="78" y="493"/>
      <point x="78" y="388" type="curve" smooth="yes"/>
      <point x="78" y="150" type="line" smooth="yes"/>
      <point x="78" y="57"/>
      <point x="132" y="10"/>
    </contour>
    <contour>
      <point x="620" y="71" type="curve" smooth="yes"/>
      <point x="595" y="71"/>
      <point x="582" y="86"/>
      <point x="582" y="116" type="curve" smooth="yes"/>
      <point x="582" y="182" type="line"/>
      <point x="627" y="182"/>
      <point x="657" y="160"/>
      <point x="657" y="117" type="curve" smooth="yes"/>
      <point x="657" y="89"/>
      <point x="649" y="71"/>
    </contour>
  </outline>
</glyph>
<glyph name="qa" format="2">
  <advance width="1221"/>
  <unicode hex="A990"/>
  <note>
qa
</note>
  <outline>
    <contour>
      <point x="783" y="-278" type="curve"/>
      <point x="861" y="-278" type="line"/>
      <point x="856" y="-152"/>
      <point x="802" y="-88"/>
      <point x="698" y="-88" type="curve" smooth="yes"/>
      <point x="612" y="-88" type="line"/>
      <point x="644" y="2" type="line"/>
      <point x="700" y="12"/>
      <point x="733" y="51"/>
      <point x="733" y="118" type="curve" smooth="yes"/>
      <point x="733" y="201"/>
      <point x="673" y="255"/>
      <point x="582" y="257" type="curve"/>
      <point x="582" y="328" type="line" smooth="yes"/>
      <point x="582" y="423"/>
      <point x="628" y="470"/>
      <point x="718" y="470" type="curve" smooth="yes"/>
      <point x="809" y="470"/>
      <point x="854" y="424"/>
      <point x="854" y="331" type="curve" smooth="yes"/>
      <point x="854" y="0" type="line"/>
      <point x="940" y="0" type="line"/>
      <point x="940" y="391" type="line" smooth="yes"/>
      <point x="940" y="444"/>
      <point x="965" y="470"/>
      <point x="1013" y="470" type="curve" smooth="yes"/>
      <point x="1061" y="470"/>
      <point x="1085" y="445"/>
      <point x="1085" y="394" type="curve" smooth="yes"/>
      <point x="1085" y="0" type="line"/>
      <point x="1172" y="0" type="line"/>
      <point x="1172" y="393" type="line" smooth="yes"/>
      <point x="1172" y="495"/>
      <point x="1122" y="546"/>
      <point x="1023" y="546" type="curve" smooth="yes"/>
      <point x="969" y="546"/>
      <point x="929" y="521"/>
      <point x="902" y="472" type="curve"/>
      <point x="866" y="521"/>
      <point x="805" y="546"/>
      <point x="718" y="546" type="curve" smooth="yes"/>
      <point x="570" y="546"/>
      <point x="495" y="472"/>
      <point x="495" y="325" type="curve" smooth="yes"/>
      <point x="495" y="257" type="line"/>
      <point x="396" y="257" type="line"/>
      <point x="396" y="393" type="line" smooth="yes"/>
      <point x="396" y="495"/>
      <point x="344" y="546"/>
      <point x="238" y="546" type="curve" smooth="yes"/>
      <point x="132" y="546"/>
      <point x="78" y="493"/>
      <point x="78" y="388" type="curve" smooth="yes"/>
      <point x="78" y="147" type="line" smooth="yes"/>
      <point x="78" y="54"/>
      <point x="136" y="10"/>
      <point x="222" y="0" type="curve"/>
      <point x="240" y="68" type="line"/>
      <point x="190" y="76"/>
      <point x="165" y="104"/>
      <point x="165" y="154" type="curve" smooth="yes"/>
      <point x="165" y="391" type="line" smooth="yes"/>
      <point x="165" y="444"/>
      <point x="190" y="470"/>
      <point x="238" y="470" type="curve" smooth="yes"/>
      <point x="286" y="470"/>
      <point x="310" y="445"/>
      <point x="310" y="394" type="curve" smooth="yes"/>
      <point x="310" y="0" type="line"/>
      <point x="396" y="0" type="line"/>
      <point x="396" y="182" type="line"/>
      <point x="495" y="182" type="line"/>
      <point x="495" y="116" type="line" smooth="yes"/>
      <point x="495" y="62"/>
      <point x="516" y="23"/>
      <point x="564" y="7" type="curve"/>
      <point x="516" y="-129" type="line"/>
      <point x="530" y="-161" type="line"/>
      <point x="688" y="-161" type="line" smooth="yes"/>
      <point x="751" y="-161"/>
      <point x="783" y="-200"/>
    </contour>
    <contour>
      <point x="620" y="71" type="curve" smooth="yes"/>
      <point x="595" y="71"/>
      <point x="582" y="86"/>
      <point x="582" y="116" type="curve" smooth="yes"/>
      <point x="582" y="182" type="line"/>
      <point x="627" y="182"/>
      <point x="657" y="160"/>
      <point x="657" y="117" type="curve" smooth="yes"/>
      <point x="657" y="88"/>
      <point x="648" y="71"/>
    </contour>
  </outline>
</glyph>
<glyph name="kha" format="2">
  <advance width="1289"/>
  <unicode hex="A991"/>
  <note>
kha
</note>
  <outline>
    <contour>
      <point x="967" y="-2" type="curve" smooth="yes"/>
      <point x="1033" y="-2"/>
      <point x="1075" y="48"/>
      <point x="1105" y="152" type="curve" smooth="yes"/>
      <point x="1150" y="310" type="line" smooth="yes"/>
      <point x="1177" y="405"/>
      <point x="1225" y="459"/>
      <point x="1289" y="472" type="curve"/>
      <point x="1272" y="543" type="line"/>
      <point x="1163" y="522"/>
      <point x="1091" y="441"/>
      <point x="1054" y="299" type="curve" smooth="yes"/>
      <point x="1009" y="125" type="line" smooth="yes"/>
      <point x="1002" y="99"/>
      <point x="988" y="83"/>
      <point x="971" y="83" type="curve" smooth="yes"/>
      <point x="951" y="83"/>
      <point x="940" y="96"/>
      <point x="940" y="120" type="curve" smooth="yes"/>
      <point x="940" y="330" type="line" smooth="yes"/>
      <point x="940" y="474"/>
      <point x="866" y="546"/>
      <point x="718" y="546" type="curve" smooth="yes"/>
      <point x="570" y="546"/>
      <point x="495" y="472"/>
      <point x="495" y="325" type="curve" smooth="yes"/>
      <point x="495" y="257" type="line"/>
      <point x="396" y="257" type="line"/>
      <point x="396" y="393" type="line" smooth="yes"/>
      <point x="396" y="495"/>
      <point x="344" y="546"/>
      <point x="238" y="546" type="curve" smooth="yes"/>
      <point x="132" y="546"/>
      <point x="78" y="493"/>
      <point x="78" y="388" type="curve" smooth="yes"/>
      <point x="78" y="150" type="line" smooth="yes"/>
      <point x="78" y="57"/>
      <point x="132" y="10"/>
      <point x="222" y="0" type="curve"/>
      <point x="240" y="68" type="line"/>
      <point x="190" y="76"/>
      <point x="165" y="104"/>
      <point x="165" y="154" type="curve" smooth="yes"/>
      <point x="165" y="391" type="line" smooth="yes"/>
      <point x="165" y="444"/>
      <point x="190" y="470"/>
      <point x="238" y="470" type="curve" smooth="yes"/>
      <point x="286" y="470"/>
      <point x="310" y="445"/>
      <point x="310" y="394" type="curve" smooth="yes"/>
      <point x="310" y="0" type="line"/>
      <point x="396" y="0" type="line"/>
      <point x="396" y="182" type="line"/>
      <point x="495" y="182" type="line"/>
      <point x="495" y="116" type="line" smooth="yes"/>
      <point x="495" y="39"/>
      <point x="538" y="0"/>
      <point x="616" y="0" type="curve" smooth="yes"/>
      <point x="688" y="0"/>
      <point x="733" y="39"/>
      <point x="733" y="118" type="curve" smooth="yes"/>
      <point x="733" y="201"/>
      <point x="673" y="255"/>
      <point x="582" y="257" type="curve"/>
      <point x="582" y="328" type="line" smooth="yes"/>
      <point x="582" y="423"/>
      <point x="628" y="470"/>
      <point x="718" y="470" type="curve" smooth="yes"/>
      <point x="809" y="470"/>
      <point x="854" y="424"/>
      <point x="854" y="331" type="curve" smooth="yes"/>
      <point x="854" y="134" type="line" smooth="yes"/>
      <point x="854" y="43"/>
      <point x="893" y="-2"/>
    </contour>
    <contour>
      <point x="620" y="71" type="curve" smooth="yes"/>
      <point x="595" y="71"/>
      <point x="582" y="86"/>
      <point x="582" y="116" type="curve" smooth="yes"/>
      <point x="582" y="182" type="line"/>
      <point x="627" y="182"/>
      <point x="657" y="160"/>
      <point x="657" y="117" type="curve" smooth="yes"/>
      <point x="657" y="88"/>
      <point x="649" y="71"/>
    </contour>
  </outline>
</glyph>
<glyph name="gha" format="2">
  <advance width="1258"/>
  <unicode hex="A993"/>
  <note>
gha
</note>
  <outline>
    <contour>
      <point x="222" y="0" type="curve"/>
      <point x="240" y="68" type="line"/>
      <point x="190" y="76"/>
      <point x="165" y="104"/>
      <point x="165" y="154" type="curve" smooth="yes"/>
      <point x="165" y="391" type="line" smooth="yes"/>
      <point x="165" y="444"/>
      <point x="190" y="470"/>
      <point x="237" y="470" type="curve" smooth="yes"/>
      <point x="279" y="470"/>
      <point x="310" y="441"/>
      <point x="310" y="394" type="curve" smooth="yes"/>
      <point x="310" y="0" type="line"/>
      <point x="396" y="0" type="line"/>
      <point x="396" y="391" type="line" smooth="yes"/>
      <point x="396" y="444"/>
      <point x="421" y="470"/>
      <point x="469" y="470" type="curve" smooth="yes"/>
      <point x="517" y="470"/>
      <point x="541" y="445"/>
      <point x="541" y="394" type="curve" smooth="yes"/>
      <point x="541" y="156" type="line" smooth="yes"/>
      <point x="541" y="52"/>
      <point x="591" y="0"/>
      <point x="683" y="0" type="curve" smooth="yes"/>
      <point x="729" y="0"/>
      <point x="762" y="21"/>
      <point x="782" y="63" type="curve"/>
      <point x="802" y="21"/>
      <point x="835" y="0"/>
      <point x="880" y="0" type="curve" smooth="yes"/>
      <point x="972" y="0"/>
      <point x="1022" y="52"/>
      <point x="1022" y="156" type="curve" smooth="yes"/>
      <point x="1022" y="321" type="line" smooth="yes"/>
      <point x="1022" y="404"/>
      <point x="995" y="454"/>
      <point x="940" y="470" type="curve"/>
      <point x="1049" y="470" type="line" smooth="yes"/>
      <point x="1098" y="470"/>
      <point x="1122" y="444"/>
      <point x="1122" y="391" type="curve" smooth="yes"/>
      <point x="1122" y="0" type="line"/>
      <point x="1209" y="0" type="line"/>
      <point x="1209" y="387" type="line" smooth="yes"/>
      <point x="1209" y="492"/>
      <point x="1155" y="546"/>
      <point x="1049" y="546" type="curve" smooth="yes"/>
      <point x="794" y="546" type="line"/>
      <point x="794" y="479" type="line"/>
      <point x="888" y="473"/>
      <point x="936" y="415"/>
      <point x="936" y="305" type="curve" smooth="yes"/>
      <point x="936" y="134" type="line" smooth="yes"/>
      <point x="936" y="94"/>
      <point x="916" y="72"/>
      <point x="880" y="72" type="curve" smooth="yes"/>
      <point x="845" y="72"/>
      <point x="825" y="94"/>
      <point x="825" y="134" type="curve" smooth="yes"/>
      <point x="825" y="213" type="line"/>
      <point x="738" y="213" type="line"/>
      <point x="738" y="132" type="line" smooth="yes"/>
      <point x="738" y="92"/>
      <point x="719" y="72"/>
      <point x="683" y="72" type="curve" smooth="yes"/>
      <point x="647" y="72"/>
      <point x="628" y="92"/>
      <point x="628" y="132" type="curve" smooth="yes"/>
      <point x="628" y="393" type="line" smooth="yes"/>
      <point x="628" y="495"/>
      <point x="577" y="546"/>
      <point x="474" y="546" type="curve" smooth="yes"/>
      <point x="421" y="546"/>
      <point x="382" y="525"/>
      <point x="356" y="483" type="curve"/>
      <point x="332" y="522"/>
      <point x="287" y="546"/>
      <point x="237" y="546" type="curve" smooth="yes"/>
      <point x="131" y="546"/>
      <point x="78" y="493"/>
      <point x="78" y="388" type="curve" smooth="yes"/>
      <point x="78" y="150" type="line" smooth="yes"/>
      <point x="78" y="56"/>
      <point x="132" y="10"/>
    </contour>
  </outline>
</glyph>
<glyph name="ca" format="2">
  <advance width="1043"/>
  <unicode hex="A995"/>
  <note>
ca
</note>
  <outline>
    <contour>
      <point x="222" y="0" type="curve"/>
      <point x="240" y="68" type="line"/>
      <point x="190" y="76"/>
      <point x="165" y="104"/>
      <point x="165" y="154" type="curve" smooth="yes"/>
      <point x="165" y="350" type="line" smooth="yes"/>
      <point x="165" y="430"/>
      <point x="207" y="470"/>
      <point x="291" y="470" type="curve" smooth="yes"/>
      <point x="375" y="470"/>
      <point x="417" y="429"/>
      <point x="417" y="347" type="curve" smooth="yes"/>
      <point x="417" y="233" type="line"/>
      <point x="405" y="235"/>
      <point x="394" y="236"/>
      <point x="383" y="236" type="curve" smooth="yes"/>
      <point x="310" y="236"/>
      <point x="266" y="190"/>
      <point x="266" y="118" type="curve" smooth="yes"/>
      <point x="266" y="44"/>
      <point x="309" y="0"/>
      <point x="383" y="0" type="curve" smooth="yes"/>
      <point x="458" y="0"/>
      <point x="504" y="46"/>
      <point x="504" y="121" type="curve"/>
      <point x="588" y="55" type="line" smooth="yes"/>
      <point x="634" y="19"/>
      <point x="675" y="0"/>
      <point x="718" y="0" type="curve" smooth="yes"/>
      <point x="776" y="0"/>
      <point x="808" y="43"/>
      <point x="808" y="124" type="curve" smooth="yes"/>
      <point x="808" y="321" type="line" smooth="yes"/>
      <point x="808" y="405"/>
      <point x="780" y="454"/>
      <point x="725" y="470" type="curve"/>
      <point x="834" y="470" type="line" smooth="yes"/>
      <point x="883" y="470"/>
      <point x="907" y="444"/>
      <point x="907" y="391" type="curve" smooth="yes"/>
      <point x="907" y="0" type="line"/>
      <point x="994" y="0" type="line"/>
      <point x="994" y="388" type="line" smooth="yes"/>
      <point x="994" y="493"/>
      <point x="940" y="546"/>
      <point x="834" y="546" type="curve" smooth="yes"/>
      <point x="579" y="546" type="line"/>
      <point x="579" y="479" type="line"/>
      <point x="673" y="473"/>
      <point x="721" y="415"/>
      <point x="721" y="305" type="curve" smooth="yes"/>
      <point x="721" y="132" type="line" smooth="yes"/>
      <point x="721" y="106"/>
      <point x="712" y="92"/>
      <point x="695" y="92" type="curve" smooth="yes"/>
      <point x="678" y="92"/>
      <point x="663" y="98"/>
      <point x="646" y="111" type="curve" smooth="yes"/>
      <point x="504" y="220" type="line"/>
      <point x="504" y="344" type="line" smooth="yes"/>
      <point x="504" y="479"/>
      <point x="432" y="546"/>
      <point x="291" y="546" type="curve" smooth="yes"/>
      <point x="149" y="546"/>
      <point x="78" y="480"/>
      <point x="78" y="349" type="curve" smooth="yes"/>
      <point x="78" y="150" type="line" smooth="yes"/>
      <point x="78" y="57"/>
      <point x="132" y="10"/>
    </contour>
    <contour>
      <point x="379" y="66" type="curve" smooth="yes"/>
      <point x="354" y="66"/>
      <point x="342" y="83"/>
      <point x="342" y="112" type="curve" smooth="yes"/>
      <point x="342" y="117" type="line" smooth="yes"/>
      <point x="342" y="150"/>
      <point x="357" y="167"/>
      <point x="389" y="167" type="curve" smooth="yes"/>
      <point x="397" y="167"/>
      <point x="407" y="165"/>
      <point x="417" y="162" type="curve"/>
      <point x="417" y="116" type="line" smooth="yes"/>
      <point x="417" y="83"/>
      <point x="404" y="66"/>
    </contour>
  </outline>
</glyph>
<glyph name="cha" format="2">
  <advance width="1479"/>
  <unicode hex="A996"/>
  <note>
cha
</note>
  <outline>
    <contour>
      <point x="238" y="0" type="curve" smooth="yes"/>
      <point x="344" y="0"/>
      <point x="396" y="51"/>
      <point x="396" y="153" type="curve" smooth="yes"/>
      <point x="396" y="416" type="line" smooth="yes"/>
      <point x="396" y="452"/>
      <point x="413" y="470"/>
      <point x="445" y="470" type="curve" smooth="yes"/>
      <point x="477" y="470"/>
      <point x="492" y="453"/>
      <point x="492" y="418" type="curve" smooth="yes"/>
      <point x="492" y="138" type="line" smooth="yes"/>
      <point x="492" y="46"/>
      <point x="538" y="0"/>
      <point x="627" y="0" type="curve" smooth="yes"/>
      <point x="717" y="0"/>
      <point x="762" y="44"/>
      <point x="762" y="133" type="curve" smooth="yes"/>
      <point x="762" y="416" type="line" smooth="yes"/>
      <point x="762" y="452"/>
      <point x="778" y="470"/>
      <point x="810" y="470" type="curve" smooth="yes"/>
      <point x="842" y="470"/>
      <point x="857" y="453"/>
      <point x="857" y="418" type="curve" smooth="yes"/>
      <point x="857" y="138" type="line" smooth="yes"/>
      <point x="857" y="46"/>
      <point x="903" y="0"/>
      <point x="993" y="0" type="curve" smooth="yes"/>
      <point x="1082" y="0"/>
      <point x="1127" y="44"/>
      <point x="1127" y="133" type="curve" smooth="yes"/>
      <point x="1127" y="327" type="line" smooth="yes"/>
      <point x="1127" y="415"/>
      <point x="1170" y="467"/>
      <point x="1248" y="467" type="curve" smooth="yes"/>
      <point x="1314" y="467"/>
      <point x="1347" y="444"/>
      <point x="1347" y="399" type="curve" smooth="yes"/>
      <point x="1347" y="334"/>
      <point x="1311" y="302"/>
      <point x="1239" y="302" type="curve" smooth="yes"/>
      <point x="1191" y="302" type="line"/>
      <point x="1191" y="230" type="line"/>
      <point x="1237" y="230" type="line" smooth="yes"/>
      <point x="1323" y="230"/>
      <point x="1368" y="198"/>
      <point x="1368" y="139" type="curve" smooth="yes"/>
      <point x="1368" y="101"/>
      <point x="1341" y="79"/>
      <point x="1300" y="79" type="curve" smooth="yes"/>
      <point x="1261" y="79"/>
      <point x="1225" y="93"/>
      <point x="1189" y="121" type="curve"/>
      <point x="1159" y="51" type="line"/>
      <point x="1204" y="18"/>
      <point x="1251" y="0"/>
      <point x="1300" y="0" type="curve" smooth="yes"/>
      <point x="1387" y="0"/>
      <point x="1450" y="46"/>
      <point x="1450" y="141" type="curve" smooth="yes"/>
      <point x="1450" y="203"/>
      <point x="1412" y="244"/>
      <point x="1335" y="263" type="curve"/>
      <point x="1335" y="268" type="line"/>
      <point x="1392" y="292"/>
      <point x="1435" y="335"/>
      <point x="1435" y="399" type="curve" smooth="yes"/>
      <point x="1435" y="497"/>
      <point x="1361" y="545"/>
      <point x="1258" y="545" type="curve" smooth="yes"/>
      <point x="1129" y="545"/>
      <point x="1040" y="459"/>
      <point x="1040" y="334" type="curve" smooth="yes"/>
      <point x="1040" y="132" type="line" smooth="yes"/>
      <point x="1040" y="95"/>
      <point x="1024" y="76"/>
      <point x="993" y="76" type="curve" smooth="yes"/>
      <point x="961" y="76"/>
      <point x="944" y="97"/>
      <point x="944" y="136" type="curve" smooth="yes"/>
      <point x="944" y="417" type="line" smooth="yes"/>
      <point x="944" y="503"/>
      <point x="899" y="546"/>
      <point x="810" y="546" type="curve" smooth="yes"/>
      <point x="721" y="546"/>
      <point x="675" y="501"/>
      <point x="675" y="413" type="curve" smooth="yes"/>
      <point x="675" y="132" type="line" smooth="yes"/>
      <point x="675" y="95"/>
      <point x="659" y="76"/>
      <point x="627" y="76" type="curve" smooth="yes"/>
      <point x="596" y="76"/>
      <point x="579" y="96"/>
      <point x="579" y="135" type="curve" smooth="yes"/>
      <point x="579" y="417" type="line" smooth="yes"/>
      <point x="579" y="503"/>
      <point x="534" y="546"/>
      <point x="445" y="546" type="curve" smooth="yes"/>
      <point x="355" y="546"/>
      <point x="310" y="502"/>
      <point x="310" y="414" type="curve" smooth="yes"/>
      <point x="310" y="152" type="line" smooth="yes"/>
      <point x="310" y="101"/>
      <point x="286" y="76"/>
      <point x="238" y="76" type="curve" smooth="yes"/>
      <point x="190" y="76"/>
      <point x="165" y="102"/>
      <point x="165" y="155" type="curve" smooth="yes"/>
      <point x="165" y="392" type="line" smooth="yes"/>
      <point x="165" y="441"/>
      <point x="190" y="470"/>
      <point x="240" y="478" type="curve"/>
      <point x="222" y="546" type="line"/>
      <point x="133" y="536"/>
      <point x="78" y="491"/>
      <point x="78" y="394" type="curve" smooth="yes"/>
      <point x="78" y="158" type="line" smooth="yes"/>
      <point x="78" y="53"/>
      <point x="132" y="0"/>
    </contour>
  </outline>
</glyph>
<glyph name="ja" format="2">
  <advance width="991"/>
  <unicode hex="A997"/>
  <note>
ja
</note>
  <outline>
    <contour>
      <point x="222" y="0" type="curve"/>
      <point x="240" y="68" type="line"/>
      <point x="190" y="76"/>
      <point x="165" y="104"/>
      <point x="165" y="154" type="curve" smooth="yes"/>
      <point x="165" y="391" type="line" smooth="yes"/>
      <point x="165" y="444"/>
      <point x="190" y="470"/>
      <point x="238" y="470" type="curve" smooth="yes"/>
      <point x="286" y="470"/>
      <point x="310" y="445"/>
      <point x="310" y="394" type="curve" smooth="yes"/>
      <point x="310" y="133" type="line" smooth="yes"/>
      <point x="310" y="45"/>
      <point x="356" y="0"/>
      <point x="450" y="0" type="curve" smooth="yes"/>
      <point x="732" y="0" type="line"/>
      <point x="732" y="68" type="line"/>
      <point x="634" y="101"/>
      <point x="580" y="142"/>
      <point x="569" y="193" type="curve"/>
      <point x="714" y="193" type="line" smooth="yes"/>
      <point x="796" y="193"/>
      <point x="851" y="158"/>
      <point x="851" y="72" type="curve" smooth="yes"/>
      <point x="851" y="0" type="line"/>
      <point x="938" y="0" type="line"/>
      <point x="938" y="93" type="line" smooth="yes"/>
      <point x="938" y="195"/>
      <point x="856" y="254"/>
      <point x="707" y="254" type="curve" smooth="yes"/>
      <point x="611" y="254" type="line"/>
      <point x="942" y="439" type="line"/>
      <point x="942" y="536" type="line"/>
      <point x="720" y="536" type="line" smooth="yes"/>
      <point x="567" y="536"/>
      <point x="489" y="457"/>
      <point x="489" y="297" type="curve" smooth="yes"/>
      <point x="489" y="271" type="line" smooth="yes"/>
      <point x="489" y="168"/>
      <point x="525" y="100"/>
      <point x="599" y="68" type="curve"/>
      <point x="455" y="68" type="line" smooth="yes"/>
      <point x="416" y="68"/>
      <point x="396" y="89"/>
      <point x="396" y="131" type="curve" smooth="yes"/>
      <point x="396" y="393" type="line" smooth="yes"/>
      <point x="396" y="495"/>
      <point x="344" y="546"/>
      <point x="238" y="546" type="curve" smooth="yes"/>
      <point x="132" y="546"/>
      <point x="78" y="493"/>
      <point x="78" y="388" type="curve" smooth="yes"/>
      <point x="78" y="150" type="line" smooth="yes"/>
      <point x="78" y="57"/>
      <point x="132" y="10"/>
    </contour>
    <contour>
      <point x="569" y="300" type="line"/>
      <point x="569" y="332" type="line" smooth="yes"/>
      <point x="569" y="414"/>
      <point x="622" y="473"/>
      <point x="715" y="473" type="curve" smooth="yes"/>
      <point x="846" y="473" type="line"/>
    </contour>
  </outline>
</glyph>
<glyph name="jha" format="2">
  <advance width="1159"/>
  <unicode hex="A999"/>
  <note>
jha
</note>
  <outline>
    <contour>
      <point x="728" y="-829" type="curve" smooth="yes"/>
      <point x="1002" y="-829"/>
      <point x="1110" y="-712"/>
      <point x="1110" y="-506" type="curve" smooth="yes"/>
      <point x="1110" y="521" type="line" smooth="yes"/>
      <point x="1110" y="643"/>
      <point x="1089" y="721"/>
      <point x="1047" y="756" type="curve" smooth="yes"/>
      <point x="1020" y="778"/>
      <point x="992" y="790"/>
      <point x="963" y="790" type="curve" smooth="yes"/>
      <point x="898" y="790"/>
      <point x="854" y="753"/>
      <point x="854" y="680" type="curve" smooth="yes"/>
      <point x="854" y="592"/>
      <point x="921" y="541"/>
      <point x="1023" y="503" type="curve"/>
      <point x="1023" y="-511" type="line" smooth="yes"/>
      <point x="1023" y="-666"/>
      <point x="924" y="-744"/>
      <point x="722" y="-744" type="curve" smooth="yes"/>
      <point x="541" y="-744"/>
      <point x="435" y="-661"/>
      <point x="435" y="-519" type="curve" smooth="yes"/>
      <point x="435" y="-460"/>
      <point x="454" y="-407"/>
      <point x="493" y="-358" type="curve" smooth="yes"/>
      <point x="532" y="-310"/>
      <point x="580" y="-274"/>
      <point x="637" y="-252" type="curve" smooth="yes"/>
      <point x="821" y="-182"/>
      <point x="927" y="-91"/>
      <point x="927" y="5" type="curve" smooth="yes"/>
      <point x="927" y="390" type="line" smooth="yes"/>
      <point x="927" y="493"/>
      <point x="881" y="546"/>
      <point x="792" y="546" type="curve" smooth="yes"/>
      <point x="739" y="546"/>
      <point x="704" y="526"/>
      <point x="686" y="485" type="curve"/>
      <point x="663" y="527"/>
      <point x="627" y="548"/>
      <point x="580" y="548" type="curve" smooth="yes"/>
      <point x="499" y="548"/>
      <point x="455" y="503"/>
      <point x="455" y="434" type="curve" smooth="yes"/>
      <point x="455" y="361"/>
      <point x="495" y="318"/>
      <point x="574" y="301" type="curve"/>
      <point x="603" y="360" type="line"/>
      <point x="558" y="373"/>
      <point x="535" y="395"/>
      <point x="535" y="428" type="curve" smooth="yes"/>
      <point x="535" y="455"/>
      <point x="552" y="473"/>
      <point x="579" y="473" type="curve" smooth="yes"/>
      <point x="618" y="473"/>
      <point x="641" y="441"/>
      <point x="647" y="384" type="curve"/>
      <point x="715" y="384" type="line"/>
      <point x="722" y="441"/>
      <point x="745" y="470"/>
      <point x="783" y="470" type="curve" smooth="yes"/>
      <point x="821" y="470"/>
      <point x="840" y="445"/>
      <point x="840" y="394" type="curve" smooth="yes"/>
      <point x="840" y="-7" type="line" smooth="yes"/>
      <point x="840" y="-59"/>
      <point x="765" y="-113"/>
      <point x="615" y="-174" type="curve" smooth="yes"/>
      <point x="432" y="-248"/>
      <point x="340" y="-363"/>
      <point x="340" y="-523" type="curve" smooth="yes"/>
      <point x="340" y="-725"/>
      <point x="480" y="-829"/>
    </contour>
    <contour>
      <point x="222" y="0" type="curve"/>
      <point x="240" y="68" type="line"/>
      <point x="190" y="76"/>
      <point x="165" y="104"/>
      <point x="165" y="154" type="curve" smooth="yes"/>
      <point x="165" y="391" type="line" smooth="yes"/>
      <point x="165" y="444"/>
      <point x="190" y="470"/>
      <point x="238" y="470" type="curve" smooth="yes"/>
      <point x="286" y="470"/>
      <point x="310" y="445"/>
      <point x="310" y="394" type="curve" smooth="yes"/>
      <point x="310" y="133" type="line" smooth="yes"/>
      <point x="310" y="45"/>
      <point x="357" y="0"/>
      <point x="450" y="0" type="curve" smooth="yes"/>
      <point x="676" y="0" type="line"/>
      <point x="693" y="30" type="line"/>
      <point x="563" y="219" type="line"/>
      <point x="469" y="219" type="line"/>
      <point x="575" y="68" type="line"/>
      <point x="455" y="68" type="line" smooth="yes"/>
      <point x="416" y="68"/>
      <point x="396" y="89"/>
      <point x="396" y="131" type="curve" smooth="yes"/>
      <point x="396" y="393" type="line" smooth="yes"/>
      <point x="396" y="495"/>
      <point x="344" y="546"/>
      <point x="238" y="546" type="curve" smooth="yes"/>
      <point x="132" y="546"/>
      <point x="78" y="493"/>
      <point x="78" y="388" type="curve" smooth="yes"/>
      <point x="78" y="149" type="line" smooth="yes"/>
      <point x="78" y="53"/>
      <point x="137" y="9"/>
    </contour>
    <contour>
      <point x="1026" y="577" type="line"/>
      <point x="962" y="603"/>
      <point x="930" y="636"/>
      <point x="930" y="676" type="curve" smooth="yes"/>
      <point x="930" y="701"/>
      <point x="941" y="713"/>
      <point x="964" y="713" type="curve" smooth="yes"/>
      <point x="1000" y="713"/>
      <point x="1021" y="668"/>
      <point x="1026" y="577" type="curve"/>
    </contour>
  </outline>
</glyph>
<glyph name="nya" format="2">
  <advance width="1439"/>
  <unicode hex="A99A"/>
  <note>
nya
</note>
  <outline>
    <contour>
      <point x="840" y="0" type="line"/>
      <point x="927" y="0" type="line"/>
      <point x="927" y="391" type="line" smooth="yes"/>
      <point x="927" y="444"/>
      <point x="951" y="470"/>
      <point x="999" y="470" type="curve" smooth="yes"/>
      <point x="1038" y="470"/>
      <point x="1071" y="443"/>
      <point x="1071" y="397" type="curve" smooth="yes"/>
      <point x="1071" y="0" type="line"/>
      <point x="1158" y="0" type="line"/>
      <point x="1158" y="391" type="line" smooth="yes"/>
      <point x="1158" y="444"/>
      <point x="1183" y="470"/>
      <point x="1231" y="470" type="curve" smooth="yes"/>
      <point x="1279" y="470"/>
      <point x="1303" y="445"/>
      <point x="1303" y="394" type="curve" smooth="yes"/>
      <point x="1303" y="0" type="line"/>
      <point x="1390" y="0" type="line"/>
      <point x="1390" y="393" type="line" smooth="yes"/>
      <point x="1390" y="495"/>
      <point x="1337" y="546"/>
      <point x="1231" y="546" type="curve" smooth="yes"/>
      <point x="1182" y="546"/>
      <point x="1144" y="525"/>
      <point x="1118" y="483" type="curve"/>
      <point x="1094" y="522"/>
      <point x="1048" y="546"/>
      <point x="1000" y="546" type="curve" smooth="yes"/>
      <point x="950" y="546"/>
      <point x="912" y="525"/>
      <point x="886" y="483" type="curve"/>
      <point x="867" y="525"/>
      <point x="832" y="546"/>
      <point x="783" y="546" type="curve" smooth="yes"/>
      <point x="736" y="546"/>
      <point x="704" y="526"/>
      <point x="686" y="485" type="curve"/>
      <point x="663" y="527"/>
      <point x="627" y="548"/>
      <point x="580" y="548" type="curve" smooth="yes"/>
      <point x="500" y="548"/>
      <point x="455" y="503"/>
      <point x="455" y="433" type="curve" smooth="yes"/>
      <point x="455" y="363"/>
      <point x="495" y="318"/>
      <point x="574" y="301" type="curve"/>
      <point x="603" y="360" type="line"/>
      <point x="558" y="373"/>
      <point x="535" y="395"/>
      <point x="535" y="428" type="curve" smooth="yes"/>
      <point x="535" y="456"/>
      <point x="552" y="473"/>
      <point x="579" y="473" type="curve" smooth="yes"/>
      <point x="616" y="473"/>
      <point x="641" y="441"/>
      <point x="647" y="384" type="curve"/>
      <point x="715" y="384" type="line"/>
      <point x="722" y="441"/>
      <point x="745" y="470"/>
      <point x="783" y="470" type="curve" smooth="yes"/>
      <point x="821" y="470"/>
      <point x="840" y="445"/>
      <point x="840" y="394" type="curve" smooth="yes"/>
    </contour>
    <contour>
      <point x="450" y="0" type="curve" smooth="yes"/>
      <point x="676" y="0" type="line"/>
      <point x="693" y="30" type="line"/>
      <point x="563" y="219" type="line"/>
      <point x="469" y="219" type="line"/>
      <point x="575" y="68" type="line"/>
      <point x="455" y="68" type="line" smooth="yes"/>
      <point x="416" y="68"/>
      <point x="396" y="89"/>
      <point x="396" y="131" type="curve" smooth="yes"/>
      <point x="396" y="393" type="line" smooth="yes"/>
      <point x="396" y="495"/>
      <point x="344" y="546"/>
      <point x="238" y="546" type="curve" smooth="yes"/>
      <point x="132" y="546"/>
      <point x="78" y="493"/>
      <point x="78" y="388" type="curve" smooth="yes"/>
      <point x="78" y="149" type="line" smooth="yes"/>
      <point x="78" y="53"/>
      <point x="137" y="9"/>
      <point x="222" y="0" type="curve"/>
      <point x="240" y="68" type="line"/>
      <point x="190" y="76"/>
      <point x="165" y="104"/>
      <point x="165" y="154" type="curve" smooth="yes"/>
      <point x="165" y="391" type="line" smooth="yes"/>
      <point x="165" y="444"/>
      <point x="190" y="470"/>
      <point x="238" y="470" type="curve" smooth="yes"/>
      <point x="286" y="470"/>
      <point x="310" y="445"/>
      <point x="310" y="394" type="curve" smooth="yes"/>
      <point x="310" y="133" type="line" smooth="yes"/>
      <point x="310" y="45"/>
      <point x="357" y="0"/>
    </contour>
  </outline>
</glyph>
<glyph name="tta" format="2">
  <advance width="976"/>
  <unicode hex="A99B"/>
  <note>
tta
</note>
  <outline>
    <contour>
      <point x="556" y="-140" type="curve" smooth="yes"/>
      <point x="597" y="-140"/>
      <point x="644" y="-124"/>
      <point x="697" y="-91" type="curve"/>
      <point x="672" y="-33" type="line"/>
      <point x="627" y="-54"/>
      <point x="591" y="-64"/>
      <point x="563" y="-64" type="curve" smooth="yes"/>
      <point x="527" y="-64"/>
      <point x="510" y="-44"/>
      <point x="509" y="2" type="curve"/>
      <point x="561" y="6"/>
      <point x="603" y="22"/>
      <point x="636" y="51" type="curve" smooth="yes"/>
      <point x="668" y="80"/>
      <point x="685" y="114"/>
      <point x="685" y="159" type="curve" smooth="yes"/>
      <point x="685" y="209"/>
      <point x="652" y="239"/>
      <point x="601" y="239" type="curve" smooth="yes"/>
      <point x="505" y="239"/>
      <point x="461" y="171"/>
      <point x="449" y="69" type="curve"/>
      <point x="414" y="69"/>
      <point x="396" y="92"/>
      <point x="396" y="137" type="curve" smooth="yes"/>
      <point x="396" y="393" type="line" smooth="yes"/>
      <point x="396" y="495"/>
      <point x="344" y="546"/>
      <point x="238" y="546" type="curve" smooth="yes"/>
      <point x="132" y="546"/>
      <point x="78" y="493"/>
      <point x="78" y="388" type="curve" smooth="yes"/>
      <point x="78" y="150" type="line" smooth="yes"/>
      <point x="78" y="57"/>
      <point x="132" y="11"/>
      <point x="222" y="0" type="curve"/>
      <point x="240" y="68" type="line"/>
      <point x="190" y="76"/>
      <point x="165" y="104"/>
      <point x="165" y="154" type="curve" smooth="yes"/>
      <point x="165" y="391" type="line" smooth="yes"/>
      <point x="165" y="444"/>
      <point x="190" y="470"/>
      <point x="238" y="470" type="curve" smooth="yes"/>
      <point x="286" y="470"/>
      <point x="310" y="445"/>
      <point x="310" y="394" type="curve" smooth="yes"/>
      <point x="310" y="138" type="line" smooth="yes"/>
      <point x="310" y="47"/>
      <point x="353" y="1"/>
      <point x="440" y="0" type="curve"/>
      <point x="440" y="-94"/>
      <point x="479" y="-140"/>
    </contour>
    <contour>
      <point x="519" y="71" type="curve"/>
      <point x="530" y="139"/>
      <point x="553" y="173"/>
      <point x="589" y="173" type="curve" smooth="yes"/>
      <point x="605" y="173"/>
      <point x="613" y="164"/>
      <point x="613" y="146" type="curve" smooth="yes"/>
      <point x="613" y="115"/>
      <point x="578" y="86"/>
    </contour>
    <contour>
      <point x="840" y="0" type="line"/>
      <point x="927" y="0" type="line"/>
      <point x="927" y="391" type="line" smooth="yes"/>
      <point x="927" y="494"/>
      <point x="881" y="546"/>
      <point x="792" y="546" type="curve" smooth="yes"/>
      <point x="739" y="546"/>
      <point x="704" y="526"/>
      <point x="686" y="485" type="curve"/>
      <point x="663" y="527"/>
      <point x="628" y="548"/>
      <point x="581" y="548" type="curve" smooth="yes"/>
      <point x="501" y="548"/>
      <point x="459" y="510"/>
      <point x="455" y="435" type="curve"/>
      <point x="455" y="362"/>
      <point x="495" y="318"/>
      <point x="574" y="301" type="curve"/>
      <point x="603" y="360" type="line"/>
      <point x="558" y="373"/>
      <point x="535" y="395"/>
      <point x="535" y="428" type="curve" smooth="yes"/>
      <point x="535" y="456"/>
      <point x="552" y="473"/>
      <point x="579" y="473" type="curve" smooth="yes"/>
      <point x="616" y="473"/>
      <point x="641" y="441"/>
      <point x="647" y="384" type="curve"/>
      <point x="715" y="384" type="line"/>
      <point x="722" y="441"/>
      <point x="745" y="470"/>
      <point x="783" y="470" type="curve" smooth="yes"/>
      <point x="821" y="470"/>
      <point x="840" y="445"/>
      <point x="840" y="394" type="curve" smooth="yes"/>
    </contour>
  </outline>
</glyph>
<glyph name="ttha" format="2">
  <advance width="976"/>
  <unicode hex="A99C"/>
  <note>
ttha
</note>
  <outline>
    <contour>
      <point x="222" y="0" type="curve"/>
      <point x="240" y="68" type="line"/>
      <point x="190" y="76"/>
      <point x="165" y="104"/>
      <point x="165" y="154" type="curve" smooth="yes"/>
      <point x="165" y="391" type="line" smooth="yes"/>
      <point x="165" y="444"/>
      <point x="190" y="470"/>
      <point x="238" y="470" type="curve" smooth="yes"/>
      <point x="286" y="470"/>
      <point x="310" y="445"/>
      <point x="310" y="394" type="curve" smooth="yes"/>
      <point x="310" y="138" type="line" smooth="yes"/>
      <point x="310" y="47"/>
      <point x="359" y="0"/>
      <point x="459" y="0" type="curve" smooth="yes"/>
      <point x="535" y="0"/>
      <point x="591" y="16"/>
      <point x="628" y="47" type="curve" smooth="yes"/>
      <point x="666" y="78"/>
      <point x="685" y="115"/>
      <point x="685" y="160" type="curve" smooth="yes"/>
      <point x="685" y="210"/>
      <point x="652" y="239"/>
      <point x="601" y="239" type="curve" smooth="yes"/>
      <point x="507" y="239"/>
      <point x="461" y="171"/>
      <point x="449" y="69" type="curve"/>
      <point x="414" y="69"/>
      <point x="396" y="92"/>
      <point x="396" y="137" type="curve" smooth="yes"/>
      <point x="396" y="393" type="line" smooth="yes"/>
      <point x="396" y="495"/>
      <point x="344" y="546"/>
      <point x="238" y="546" type="curve" smooth="yes"/>
      <point x="132" y="546"/>
      <point x="78" y="493"/>
      <point x="78" y="388" type="curve" smooth="yes"/>
      <point x="78" y="150" type="line" smooth="yes"/>
      <point x="78" y="57"/>
      <point x="132" y="10"/>
    </contour>
    <contour>
      <point x="519" y="71" type="curve"/>
      <point x="530" y="139"/>
      <point x="553" y="173"/>
      <point x="589" y="173" type="curve" smooth="yes"/>
      <point x="605" y="173"/>
      <point x="613" y="164"/>
      <point x="613" y="145" type="curve" smooth="yes"/>
      <point x="613" y="115"/>
      <point x="578" y="86"/>
    </contour>
    <contour>
      <point x="840" y="0" type="line"/>
      <point x="927" y="0" type="line"/>
      <point x="927" y="391" type="line" smooth="yes"/>
      <point x="927" y="494"/>
      <point x="881" y="546"/>
      <point x="792" y="546" type="curve" smooth="yes"/>
      <point x="739" y="546"/>
      <point x="704" y="526"/>
      <point x="686" y="485" type="curve"/>
      <point x="663" y="527"/>
      <point x="628" y="548"/>
      <point x="581" y="548" type="curve" smooth="yes"/>
      <point x="501" y="548"/>
      <point x="459" y="510"/>
      <point x="455" y="435" type="curve"/>
      <point x="455" y="362"/>
      <point x="495" y="318"/>
      <point x="574" y="301" type="curve"/>
      <point x="603" y="360" type="line"/>
      <point x="558" y="373"/>
      <point x="535" y="395"/>
      <point x="535" y="428" type="curve" smooth="yes"/>
      <point x="535" y="456"/>
      <point x="552" y="473"/>
      <point x="579" y="473" type="curve" smooth="yes"/>
      <point x="616" y="473"/>
      <point x="641" y="441"/>
      <point x="647" y="384" type="curve"/>
      <point x="715" y="384" type="line"/>
      <point x="722" y="441"/>
      <point x="745" y="470"/>
      <point x="783" y="470" type="curve" smooth="yes"/>
      <point x="821" y="470"/>
      <point x="840" y="445"/>
      <point x="840" y="394" type="curve" smooth="yes"/>
    </contour>
  </outline>
</glyph>
<glyph name="ddha" format="2">
  <advance width="841"/>
  <unicode hex="A99E"/>
  <note>
ddha
</note>
  <outline>
    <contour>
      <point x="222" y="0" type="curve"/>
      <point x="241" y="68" type="line"/>
      <point x="190" y="76"/>
      <point x="165" y="104"/>
      <point x="165" y="154" type="curve" smooth="yes"/>
      <point x="165" y="391" type="line" smooth="yes"/>
      <point x="165" y="444"/>
      <point x="190" y="470"/>
      <point x="238" y="470" type="curve" smooth="yes"/>
      <point x="286" y="470"/>
      <point x="310" y="445"/>
      <point x="310" y="394" type="curve" smooth="yes"/>
      <point x="310" y="159" type="line" smooth="yes"/>
      <point x="310" y="55"/>
      <point x="360" y="0"/>
      <point x="452" y="0" type="curve" smooth="yes"/>
      <point x="498" y="0"/>
      <point x="531" y="21"/>
      <point x="551" y="63" type="curve"/>
      <point x="571" y="21"/>
      <point x="604" y="0"/>
      <point x="649" y="0" type="curve" smooth="yes"/>
      <point x="741" y="0"/>
      <point x="792" y="52"/>
      <point x="792" y="156" type="curve" smooth="yes"/>
      <point x="792" y="393" type="line" smooth="yes"/>
      <point x="792" y="491"/>
      <point x="740" y="534"/>
      <point x="648" y="546" type="curve"/>
      <point x="629" y="478" type="line"/>
      <point x="680" y="470"/>
      <point x="705" y="441"/>
      <point x="705" y="392" type="curve" smooth="yes"/>
      <point x="705" y="133" type="line" smooth="yes"/>
      <point x="705" y="93"/>
      <point x="685" y="72"/>
      <point x="649" y="72" type="curve" smooth="yes"/>
      <point x="614" y="72"/>
      <point x="594" y="93"/>
      <point x="594" y="133" type="curve" smooth="yes"/>
      <point x="594" y="213" type="line"/>
      <point x="507" y="213" type="line"/>
      <point x="507" y="132" type="line" smooth="yes"/>
      <point x="507" y="92"/>
      <point x="488" y="72"/>
      <point x="452" y="72" type="curve" smooth="yes"/>
      <point x="417" y="72"/>
      <point x="397" y="94"/>
      <point x="397" y="134" type="curve" smooth="yes"/>
      <point x="397" y="393" type="line" smooth="yes"/>
      <point x="397" y="495"/>
      <point x="344" y="546"/>
      <point x="238" y="546" type="curve" smooth="yes"/>
      <point x="132" y="546"/>
      <point x="78" y="493"/>
      <point x="78" y="388" type="curve" smooth="yes"/>
      <point x="78" y="150" type="line" smooth="yes"/>
      <point x="78" y="56"/>
      <point x="132" y="11"/>
    </contour>
  </outline>
</glyph>
<glyph name="ta" format="2">
  <advance width="1183"/>
  <unicode hex="A9A0"/>
  <note>
ta
</note>
  <outline>
    <contour>
      <point x="222" y="0" type="curve"/>
      <point x="240" y="68" type="line"/>
      <point x="190" y="76"/>
      <point x="165" y="104"/>
      <point x="165" y="154" type="curve" smooth="yes"/>
      <point x="165" y="391" type="line" smooth="yes"/>
      <point x="165" y="444"/>
      <point x="190" y="470"/>
      <point x="238" y="470" type="curve" smooth="yes"/>
      <point x="286" y="470"/>
      <point x="310" y="445"/>
      <point x="310" y="394" type="curve" smooth="yes"/>
      <point x="310" y="133" type="line" smooth="yes"/>
      <point x="310" y="45"/>
      <point x="356" y="0"/>
      <point x="450" y="0" type="curve" smooth="yes"/>
      <point x="588" y="0" type="line" smooth="yes"/>
      <point x="695" y="0"/>
      <point x="759" y="40"/>
      <point x="759" y="148" type="curve" smooth="yes"/>
      <point x="759" y="198"/>
      <point x="745" y="234"/>
      <point x="707" y="261" type="curve" smooth="yes"/>
      <point x="689" y="274"/>
      <point x="663" y="289"/>
      <point x="636" y="303" type="curve" smooth="yes"/>
      <point x="581" y="332"/>
      <point x="536" y="360"/>
      <point x="536" y="405" type="curve" smooth="yes"/>
      <point x="536" y="447"/>
      <point x="566" y="470"/>
      <point x="617" y="470" type="curve" smooth="yes"/>
      <point x="734" y="470" type="line" smooth="yes"/>
      <point x="788" y="470"/>
      <point x="815" y="437"/>
      <point x="815" y="370" type="curve" smooth="yes"/>
      <point x="815" y="0" type="line"/>
      <point x="902" y="0" type="line"/>
      <point x="902" y="391" type="line" smooth="yes"/>
      <point x="902" y="444"/>
      <point x="927" y="470"/>
      <point x="975" y="470" type="curve" smooth="yes"/>
      <point x="1023" y="470"/>
      <point x="1047" y="445"/>
      <point x="1047" y="394" type="curve" smooth="yes"/>
      <point x="1047" y="0" type="line"/>
      <point x="1134" y="0" type="line"/>
      <point x="1134" y="393" type="line" smooth="yes"/>
      <point x="1134" y="495"/>
      <point x="1083" y="546"/>
      <point x="980" y="546" type="curve" smooth="yes"/>
      <point x="927" y="546"/>
      <point x="888" y="525"/>
      <point x="862" y="483" type="curve"/>
      <point x="842" y="525"/>
      <point x="800" y="546"/>
      <point x="734" y="546" type="curve" smooth="yes"/>
      <point x="612" y="546" type="line" smooth="yes"/>
      <point x="525" y="546"/>
      <point x="450" y="495"/>
      <point x="450" y="404" type="curve" smooth="yes"/>
      <point x="450" y="359"/>
      <point x="470" y="325"/>
      <point x="506" y="294" type="curve" smooth="yes"/>
      <point x="522" y="281"/>
      <point x="549" y="265"/>
      <point x="586" y="244" type="curve" smooth="yes"/>
      <point x="638" y="215"/>
      <point x="673" y="184"/>
      <point x="673" y="140" type="curve" smooth="yes"/>
      <point x="673" y="91"/>
      <point x="640" y="70"/>
      <point x="590" y="70" type="curve" smooth="yes"/>
      <point x="442" y="70" type="line" smooth="yes"/>
      <point x="414" y="70"/>
      <point x="396" y="97"/>
      <point x="396" y="131" type="curve" smooth="yes"/>
      <point x="396" y="393" type="line" smooth="yes"/>
      <point x="396" y="495"/>
      <point x="344" y="546"/>
      <point x="238" y="546" type="curve" smooth="yes"/>
      <point x="132" y="546"/>
      <point x="78" y="493"/>
      <point x="78" y="388" type="curve" smooth="yes"/>
      <point x="78" y="153" type="line" smooth="yes"/>
      <point x="78" y="60"/>
      <point x="133" y="7"/>
    </contour>
  </outline>
</glyph>
<glyph name="tha" format="2">
  <advance width="967"/>
  <unicode hex="A9A1"/>
  <note>
tha
</note>
  <outline>
    <contour>
      <point x="558" y="-140" type="curve" smooth="yes"/>
      <point x="599" y="-140"/>
      <point x="637" y="-126"/>
      <point x="674" y="-98" type="curve"/>
      <point x="649" y="-39" type="line"/>
      <point x="622" y="-56"/>
      <point x="594" y="-64"/>
      <point x="564" y="-64" type="curve" smooth="yes"/>
      <point x="542" y="-64"/>
      <point x="524" y="-58"/>
      <point x="524" y="-32" type="curve" smooth="yes"/>
      <point x="524" y="-23"/>
      <point x="526" y="-16"/>
      <point x="531" y="0" type="curve"/>
      <point x="591" y="0" type="line" smooth="yes"/>
      <point x="685" y="0"/>
      <point x="731" y="45"/>
      <point x="731" y="133" type="curve" smooth="yes"/>
      <point x="731" y="321" type="line" smooth="yes"/>
      <point x="731" y="404"/>
      <point x="704" y="454"/>
      <point x="649" y="470" type="curve"/>
      <point x="758" y="470" type="line" smooth="yes"/>
      <point x="807" y="470"/>
      <point x="831" y="444"/>
      <point x="831" y="391" type="curve" smooth="yes"/>
      <point x="831" y="0" type="line"/>
      <point x="918" y="0" type="line"/>
      <point x="918" y="388" type="line" smooth="yes"/>
      <point x="918" y="493"/>
      <point x="864" y="546"/>
      <point x="758" y="546" type="curve" smooth="yes"/>
      <point x="503" y="546" type="line"/>
      <point x="503" y="479" type="line"/>
      <point x="597" y="473"/>
      <point x="645" y="415"/>
      <point x="645" y="305" type="curve" smooth="yes"/>
      <point x="645" y="131" type="line" smooth="yes"/>
      <point x="645" y="89"/>
      <point x="625" y="68"/>
      <point x="586" y="68" type="curve" smooth="yes"/>
      <point x="555" y="68" type="line"/>
      <point x="569" y="104"/>
      <point x="575" y="125"/>
      <point x="575" y="149" type="curve" smooth="yes"/>
      <point x="575" y="214"/>
      <point x="531" y="251"/>
      <point x="443" y="261" type="curve"/>
      <point x="431" y="189" type="line"/>
      <point x="475" y="184"/>
      <point x="497" y="166"/>
      <point x="497" y="137" type="curve" smooth="yes"/>
      <point x="497" y="129"/>
      <point x="495" y="121"/>
      <point x="477" y="68" type="curve"/>
      <point x="455" y="68" type="line" smooth="yes"/>
      <point x="416" y="68"/>
      <point x="396" y="89"/>
      <point x="396" y="131" type="curve" smooth="yes"/>
      <point x="396" y="393" type="line" smooth="yes"/>
      <point x="396" y="495"/>
      <point x="344" y="546"/>
      <point x="238" y="546" type="curve" smooth="yes"/>
      <point x="132" y="546"/>
      <point x="78" y="493"/>
      <point x="78" y="388" type="curve" smooth="yes"/>
      <point x="78" y="153" type="line" smooth="yes"/>
      <point x="78" y="101"/>
      <point x="92" y="63"/>
      <point x="121" y="40" type="curve" smooth="yes"/>
      <point x="149" y="17"/>
      <point x="182" y="3"/>
      <point x="222" y="0" type="curve"/>
      <point x="240" y="68" type="line"/>
      <point x="190" y="76"/>
      <point x="165" y="104"/>
      <point x="165" y="154" type="curve" smooth="yes"/>
      <point x="165" y="391" type="line" smooth="yes"/>
      <point x="165" y="444"/>
      <point x="190" y="470"/>
      <point x="238" y="470" type="curve" smooth="yes"/>
      <point x="286" y="470"/>
      <point x="310" y="445"/>
      <point x="310" y="394" type="curve" smooth="yes"/>
      <point x="310" y="133" type="line" smooth="yes"/>
      <point x="310" y="45"/>
      <point x="356" y="0"/>
      <point x="450" y="0" type="curve" smooth="yes"/>
      <point x="455" y="0" type="line"/>
      <point x="451" y="-17"/>
      <point x="448" y="-33"/>
      <point x="448" y="-46" type="curve" smooth="yes"/>
      <point x="448" y="-109"/>
      <point x="485" y="-140"/>
    </contour>
  </outline>
</glyph>
<glyph name="da" format="2">
  <advance width="1063"/>
  <unicode hex="A9A2"/>
  <note>
da
</note>
  <outline>
    <contour>
      <point x="354" y="0" type="curve" smooth="yes"/>
      <point x="397" y="0"/>
      <point x="440" y="19"/>
      <point x="486" y="56" type="curve" smooth="yes"/>
      <point x="568" y="121" type="line"/>
      <point x="568" y="49"/>
      <point x="611" y="0"/>
      <point x="689" y="0" type="curve" smooth="yes"/>
      <point x="761" y="0"/>
      <point x="806" y="39"/>
      <point x="806" y="118" type="curve" smooth="yes"/>
      <point x="806" y="188"/>
      <point x="765" y="236"/>
      <point x="689" y="236" type="curve" smooth="yes"/>
      <point x="678" y="236"/>
      <point x="667" y="235"/>
      <point x="655" y="233" type="curve"/>
      <point x="655" y="328" type="line" smooth="yes"/>
      <point x="655" y="423"/>
      <point x="701" y="470"/>
      <point x="792" y="470" type="curve" smooth="yes"/>
      <point x="882" y="470"/>
      <point x="927" y="424"/>
      <point x="927" y="331" type="curve" smooth="yes"/>
      <point x="927" y="0" type="line"/>
      <point x="1014" y="0" type="line"/>
      <point x="1014" y="330" type="line" smooth="yes"/>
      <point x="1014" y="474"/>
      <point x="939" y="546"/>
      <point x="792" y="546" type="curve" smooth="yes"/>
      <point x="644" y="546"/>
      <point x="568" y="472"/>
      <point x="568" y="325" type="curve" smooth="yes"/>
      <point x="568" y="220" type="line"/>
      <point x="426" y="111" type="line" smooth="yes"/>
      <point x="410" y="99"/>
      <point x="394" y="92"/>
      <point x="377" y="92" type="curve" smooth="yes"/>
      <point x="360" y="92"/>
      <point x="352" y="106"/>
      <point x="352" y="132" type="curve" smooth="yes"/>
      <point x="352" y="305" type="line" smooth="yes"/>
      <point x="352" y="415"/>
      <point x="399" y="473"/>
      <point x="493" y="479" type="curve"/>
      <point x="493" y="546" type="line"/>
      <point x="238" y="546" type="line" smooth="yes"/>
      <point x="132" y="546"/>
      <point x="78" y="493"/>
      <point x="78" y="388" type="curve" smooth="yes"/>
      <point x="78" y="150" type="line" smooth="yes"/>
      <point x="78" y="57"/>
      <point x="132" y="10"/>
      <point x="222" y="0" type="curve"/>
      <point x="240" y="68" type="line"/>
      <point x="190" y="76"/>
      <point x="165" y="104"/>
      <point x="165" y="154" type="curve" smooth="yes"/>
      <point x="165" y="391" type="line" smooth="yes"/>
      <point x="165" y="444"/>
      <point x="190" y="470"/>
      <point x="238" y="470" type="curve" smooth="yes"/>
      <point x="347" y="470" type="line"/>
      <point x="292" y="454"/>
      <point x="265" y="404"/>
      <point x="265" y="321" type="curve" smooth="yes"/>
      <point x="265" y="124" type="line" smooth="yes"/>
      <point x="265" y="43"/>
      <point x="294" y="0"/>
    </contour>
    <contour>
      <point x="693" y="66" type="curve" smooth="yes"/>
      <point x="668" y="66"/>
      <point x="655" y="83"/>
      <point x="655" y="116" type="curve" smooth="yes"/>
      <point x="655" y="162" type="line"/>
      <point x="666" y="165"/>
      <point x="675" y="167"/>
      <point x="684" y="167" type="curve" smooth="yes"/>
      <point x="715" y="167"/>
      <point x="730" y="150"/>
      <point x="730" y="117" type="curve" smooth="yes"/>
      <point x="730" y="85"/>
      <point x="721" y="66"/>
    </contour>
  </outline>
</glyph>
<glyph name="dha" format="2">
  <advance width="1027"/>
  <unicode hex="A9A3"/>
  <note>
ddha
</note>
  <outline>
    <contour>
      <point x="222" y="0" type="curve"/>
      <point x="240" y="68" type="line"/>
      <point x="190" y="76"/>
      <point x="165" y="104"/>
      <point x="165" y="154" type="curve" smooth="yes"/>
      <point x="165" y="391" type="line" smooth="yes"/>
      <point x="165" y="444"/>
      <point x="190" y="470"/>
      <point x="238" y="470" type="curve" smooth="yes"/>
      <point x="286" y="470"/>
      <point x="310" y="445"/>
      <point x="310" y="394" type="curve" smooth="yes"/>
      <point x="310" y="156" type="line" smooth="yes"/>
      <point x="310" y="52"/>
      <point x="360" y="0"/>
      <point x="452" y="0" type="curve" smooth="yes"/>
      <point x="497" y="0"/>
      <point x="530" y="21"/>
      <point x="550" y="63" type="curve"/>
      <point x="570" y="21"/>
      <point x="604" y="0"/>
      <point x="649" y="0" type="curve" smooth="yes"/>
      <point x="741" y="0"/>
      <point x="791" y="52"/>
      <point x="791" y="156" type="curve" smooth="yes"/>
      <point x="791" y="321" type="line" smooth="yes"/>
      <point x="791" y="404"/>
      <point x="764" y="454"/>
      <point x="708" y="470" type="curve"/>
      <point x="818" y="470" type="line" smooth="yes"/>
      <point x="866" y="470"/>
      <point x="891" y="444"/>
      <point x="891" y="391" type="curve" smooth="yes"/>
      <point x="891" y="0" type="line"/>
      <point x="978" y="0" type="line"/>
      <point x="978" y="387" type="line" smooth="yes"/>
      <point x="978" y="492"/>
      <point x="924" y="546"/>
      <point x="818" y="546" type="curve" smooth="yes"/>
      <point x="563" y="546" type="line"/>
      <point x="563" y="479" type="line"/>
      <point x="657" y="473"/>
      <point x="704" y="415"/>
      <point x="704" y="305" type="curve" smooth="yes"/>
      <point x="704" y="133" type="line" smooth="yes"/>
      <point x="704" y="93"/>
      <point x="685" y="72"/>
      <point x="649" y="72" type="curve" smooth="yes"/>
      <point x="613" y="72"/>
      <point x="594" y="93"/>
      <point x="594" y="133" type="curve" smooth="yes"/>
      <point x="594" y="213" type="line"/>
      <point x="507" y="213" type="line"/>
      <point x="507" y="134" type="line" smooth="yes"/>
      <point x="507" y="94"/>
      <point x="487" y="72"/>
      <point x="452" y="72" type="curve" smooth="yes"/>
      <point x="416" y="72"/>
      <point x="396" y="94"/>
      <point x="396" y="134" type="curve" smooth="yes"/>
      <point x="396" y="393" type="line" smooth="yes"/>
      <point x="396" y="495"/>
      <point x="344" y="546"/>
      <point x="238" y="546" type="curve" smooth="yes"/>
      <point x="132" y="546"/>
      <point x="78" y="493"/>
      <point x="78" y="388" type="curve" smooth="yes"/>
      <point x="78" y="150" type="line" smooth="yes"/>
      <point x="78" y="57"/>
      <point x="132" y="10"/>
    </contour>
  </outline>
</glyph>
<glyph name="na" format="2">
  <advance width="989"/>
  <unicode hex="A9A4"/>
  <note>
na
</note>
  <outline>
    <contour>
      <point x="222" y="0" type="curve"/>
      <point x="240" y="68" type="line"/>
      <point x="190" y="76"/>
      <point x="165" y="104"/>
      <point x="165" y="154" type="curve" smooth="yes"/>
      <point x="165" y="391" type="line" smooth="yes"/>
      <point x="165" y="444"/>
      <point x="190" y="470"/>
      <point x="238" y="470" type="curve" smooth="yes"/>
      <point x="286" y="470"/>
      <point x="310" y="445"/>
      <point x="310" y="394" type="curve" smooth="yes"/>
      <point x="310" y="0" type="line"/>
      <point x="396" y="0" type="line"/>
      <point x="396" y="182" type="line"/>
      <point x="495" y="182" type="line"/>
      <point x="495" y="115" type="line" smooth="yes"/>
      <point x="495" y="38"/>
      <point x="538" y="0"/>
      <point x="616" y="0" type="curve" smooth="yes"/>
      <point x="688" y="0"/>
      <point x="733" y="39"/>
      <point x="733" y="118" type="curve" smooth="yes"/>
      <point x="733" y="201"/>
      <point x="673" y="255"/>
      <point x="582" y="257" type="curve"/>
      <point x="582" y="328" type="line" smooth="yes"/>
      <point x="582" y="423"/>
      <point x="628" y="470"/>
      <point x="718" y="470" type="curve" smooth="yes"/>
      <point x="809" y="470"/>
      <point x="854" y="424"/>
      <point x="854" y="331" type="curve" smooth="yes"/>
      <point x="854" y="0" type="line"/>
      <point x="940" y="0" type="line"/>
      <point x="940" y="330" type="line" smooth="yes"/>
      <point x="940" y="474"/>
      <point x="866" y="546"/>
      <point x="718" y="546" type="curve" smooth="yes"/>
      <point x="570" y="546"/>
      <point x="495" y="468"/>
      <point x="495" y="321" type="curve" smooth="yes"/>
      <point x="495" y="257" type="line"/>
      <point x="396" y="257" type="line"/>
      <point x="396" y="393" type="line" smooth="yes"/>
      <point x="396" y="495"/>
      <point x="344" y="546"/>
      <point x="238" y="546" type="curve" smooth="yes"/>
      <point x="132" y="546"/>
      <point x="78" y="493"/>
      <point x="78" y="388" type="curve" smooth="yes"/>
      <point x="78" y="150" type="line" smooth="yes"/>
      <point x="78" y="57"/>
      <point x="132" y="10"/>
    </contour>
    <contour>
      <point x="620" y="71" type="curve" smooth="yes"/>
      <point x="595" y="71"/>
      <point x="582" y="86"/>
      <point x="582" y="116" type="curve" smooth="yes"/>
      <point x="582" y="182" type="line"/>
      <point x="627" y="182"/>
      <point x="657" y="160"/>
      <point x="657" y="117" type="curve" smooth="yes"/>
      <point x="657" y="89"/>
      <point x="649" y="71"/>
    </contour>
  </outline>
</glyph>
<glyph name="pa" format="2">
  <advance width="963"/>
  <unicode hex="A9A5"/>
  <note>
pa
</note>
  <outline>
    <contour>
      <point x="222" y="0" type="curve"/>
      <point x="240" y="68" type="line"/>
      <point x="190" y="76"/>
      <point x="165" y="104"/>
      <point x="165" y="154" type="curve" smooth="yes"/>
      <point x="165" y="391" type="line" smooth="yes"/>
      <point x="165" y="444"/>
      <point x="190" y="470"/>
      <point x="238" y="470" type="curve" smooth="yes"/>
      <point x="286" y="470"/>
      <point x="310" y="445"/>
      <point x="310" y="394" type="curve" smooth="yes"/>
      <point x="310" y="133" type="line" smooth="yes"/>
      <point x="310" y="45"/>
      <point x="356" y="0"/>
      <point x="450" y="0" type="curve" smooth="yes"/>
      <point x="542" y="0" type="line" smooth="yes"/>
      <point x="636" y="0"/>
      <point x="683" y="45"/>
      <point x="683" y="133" type="curve" smooth="yes"/>
      <point x="683" y="391" type="line" smooth="yes"/>
      <point x="683" y="444"/>
      <point x="708" y="470"/>
      <point x="755" y="470" type="curve" smooth="yes"/>
      <point x="803" y="470"/>
      <point x="827" y="445"/>
      <point x="827" y="394" type="curve" smooth="yes"/>
      <point x="827" y="0" type="line"/>
      <point x="914" y="0" type="line"/>
      <point x="914" y="393" type="line" smooth="yes"/>
      <point x="914" y="495"/>
      <point x="861" y="546"/>
      <point x="755" y="546" type="curve" smooth="yes"/>
      <point x="649" y="546"/>
      <point x="596" y="493"/>
      <point x="596" y="388" type="curve" smooth="yes"/>
      <point x="596" y="131" type="line" smooth="yes"/>
      <point x="596" y="89"/>
      <point x="576" y="68"/>
      <point x="537" y="68" type="curve" smooth="yes"/>
      <point x="455" y="68" type="line" smooth="yes"/>
      <point x="416" y="68"/>
      <point x="396" y="89"/>
      <point x="396" y="131" type="curve" smooth="yes"/>
      <point x="396" y="393" type="line" smooth="yes"/>
      <point x="396" y="495"/>
      <point x="344" y="546"/>
      <point x="238" y="546" type="curve" smooth="yes"/>
      <point x="132" y="546"/>
      <point x="78" y="493"/>
      <point x="78" y="388" type="curve" smooth="yes"/>
      <point x="78" y="150" type="line" smooth="yes"/>
      <point x="78" y="57"/>
      <point x="132" y="10"/>
    </contour>
  </outline>
</glyph>
<glyph name="ba" format="2">
  <advance width="1207"/>
  <unicode hex="A9A7"/>
  <note>
ba
</note>
  <outline>
    <contour>
      <point x="840" y="0" type="line"/>
      <point x="927" y="0" type="line"/>
      <point x="927" y="391" type="line" smooth="yes"/>
      <point x="927" y="444"/>
      <point x="952" y="470"/>
      <point x="1000" y="470" type="curve" smooth="yes"/>
      <point x="1047" y="470"/>
      <point x="1071" y="445"/>
      <point x="1071" y="394" type="curve" smooth="yes"/>
      <point x="1071" y="0" type="line"/>
      <point x="1158" y="0" type="line"/>
      <point x="1158" y="393" type="line" smooth="yes"/>
      <point x="1158" y="495"/>
      <point x="1107" y="546"/>
      <point x="1004" y="546" type="curve" smooth="yes"/>
      <point x="952" y="546"/>
      <point x="912" y="525"/>
      <point x="886" y="483" type="curve"/>
      <point x="867" y="525"/>
      <point x="832" y="546"/>
      <point x="783" y="546" type="curve" smooth="yes"/>
      <point x="736" y="546"/>
      <point x="704" y="526"/>
      <point x="686" y="485" type="curve"/>
      <point x="663" y="527"/>
      <point x="626" y="548"/>
      <point x="579" y="548" type="curve" smooth="yes"/>
      <point x="499" y="548"/>
      <point x="455" y="503"/>
      <point x="455" y="434" type="curve" smooth="yes"/>
      <point x="455" y="361"/>
      <point x="495" y="318"/>
      <point x="574" y="301" type="curve"/>
      <point x="603" y="360" type="line"/>
      <point x="558" y="373"/>
      <point x="535" y="395"/>
      <point x="535" y="428" type="curve" smooth="yes"/>
      <point x="535" y="458"/>
      <point x="552" y="473"/>
      <point x="579" y="473" type="curve" smooth="yes"/>
      <point x="618" y="473"/>
      <point x="641" y="441"/>
      <point x="647" y="384" type="curve"/>
      <point x="715" y="384" type="line"/>
      <point x="722" y="441"/>
      <point x="745" y="470"/>
      <point x="783" y="470" type="curve" smooth="yes"/>
      <point x="821" y="470"/>
      <point x="840" y="445"/>
      <point x="840" y="394" type="curve" smooth="yes"/>
    </contour>
    <contour>
      <point x="450" y="0" type="curve" smooth="yes"/>
      <point x="676" y="0" type="line"/>
      <point x="693" y="30" type="line"/>
      <point x="563" y="219" type="line"/>
      <point x="469" y="219" type="line"/>
      <point x="575" y="68" type="line"/>
      <point x="455" y="68" type="line" smooth="yes"/>
      <point x="416" y="68"/>
      <point x="396" y="89"/>
      <point x="396" y="131" type="curve" smooth="yes"/>
      <point x="396" y="393" type="line" smooth="yes"/>
      <point x="396" y="495"/>
      <point x="344" y="546"/>
      <point x="238" y="546" type="curve" smooth="yes"/>
      <point x="132" y="546"/>
      <point x="78" y="493"/>
      <point x="78" y="388" type="curve" smooth="yes"/>
      <point x="78" y="149" type="line" smooth="yes"/>
      <point x="78" y="53"/>
      <point x="137" y="9"/>
      <point x="222" y="0" type="curve"/>
      <point x="240" y="68" type="line"/>
      <point x="190" y="76"/>
      <point x="165" y="104"/>
      <point x="165" y="154" type="curve" smooth="yes"/>
      <point x="165" y="391" type="line" smooth="yes"/>
      <point x="165" y="444"/>
      <point x="190" y="470"/>
      <point x="238" y="470" type="curve" smooth="yes"/>
      <point x="286" y="470"/>
      <point x="310" y="445"/>
      <point x="310" y="394" type="curve" smooth="yes"/>
      <point x="310" y="133" type="line" smooth="yes"/>
      <point x="310" y="45"/>
      <point x="357" y="0"/>
    </contour>
  </outline>
</glyph>
<glyph name="bha" format="2">
  <advance width="1019"/>
  <unicode hex="A9A8"/>
  <note>
bha
</note>
  <outline>
    <contour>
      <point x="462" y="-1" type="curve" smooth="yes"/>
      <point x="525" y="-1"/>
      <point x="557" y="35"/>
      <point x="557" y="104" type="curve" smooth="yes"/>
      <point x="557" y="415" type="line" smooth="yes"/>
      <point x="557" y="457"/>
      <point x="577" y="478"/>
      <point x="616" y="478" type="curve" smooth="yes"/>
      <point x="732" y="478" type="line"/>
      <point x="668" y="390" type="line"/>
      <point x="763" y="390" type="line"/>
      <point x="850" y="516" type="line"/>
      <point x="833" y="546" type="line"/>
      <point x="611" y="546" type="line" smooth="yes"/>
      <point x="517" y="546"/>
      <point x="470" y="500"/>
      <point x="470" y="413" type="curve" smooth="yes"/>
      <point x="470" y="111" type="line" smooth="yes"/>
      <point x="470" y="92"/>
      <point x="463" y="83"/>
      <point x="450" y="83" type="curve" smooth="yes"/>
      <point x="438" y="83"/>
      <point x="427" y="89"/>
      <point x="306" y="139" type="curve"/>
      <point x="377" y="207"/>
      <point x="414" y="292"/>
      <point x="414" y="393" type="curve" smooth="yes"/>
      <point x="414" y="494"/>
      <point x="367" y="546"/>
      <point x="273" y="546" type="curve" smooth="yes"/>
      <point x="42" y="546" type="line"/>
      <point x="25" y="516" type="line"/>
      <point x="112" y="390" type="line"/>
      <point x="207" y="390" type="line"/>
      <point x="143" y="478" type="line"/>
      <point x="268" y="478" type="line" smooth="yes"/>
      <point x="305" y="478"/>
      <point x="323" y="441"/>
      <point x="323" y="367" type="curve" smooth="yes"/>
      <point x="323" y="359" type="line" smooth="yes"/>
      <point x="323" y="280"/>
      <point x="277" y="203"/>
      <point x="192" y="128" type="curve"/>
      <point x="192" y="100" type="line"/>
      <point x="412" y="10" type="line" smooth="yes"/>
      <point x="430" y="3"/>
      <point x="447" y="-1"/>
    </contour>
    <contour>
      <point x="707" y="0" type="line"/>
      <point x="793" y="0" type="line"/>
      <point x="793" y="117" type="line" smooth="yes"/>
      <point x="793" y="224"/>
      <point x="737" y="278"/>
      <point x="630" y="278" type="curve" smooth="yes"/>
      <point x="324" y="278" type="line"/>
      <point x="313" y="205" type="line"/>
      <point x="622" y="205" type="line" smooth="yes"/>
      <point x="678" y="205"/>
      <point x="707" y="176"/>
      <point x="707" y="117" type="curve" smooth="yes"/>
    </contour>
  </outline>
</glyph>
<glyph name="ma" format="2">
  <advance width="970"/>
  <unicode hex="A9A9"/>
  <note>
ma
</note>
  <outline>
    <contour>
      <point x="222" y="0" type="curve"/>
      <point x="240" y="68" type="line"/>
      <point x="190" y="76"/>
      <point x="165" y="104"/>
      <point x="165" y="154" type="curve" smooth="yes"/>
      <point x="165" y="391" type="line" smooth="yes"/>
      <point x="165" y="444"/>
      <point x="190" y="470"/>
      <point x="238" y="470" type="curve" smooth="yes"/>
      <point x="323" y="470" type="line"/>
      <point x="297" y="451"/>
      <point x="285" y="429"/>
      <point x="285" y="404" type="curve" smooth="yes"/>
      <point x="285" y="343"/>
      <point x="319" y="302"/>
      <point x="385" y="282" type="curve"/>
      <point x="385" y="277" type="line"/>
      <point x="313" y="257"/>
      <point x="266" y="222"/>
      <point x="266" y="146" type="curve" smooth="yes"/>
      <point x="266" y="48"/>
      <point x="331" y="0"/>
      <point x="428" y="0" type="curve" smooth="yes"/>
      <point x="549" y="0" type="line" smooth="yes"/>
      <point x="643" y="0"/>
      <point x="689" y="45"/>
      <point x="689" y="133" type="curve" smooth="yes"/>
      <point x="689" y="391" type="line" smooth="yes"/>
      <point x="689" y="444"/>
      <point x="714" y="470"/>
      <point x="762" y="470" type="curve" smooth="yes"/>
      <point x="810" y="470"/>
      <point x="834" y="445"/>
      <point x="834" y="394" type="curve" smooth="yes"/>
      <point x="834" y="0" type="line"/>
      <point x="921" y="0" type="line"/>
      <point x="921" y="393" type="line" smooth="yes"/>
      <point x="921" y="495"/>
      <point x="868" y="546"/>
      <point x="762" y="546" type="curve" smooth="yes"/>
      <point x="656" y="546"/>
      <point x="603" y="493"/>
      <point x="603" y="388" type="curve" smooth="yes"/>
      <point x="603" y="131" type="line" smooth="yes"/>
      <point x="603" y="89"/>
      <point x="583" y="68"/>
      <point x="544" y="68" type="curve" smooth="yes"/>
      <point x="438" y="68" type="line" smooth="yes"/>
      <point x="381" y="68"/>
      <point x="354" y="94"/>
      <point x="354" y="146" type="curve" smooth="yes"/>
      <point x="354" y="211"/>
      <point x="396" y="243"/>
      <point x="480" y="243" type="curve" smooth="yes"/>
      <point x="529" y="243" type="line"/>
      <point x="529" y="315" type="line"/>
      <point x="497" y="315" type="line" smooth="yes"/>
      <point x="412" y="315"/>
      <point x="369" y="342"/>
      <point x="369" y="397" type="curve" smooth="yes"/>
      <point x="369" y="444"/>
      <point x="395" y="470"/>
      <point x="447" y="470" type="curve" smooth="yes"/>
      <point x="532" y="470" type="line"/>
      <point x="532" y="546" type="line"/>
      <point x="238" y="546" type="line" smooth="yes"/>
      <point x="132" y="546"/>
      <point x="78" y="493"/>
      <point x="78" y="388" type="curve" smooth="yes"/>
      <point x="78" y="150" type="line" smooth="yes"/>
      <point x="78" y="57"/>
      <point x="132" y="10"/>
    </contour>
  </outline>
</glyph>
<glyph name="ra" format="2">
  <advance width="915"/>
  <unicode hex="A9AB"/>
  <note>
ra
</note>
  <outline>
    <contour>
      <point x="461" y="-1" type="curve" smooth="yes"/>
      <point x="524" y="-1"/>
      <point x="556" y="35"/>
      <point x="556" y="104" type="curve" smooth="yes"/>
      <point x="556" y="362" type="line" smooth="yes"/>
      <point x="556" y="434"/>
      <point x="594" y="470"/>
      <point x="668" y="470" type="curve" smooth="yes"/>
      <point x="742" y="470"/>
      <point x="779" y="435"/>
      <point x="779" y="365" type="curve" smooth="yes"/>
      <point x="779" y="0" type="line"/>
      <point x="866" y="0" type="line"/>
      <point x="866" y="364" type="line" smooth="yes"/>
      <point x="866" y="485"/>
      <point x="800" y="546"/>
      <point x="668" y="546" type="curve" smooth="yes"/>
      <point x="536" y="546"/>
      <point x="469" y="482"/>
      <point x="469" y="358" type="curve" smooth="yes"/>
      <point x="469" y="111" type="line" smooth="yes"/>
      <point x="469" y="92"/>
      <point x="462" y="83"/>
      <point x="449" y="83" type="curve" smooth="yes"/>
      <point x="446" y="83"/>
      <point x="440" y="83"/>
      <point x="436" y="85" type="curve" smooth="yes"/>
      <point x="305" y="139" type="line"/>
      <point x="376" y="207"/>
      <point x="413" y="292"/>
      <point x="413" y="393" type="curve" smooth="yes"/>
      <point x="413" y="494"/>
      <point x="366" y="546"/>
      <point x="272" y="546" type="curve" smooth="yes"/>
      <point x="41" y="546" type="line"/>
      <point x="24" y="516" type="line"/>
      <point x="111" y="390" type="line"/>
      <point x="206" y="390" type="line"/>
      <point x="142" y="478" type="line"/>
      <point x="267" y="478" type="line" smooth="yes"/>
      <point x="304" y="478"/>
      <point x="322" y="441"/>
      <point x="322" y="367" type="curve" smooth="yes"/>
      <point x="322" y="359" type="line" smooth="yes"/>
      <point x="322" y="280"/>
      <point x="276" y="203"/>
      <point x="191" y="128" type="curve"/>
      <point x="191" y="100" type="line"/>
      <point x="411" y="10" type="line" smooth="yes"/>
      <point x="429" y="3"/>
      <point x="446" y="-1"/>
    </contour>
  </outline>
</glyph>
<glyph name="raagung" format="2">
  <advance width="1293"/>
  <unicode hex="A9AC"/>
  <note>
raagung
</note>
  <outline>
    <contour>
      <point x="280" y="0" type="line"/>
      <point x="367" y="0" type="line"/>
      <point x="367" y="391" type="line" smooth="yes"/>
      <point x="367" y="444"/>
      <point x="392" y="470"/>
      <point x="440" y="470" type="curve" smooth="yes"/>
      <point x="488" y="470"/>
      <point x="512" y="445"/>
      <point x="512" y="394" type="curve" smooth="yes"/>
      <point x="512" y="0" type="line"/>
      <point x="599" y="0" type="line"/>
      <point x="599" y="391" type="line" smooth="yes"/>
      <point x="599" y="444"/>
      <point x="623" y="470"/>
      <point x="670" y="470" type="curve" smooth="yes"/>
      <point x="705" y="470"/>
      <point x="743" y="442"/>
      <point x="743" y="398" type="curve" smooth="yes"/>
      <point x="743" y="0" type="line"/>
      <point x="830" y="0" type="line"/>
      <point x="830" y="391" type="line" smooth="yes"/>
      <point x="830" y="444"/>
      <point x="855" y="470"/>
      <point x="903" y="470" type="curve" smooth="yes"/>
      <point x="951" y="470"/>
      <point x="975" y="445"/>
      <point x="975" y="394" type="curve" smooth="yes"/>
      <point x="975" y="138" type="line" smooth="yes"/>
      <point x="975" y="46"/>
      <point x="1020" y="0"/>
      <point x="1110" y="0" type="curve" smooth="yes"/>
      <point x="1199" y="0"/>
      <point x="1244" y="44"/>
      <point x="1244" y="133" type="curve" smooth="yes"/>
      <point x="1244" y="517" type="line" smooth="yes"/>
      <point x="1244" y="684"/>
      <point x="1203" y="790"/>
      <point x="1097" y="790" type="curve" smooth="yes"/>
      <point x="1032" y="790"/>
      <point x="987" y="752"/>
      <point x="987" y="680" type="curve" smooth="yes"/>
      <point x="987" y="592"/>
      <point x="1054" y="541"/>
      <point x="1157" y="503" type="curve"/>
      <point x="1157" y="132" type="line" smooth="yes"/>
      <point x="1157" y="95"/>
      <point x="1142" y="76"/>
      <point x="1110" y="76" type="curve" smooth="yes"/>
      <point x="1078" y="76"/>
      <point x="1062" y="96"/>
      <point x="1062" y="135" type="curve" smooth="yes"/>
      <point x="1062" y="393" type="line" smooth="yes"/>
      <point x="1062" y="495"/>
      <point x="1009" y="546"/>
      <point x="903" y="546" type="curve" smooth="yes"/>
      <point x="854" y="546"/>
      <point x="815" y="525"/>
      <point x="790" y="483" type="curve"/>
      <point x="766" y="521"/>
      <point x="717" y="546"/>
      <point x="671" y="546" type="curve" smooth="yes"/>
      <point x="622" y="546"/>
      <point x="584" y="525"/>
      <point x="558" y="483" type="curve"/>
      <point x="532" y="525"/>
      <point x="493" y="546"/>
      <point x="440" y="546" type="curve" smooth="yes"/>
      <point x="390" y="546"/>
      <point x="352" y="524"/>
      <point x="325" y="481" type="curve"/>
      <point x="298" y="524"/>
      <point x="260" y="546"/>
      <point x="208" y="546" type="curve" smooth="yes"/>
      <point x="103" y="546"/>
      <point x="49" y="493"/>
      <point x="49" y="388" type="curve" smooth="yes"/>
      <point x="49" y="302"/>
      <point x="102" y="242"/>
      <point x="196" y="234" type="curve"/>
      <point x="205" y="293" type="line"/>
      <point x="159" y="306"/>
      <point x="136" y="338"/>
      <point x="136" y="391" type="curve" smooth="yes"/>
      <point x="136" y="444"/>
      <point x="161" y="470"/>
      <point x="208" y="470" type="curve" smooth="yes"/>
      <point x="256" y="470"/>
      <point x="280" y="445"/>
      <point x="280" y="394" type="curve" smooth="yes"/>
    </contour>
    <contour>
      <point x="1160" y="577" type="line"/>
      <point x="1096" y="603"/>
      <point x="1063" y="636"/>
      <point x="1063" y="676" type="curve" smooth="yes"/>
      <point x="1063" y="701"/>
      <point x="1075" y="713"/>
      <point x="1098" y="713" type="curve" smooth="yes"/>
      <point x="1134" y="713"/>
      <point x="1154" y="668"/>
      <point x="1160" y="577" type="curve"/>
    </contour>
  </outline>
</glyph>
<glyph name="la" format="2">
  <advance width="1194"/>
  <unicode hex="A9AD"/>
  <note>
la
</note>
  <outline>
    <contour>
      <point x="222" y="0" type="curve"/>
      <point x="240" y="68" type="line"/>
      <point x="190" y="76"/>
      <point x="165" y="104"/>
      <point x="165" y="154" type="curve" smooth="yes"/>
      <point x="165" y="391" type="line" smooth="yes"/>
      <point x="165" y="444"/>
      <point x="190" y="470"/>
      <point x="238" y="470" type="curve" smooth="yes"/>
      <point x="278" y="470"/>
      <point x="310" y="441"/>
      <point x="310" y="395" type="curve" smooth="yes"/>
      <point x="310" y="0" type="line"/>
      <point x="396" y="0" type="line"/>
      <point x="396" y="391" type="line" smooth="yes"/>
      <point x="396" y="444"/>
      <point x="421" y="470"/>
      <point x="469" y="470" type="curve" smooth="yes"/>
      <point x="517" y="470"/>
      <point x="541" y="445"/>
      <point x="541" y="394" type="curve" smooth="yes"/>
      <point x="541" y="133" type="line" smooth="yes"/>
      <point x="541" y="45"/>
      <point x="588" y="0"/>
      <point x="682" y="0" type="curve" smooth="yes"/>
      <point x="773" y="0" type="line" smooth="yes"/>
      <point x="867" y="0"/>
      <point x="914" y="45"/>
      <point x="914" y="133" type="curve" smooth="yes"/>
      <point x="914" y="391" type="line" smooth="yes"/>
      <point x="914" y="444"/>
      <point x="939" y="470"/>
      <point x="987" y="470" type="curve" smooth="yes"/>
      <point x="1035" y="470"/>
      <point x="1059" y="445"/>
      <point x="1059" y="394" type="curve" smooth="yes"/>
      <point x="1059" y="0" type="line"/>
      <point x="1146" y="0" type="line"/>
      <point x="1146" y="393" type="line" smooth="yes"/>
      <point x="1146" y="495"/>
      <point x="1093" y="546"/>
      <point x="987" y="546" type="curve" smooth="yes"/>
      <point x="881" y="546"/>
      <point x="827" y="493"/>
      <point x="827" y="388" type="curve" smooth="yes"/>
      <point x="827" y="131" type="line" smooth="yes"/>
      <point x="827" y="89"/>
      <point x="808" y="68"/>
      <point x="769" y="68" type="curve" smooth="yes"/>
      <point x="687" y="68" type="line" smooth="yes"/>
      <point x="647" y="68"/>
      <point x="628" y="89"/>
      <point x="628" y="131" type="curve" smooth="yes"/>
      <point x="628" y="393" type="line" smooth="yes"/>
      <point x="628" y="495"/>
      <point x="575" y="546"/>
      <point x="469" y="546" type="curve" smooth="yes"/>
      <point x="420" y="546"/>
      <point x="382" y="525"/>
      <point x="356" y="483" type="curve"/>
      <point x="332" y="522"/>
      <point x="288" y="546"/>
      <point x="238" y="546" type="curve" smooth="yes"/>
      <point x="132" y="546"/>
      <point x="78" y="493"/>
      <point x="78" y="388" type="curve" smooth="yes"/>
      <point x="78" y="150" type="line" smooth="yes"/>
      <point x="78" y="57"/>
      <point x="132" y="10"/>
    </contour>
  </outline>
</glyph>
<glyph name="wa" format="2">
  <advance width="967"/>
  <unicode hex="A9AE"/>
  <note>
wa
</note>
  <outline>
    <contour>
      <point x="222" y="0" type="curve"/>
      <point x="240" y="68" type="line"/>
      <point x="190" y="76"/>
      <point x="165" y="104"/>
      <point x="165" y="154" type="curve" smooth="yes"/>
      <point x="165" y="391" type="line" smooth="yes"/>
      <point x="165" y="444"/>
      <point x="190" y="470"/>
      <point x="238" y="470" type="curve" smooth="yes"/>
      <point x="286" y="470"/>
      <point x="310" y="445"/>
      <point x="310" y="394" type="curve" smooth="yes"/>
      <point x="310" y="133" type="line" smooth="yes"/>
      <point x="310" y="45"/>
      <point x="356" y="0"/>
      <point x="450" y="0" type="curve" smooth="yes"/>
      <point x="591" y="0" type="line" smooth="yes"/>
      <point x="685" y="0"/>
      <point x="731" y="45"/>
      <point x="731" y="133" type="curve" smooth="yes"/>
      <point x="731" y="321" type="line" smooth="yes"/>
      <point x="731" y="404"/>
      <point x="704" y="454"/>
      <point x="649" y="470" type="curve"/>
      <point x="758" y="470" type="line" smooth="yes"/>
      <point x="807" y="470"/>
      <point x="831" y="444"/>
      <point x="831" y="391" type="curve" smooth="yes"/>
      <point x="831" y="0" type="line"/>
      <point x="918" y="0" type="line"/>
      <point x="918" y="388" type="line" smooth="yes"/>
      <point x="918" y="493"/>
      <point x="864" y="546"/>
      <point x="758" y="546" type="curve" smooth="yes"/>
      <point x="503" y="546" type="line"/>
      <point x="503" y="479" type="line"/>
      <point x="597" y="473"/>
      <point x="645" y="415"/>
      <point x="645" y="305" type="curve" smooth="yes"/>
      <point x="645" y="131" type="line" smooth="yes"/>
      <point x="645" y="89"/>
      <point x="625" y="68"/>
      <point x="586" y="68" type="curve" smooth="yes"/>
      <point x="455" y="68" type="line" smooth="yes"/>
      <point x="416" y="68"/>
      <point x="396" y="89"/>
      <point x="396" y="131" type="curve" smooth="yes"/>
      <point x="396" y="393" type="line" smooth="yes"/>
      <point x="396" y="495"/>
      <point x="344" y="546"/>
      <point x="238" y="546" type="curve" smooth="yes"/>
      <point x="132" y="546"/>
      <point x="78" y="493"/>
      <point x="78" y="388" type="curve" smooth="yes"/>
      <point x="78" y="150" type="line" smooth="yes"/>
      <point x="78" y="57"/>
      <point x="132" y="10"/>
    </contour>
  </outline>
</glyph>
<glyph name="sha" format="2">
  <advance width="938"/>
  <unicode hex="A9AF"/>
  <note>
sha
</note>
  <outline>
    <contour>
      <point x="280" y="0" type="line"/>
      <point x="367" y="0" type="line"/>
      <point x="367" y="181" type="line"/>
      <point x="541" y="181" type="line"/>
      <point x="541" y="0" type="line"/>
      <point x="628" y="0" type="line"/>
      <point x="628" y="181" type="line"/>
      <point x="707" y="181" type="line" smooth="yes"/>
      <point x="770" y="181"/>
      <point x="802" y="158"/>
      <point x="802" y="112" type="curve" smooth="yes"/>
      <point x="802" y="0" type="line"/>
      <point x="889" y="0" type="line"/>
      <point x="889" y="374" type="line" smooth="yes"/>
      <point x="889" y="488"/>
      <point x="831" y="546"/>
      <point x="715" y="546" type="curve" smooth="yes"/>
      <point x="656" y="546"/>
      <point x="613" y="522"/>
      <point x="587" y="474" type="curve"/>
      <point x="562" y="522"/>
      <point x="518" y="546"/>
      <point x="455" y="546" type="curve" smooth="yes"/>
      <point x="395" y="546"/>
      <point x="352" y="521"/>
      <point x="325" y="471" type="curve"/>
      <point x="298" y="521"/>
      <point x="260" y="546"/>
      <point x="208" y="546" type="curve" smooth="yes"/>
      <point x="103" y="546"/>
      <point x="49" y="493"/>
      <point x="49" y="388" type="curve" smooth="yes"/>
      <point x="49" y="302"/>
      <point x="102" y="242"/>
      <point x="196" y="234" type="curve"/>
      <point x="205" y="293" type="line"/>
      <point x="159" y="306"/>
      <point x="136" y="338"/>
      <point x="136" y="391" type="curve" smooth="yes"/>
      <point x="136" y="444"/>
      <point x="161" y="470"/>
      <point x="208" y="470" type="curve" smooth="yes"/>
      <point x="256" y="470"/>
      <point x="280" y="438"/>
      <point x="280" y="375" type="curve" smooth="yes"/>
    </contour>
    <contour>
      <point x="367" y="253" type="line"/>
      <point x="367" y="372" type="line" smooth="yes"/>
      <point x="367" y="438"/>
      <point x="396" y="470"/>
      <point x="455" y="470" type="curve" smooth="yes"/>
      <point x="512" y="470"/>
      <point x="541" y="438"/>
      <point x="541" y="375" type="curve" smooth="yes"/>
      <point x="541" y="253" type="line"/>
    </contour>
    <contour>
      <point x="802" y="214" type="line"/>
      <point x="783" y="240"/>
      <point x="754" y="253"/>
      <point x="716" y="253" type="curve" smooth="yes"/>
      <point x="628" y="253" type="line"/>
      <point x="628" y="372" type="line" smooth="yes"/>
      <point x="628" y="438"/>
      <point x="657" y="470"/>
      <point x="715" y="470" type="curve" smooth="yes"/>
      <point x="773" y="470"/>
      <point x="802" y="438"/>
      <point x="802" y="375" type="curve" smooth="yes"/>
    </contour>
  </outline>
</glyph>
<glyph name="ssa" format="2">
  <advance width="1012"/>
  <unicode hex="A9B0"/>
  <note>
ssa
</note>
  <outline>
    <contour>
      <point x="222" y="0" type="curve"/>
      <point x="240" y="68" type="line"/>
      <point x="190" y="76"/>
      <point x="165" y="104"/>
      <point x="165" y="154" type="curve" smooth="yes"/>
      <point x="165" y="391" type="line" smooth="yes"/>
      <point x="165" y="444"/>
      <point x="190" y="470"/>
      <point x="238" y="470" type="curve" smooth="yes"/>
      <point x="286" y="470"/>
      <point x="310" y="445"/>
      <point x="310" y="394" type="curve" smooth="yes"/>
      <point x="310" y="133" type="line" smooth="yes"/>
      <point x="310" y="45"/>
      <point x="356" y="0"/>
      <point x="450" y="0" type="curve" smooth="yes"/>
      <point x="591" y="0" type="line" smooth="yes"/>
      <point x="685" y="0"/>
      <point x="731" y="45"/>
      <point x="731" y="133" type="curve" smooth="yes"/>
      <point x="731" y="181" type="line"/>
      <point x="781" y="181" type="line" smooth="yes"/>
      <point x="844" y="181"/>
      <point x="876" y="158"/>
      <point x="876" y="112" type="curve" smooth="yes"/>
      <point x="876" y="0" type="line"/>
      <point x="963" y="0" type="line"/>
      <point x="963" y="393" type="line" smooth="yes"/>
      <point x="963" y="495"/>
      <point x="910" y="546"/>
      <point x="804" y="546" type="curve" smooth="yes"/>
      <point x="698" y="546"/>
      <point x="645" y="493"/>
      <point x="645" y="388" type="curve" smooth="yes"/>
      <point x="645" y="253" type="line"/>
      <point x="529" y="253" type="line"/>
      <point x="563" y="351" type="line"/>
      <point x="481" y="351" type="line"/>
      <point x="433" y="213" type="line"/>
      <point x="447" y="181" type="line"/>
      <point x="645" y="181" type="line"/>
      <point x="645" y="131" type="line" smooth="yes"/>
      <point x="645" y="89"/>
      <point x="625" y="68"/>
      <point x="586" y="68" type="curve" smooth="yes"/>
      <point x="455" y="68" type="line" smooth="yes"/>
      <point x="416" y="68"/>
      <point x="396" y="89"/>
      <point x="396" y="131" type="curve" smooth="yes"/>
      <point x="396" y="393" type="line" smooth="yes"/>
      <point x="396" y="495"/>
      <point x="344" y="546"/>
      <point x="238" y="546" type="curve" smooth="yes"/>
      <point x="132" y="546"/>
      <point x="78" y="493"/>
      <point x="78" y="388" type="curve" smooth="yes"/>
      <point x="78" y="150" type="line" smooth="yes"/>
      <point x="78" y="57"/>
      <point x="132" y="10"/>
    </contour>
    <contour>
      <point x="876" y="214" type="line"/>
      <point x="857" y="240"/>
      <point x="828" y="253"/>
      <point x="791" y="253" type="curve" smooth="yes"/>
      <point x="731" y="253" type="line"/>
      <point x="731" y="391" type="line" smooth="yes"/>
      <point x="731" y="444"/>
      <point x="756" y="470"/>
      <point x="804" y="470" type="curve" smooth="yes"/>
      <point x="852" y="470"/>
      <point x="876" y="445"/>
      <point x="876" y="394" type="curve" smooth="yes"/>
    </contour>
  </outline>
</glyph>
<glyph name="sa" format="2">
  <advance width="1088"/>
  <unicode hex="A9B1"/>
  <note>
sa
</note>
  <outline>
    <contour>
      <point x="222" y="0" type="curve"/>
      <point x="240" y="68" type="line"/>
      <point x="190" y="76"/>
      <point x="165" y="104"/>
      <point x="165" y="154" type="curve" smooth="yes"/>
      <point x="165" y="350" type="line" smooth="yes"/>
      <point x="165" y="430"/>
      <point x="207" y="470"/>
      <point x="291" y="470" type="curve" smooth="yes"/>
      <point x="375" y="470"/>
      <point x="417" y="429"/>
      <point x="417" y="347" type="curve" smooth="yes"/>
      <point x="417" y="233" type="line"/>
      <point x="405" y="235"/>
      <point x="394" y="236"/>
      <point x="383" y="236" type="curve" smooth="yes"/>
      <point x="349" y="236"/>
      <point x="321" y="226"/>
      <point x="301" y="207" type="curve" smooth="yes"/>
      <point x="278" y="186"/>
      <point x="266" y="156"/>
      <point x="266" y="118" type="curve" smooth="yes"/>
      <point x="266" y="44"/>
      <point x="309" y="0"/>
      <point x="383" y="0" type="curve" smooth="yes"/>
      <point x="458" y="0"/>
      <point x="504" y="46"/>
      <point x="504" y="121" type="curve"/>
      <point x="586" y="57" type="line" smooth="yes"/>
      <point x="633" y="21"/>
      <point x="669" y="0"/>
      <point x="718" y="0" type="curve" smooth="yes"/>
      <point x="776" y="0"/>
      <point x="808" y="43"/>
      <point x="808" y="124" type="curve" smooth="yes"/>
      <point x="808" y="391" type="line" smooth="yes"/>
      <point x="808" y="444"/>
      <point x="833" y="470"/>
      <point x="880" y="470" type="curve" smooth="yes"/>
      <point x="928" y="470"/>
      <point x="952" y="445"/>
      <point x="952" y="394" type="curve" smooth="yes"/>
      <point x="952" y="0" type="line"/>
      <point x="1039" y="0" type="line"/>
      <point x="1039" y="393" type="line" smooth="yes"/>
      <point x="1039" y="495"/>
      <point x="986" y="546"/>
      <point x="880" y="546" type="curve" smooth="yes"/>
      <point x="774" y="546"/>
      <point x="721" y="493"/>
      <point x="721" y="388" type="curve" smooth="yes"/>
      <point x="721" y="132" type="line" smooth="yes"/>
      <point x="721" y="106"/>
      <point x="712" y="92"/>
      <point x="695" y="92" type="curve" smooth="yes"/>
      <point x="678" y="92"/>
      <point x="662" y="98"/>
      <point x="646" y="111" type="curve" smooth="yes"/>
      <point x="504" y="220" type="line"/>
      <point x="504" y="344" type="line" smooth="yes"/>
      <point x="504" y="479"/>
      <point x="432" y="546"/>
      <point x="291" y="546" type="curve" smooth="yes"/>
      <point x="149" y="546"/>
      <point x="78" y="480"/>
      <point x="78" y="349" type="curve" smooth="yes"/>
      <point x="78" y="150" type="line" smooth="yes"/>
      <point x="78" y="57"/>
      <point x="132" y="10"/>
    </contour>
    <contour>
      <point x="379" y="66" type="curve" smooth="yes"/>
      <point x="354" y="66"/>
      <point x="342" y="83"/>
      <point x="342" y="115" type="curve" smooth="yes"/>
      <point x="342" y="148"/>
      <point x="357" y="167"/>
      <point x="389" y="167" type="curve" smooth="yes"/>
      <point x="397" y="167"/>
      <point x="407" y="165"/>
      <point x="417" y="162" type="curve"/>
      <point x="417" y="116" type="line" smooth="yes"/>
      <point x="417" y="83"/>
      <point x="404" y="66"/>
    </contour>
  </outline>
</glyph>
<glyph name="ha" format="2">
  <advance width="1195"/>
  <unicode hex="A9B2"/>
  <note>
ha
</note>
  <outline>
    <contour>
      <point x="222" y="0" type="curve"/>
      <point x="240" y="68" type="line"/>
      <point x="190" y="76"/>
      <point x="165" y="104"/>
      <point x="165" y="154" type="curve" smooth="yes"/>
      <point x="165" y="391" type="line" smooth="yes"/>
      <point x="165" y="444"/>
      <point x="190" y="470"/>
      <point x="238" y="470" type="curve" smooth="yes"/>
      <point x="286" y="470"/>
      <point x="310" y="445"/>
      <point x="310" y="394" type="curve" smooth="yes"/>
      <point x="310" y="133" type="line" smooth="yes"/>
      <point x="310" y="45"/>
      <point x="356" y="0"/>
      <point x="450" y="0" type="curve" smooth="yes"/>
      <point x="542" y="0" type="line" smooth="yes"/>
      <point x="636" y="0"/>
      <point x="683" y="45"/>
      <point x="683" y="133" type="curve" smooth="yes"/>
      <point x="683" y="391" type="line" smooth="yes"/>
      <point x="683" y="444"/>
      <point x="708" y="470"/>
      <point x="755" y="470" type="curve" smooth="yes"/>
      <point x="800" y="470"/>
      <point x="827" y="440"/>
      <point x="827" y="394" type="curve" smooth="yes"/>
      <point x="827" y="0" type="line"/>
      <point x="914" y="0" type="line"/>
      <point x="914" y="391" type="line" smooth="yes"/>
      <point x="914" y="444"/>
      <point x="939" y="470"/>
      <point x="987" y="470" type="curve" smooth="yes"/>
      <point x="1035" y="470"/>
      <point x="1059" y="445"/>
      <point x="1059" y="394" type="curve" smooth="yes"/>
      <point x="1059" y="0" type="line"/>
      <point x="1146" y="0" type="line"/>
      <point x="1146" y="393" type="line" smooth="yes"/>
      <point x="1146" y="495"/>
      <point x="1094" y="546"/>
      <point x="992" y="546" type="curve" smooth="yes"/>
      <point x="939" y="546"/>
      <point x="899" y="525"/>
      <point x="874" y="483" type="curve"/>
      <point x="849" y="523"/>
      <point x="803" y="546"/>
      <point x="748" y="546" type="curve" smooth="yes"/>
      <point x="643" y="546"/>
      <point x="596" y="490"/>
      <point x="596" y="388" type="curve" smooth="yes"/>
      <point x="596" y="131" type="line" smooth="yes"/>
      <point x="596" y="89"/>
      <point x="576" y="68"/>
      <point x="537" y="68" type="curve" smooth="yes"/>
      <point x="455" y="68" type="line" smooth="yes"/>
      <point x="416" y="68"/>
      <point x="396" y="89"/>
      <point x="396" y="131" type="curve" smooth="yes"/>
      <point x="396" y="393" type="line" smooth="yes"/>
      <point x="396" y="495"/>
      <point x="344" y="546"/>
      <point x="238" y="546" type="curve" smooth="yes"/>
      <point x="132" y="546"/>
      <point x="78" y="493"/>
      <point x="78" y="388" type="curve" smooth="yes"/>
      <point x="78" y="150" type="line" smooth="yes"/>
      <point x="78" y="57"/>
      <point x="132" y="10"/>
    </contour>
  </outline>
</glyph>
<glyph name="cecaktelu.ns" format="2">
  <unicode hex="A9B3"/>
  <note>
cecaktelu.ns
</note>
  <outline>
    <contour>
      <point x="-344" y="737" type="curve" smooth="yes"/>
      <point x="-321" y="737"/>
      <point x="-303" y="755"/>
      <point x="-303" y="778" type="curve" smooth="yes"/>
      <point x="-303" y="803"/>
      <point x="-322" y="819"/>
      <point x="-344" y="819" type="curve" smooth="yes"/>
      <point x="-364" y="819"/>
      <point x="-385" y="804"/>
      <point x="-385" y="778" type="curve" smooth="yes"/>
      <point x="-385" y="755"/>
      <point x="-365" y="737"/>
    </contour>
    <contour>
      <point x="-409" y="625" type="curve" smooth="yes"/>
      <point x="-384" y="625"/>
      <point x="-368" y="642"/>
      <point x="-368" y="666" type="curve" smooth="yes"/>
      <point x="-368" y="685"/>
      <point x="-384" y="706"/>
      <point x="-409" y="706" type="curve" smooth="yes"/>
      <point x="-432" y="706"/>
      <point x="-450" y="688"/>
      <point x="-450" y="666" type="curve" smooth="yes"/>
      <point x="-450" y="645"/>
      <point x="-436" y="625"/>
    </contour>
    <contour>
      <point x="-278" y="625" type="curve" smooth="yes"/>
      <point x="-254" y="625"/>
      <point x="-237" y="643"/>
      <point x="-237" y="666" type="curve" smooth="yes"/>
      <point x="-237" y="688"/>
      <point x="-257" y="706"/>
      <point x="-278" y="706" type="curve" smooth="yes"/>
      <point x="-300" y="706"/>
      <point x="-319" y="688"/>
      <point x="-319" y="666" type="curve" smooth="yes"/>
      <point x="-319" y="645"/>
      <point x="-305" y="625"/>
    </contour>
  </outline>
</glyph>
<glyph name="tarung" format="2">
  <advance width="413"/>
  <unicode hex="A9B4"/>
  <note>
tarung
</note>
  <outline>
    <contour>
      <point x="59" y="0" type="line"/>
      <point x="247" y="0" type="line" smooth="yes"/>
      <point x="341" y="0"/>
      <point x="389" y="45"/>
      <point x="389" y="133" type="curve" smooth="yes"/>
      <point x="389" y="199" type="line"/>
      <point x="302" y="199" type="line"/>
      <point x="302" y="136" type="line" smooth="yes"/>
      <point x="302" y="94"/>
      <point x="282" y="73"/>
      <point x="243" y="73" type="curve" smooth="yes"/>
      <point x="157" y="73" type="line"/>
      <point x="296" y="250" type="line" smooth="yes"/>
      <point x="340" y="307"/>
      <point x="365" y="358"/>
      <point x="365" y="413" type="curve" smooth="yes"/>
      <point x="365" y="501"/>
      <point x="300" y="552"/>
      <point x="212" y="552" type="curve" smooth="yes"/>
      <point x="131" y="552"/>
      <point x="78" y="504"/>
      <point x="54" y="408" type="curve"/>
      <point x="121" y="378" type="line"/>
      <point x="144" y="441"/>
      <point x="174" y="473"/>
      <point x="212" y="473" type="curve" smooth="yes"/>
      <point x="254" y="473"/>
      <point x="280" y="450"/>
      <point x="280" y="406" type="curve" smooth="yes"/>
      <point x="280" y="379"/>
      <point x="270" y="350"/>
      <point x="247" y="321" type="curve" smooth="yes"/>
      <point x="49" y="67" type="line"/>
    </contour>
  </outline>
</glyph>
<glyph name="tolong" format="2">
  <advance width="439"/>
  <unicode hex="A9B5"/>
  <note>
tolong
</note>
  <outline>
    <contour>
      <point x="215" y="0" type="curve" smooth="yes"/>
      <point x="334" y="0"/>
      <point x="394" y="71"/>
      <point x="394" y="206" type="curve" smooth="yes"/>
      <point x="394" y="355"/>
      <point x="301" y="469"/>
      <point x="116" y="547" type="curve"/>
      <point x="85" y="480" type="line"/>
      <point x="228" y="407"/>
      <point x="300" y="316"/>
      <point x="300" y="209" type="curve" smooth="yes"/>
      <point x="300" y="146"/>
      <point x="278" y="88"/>
      <point x="215" y="88" type="curve" smooth="yes"/>
      <point x="171" y="88"/>
      <point x="137" y="117"/>
      <point x="114" y="173" type="curve"/>
      <point x="42" y="144" type="line"/>
      <point x="69" y="48"/>
      <point x="127" y="0"/>
    </contour>
  </outline>
</glyph>
<glyph name="u.ns" format="2">
  <unicode hex="A9B8"/>
  <note>
u.ns
</note>
  <outline>
    <contour>
      <point x="-14" y="-829" type="curve" smooth="yes"/>
      <point x="67" y="-829"/>
      <point x="107" y="-775"/>
      <point x="107" y="-667" type="curve" smooth="yes"/>
      <point x="107" y="-97" type="line"/>
      <point x="20" y="-97" type="line"/>
      <point x="20" y="-692" type="line" smooth="yes"/>
      <point x="20" y="-728"/>
      <point x="7" y="-746"/>
      <point x="-15" y="-746" type="curve" smooth="yes"/>
      <point x="-36" y="-746"/>
      <point x="-49" y="-728"/>
      <point x="-49" y="-692" type="curve" smooth="yes"/>
      <point x="-49" y="16" type="line"/>
      <point x="-136" y="16" type="line"/>
      <point x="-136" y="-667" type="line" smooth="yes"/>
      <point x="-136" y="-775"/>
      <point x="-95" y="-829"/>
    </contour>
  </outline>
</glyph>
<glyph name="uu.ns" format="2">
  <unicode hex="A9B9"/>
  <note>
uu.ns
</note>
  <outline>
    <contour>
      <point x="-14" y="-829" type="curve" smooth="yes"/>
      <point x="67" y="-829"/>
      <point x="107" y="-775"/>
      <point x="107" y="-667" type="curve" smooth="yes"/>
      <point x="107" y="-438" type="line" smooth="yes"/>
      <point x="107" y="-353"/>
      <point x="54" y="-298"/>
      <point x="-49" y="-275" type="curve"/>
      <point x="-49" y="-174" type="line"/>
      <point x="115" y="-174" type="line"/>
      <point x="115" y="-99" type="line"/>
      <point x="-49" y="-99" type="line"/>
      <point x="-49" y="16" type="line"/>
      <point x="-136" y="16" type="line"/>
      <point x="-136" y="-99" type="line"/>
      <point x="-173" y="-99" type="line" smooth="yes"/>
      <point x="-274" y="-99"/>
      <point x="-327" y="-142"/>
      <point x="-327" y="-213" type="curve" smooth="yes"/>
      <point x="-327" y="-283"/>
      <point x="-284" y="-319"/>
      <point x="-198" y="-333" type="curve" smooth="yes"/>
      <point x="-136" y="-343" type="line"/>
      <point x="-136" y="-667" type="line" smooth="yes"/>
      <point x="-136" y="-775"/>
      <point x="-95" y="-829"/>
    </contour>
    <contour>
      <point x="-136" y="-264" type="line"/>
      <point x="-190" y="-256" type="line" smooth="yes"/>
      <point x="-218" y="-252"/>
      <point x="-232" y="-238"/>
      <point x="-232" y="-216" type="curve" smooth="yes"/>
      <point x="-232" y="-188"/>
      <point x="-214" y="-174"/>
      <point x="-177" y="-174" type="curve" smooth="yes"/>
      <point x="-136" y="-174" type="line"/>
    </contour>
    <contour>
      <point x="-15" y="-746" type="curve" smooth="yes"/>
      <point x="-36" y="-746"/>
      <point x="-49" y="-728"/>
      <point x="-49" y="-692" type="curve" smooth="yes"/>
      <point x="-49" y="-354" type="line"/>
      <point x="-3" y="-365"/>
      <point x="20" y="-390"/>
      <point x="20" y="-429" type="curve" smooth="yes"/>
      <point x="20" y="-692" type="line" smooth="yes"/>
      <point x="20" y="-728"/>
      <point x="7" y="-746"/>
    </contour>
  </outline>
</glyph>
<glyph name="taling" format="2">
  <advance width="677"/>
  <unicode hex="A9BA"/>
  <note>
uniA9BA
</note>
  <outline>
    <contour>
      <point x="697" y="-829" type="curve"/>
      <point x="697" y="-756" type="line"/>
      <point x="651" y="-756"/>
      <point x="628" y="-732"/>
      <point x="628" y="-684" type="curve" smooth="yes"/>
      <point x="628" y="393" type="line" smooth="yes"/>
      <point x="628" y="495"/>
      <point x="575" y="546"/>
      <point x="469" y="546" type="curve" smooth="yes"/>
      <point x="420" y="546"/>
      <point x="382" y="525"/>
      <point x="356" y="483" type="curve"/>
      <point x="332" y="522"/>
      <point x="288" y="546"/>
      <point x="238" y="546" type="curve" smooth="yes"/>
      <point x="132" y="546"/>
      <point x="78" y="493"/>
      <point x="78" y="388" type="curve" smooth="yes"/>
      <point x="78" y="150" type="line" smooth="yes"/>
      <point x="78" y="104"/>
      <point x="91" y="70"/>
      <point x="115" y="45" type="curve" smooth="yes"/>
      <point x="139" y="20"/>
      <point x="176" y="5"/>
      <point x="222" y="0" type="curve"/>
      <point x="240" y="68" type="line"/>
      <point x="190" y="76"/>
      <point x="165" y="104"/>
      <point x="165" y="154" type="curve" smooth="yes"/>
      <point x="165" y="391" type="line" smooth="yes"/>
      <point x="165" y="444"/>
      <point x="190" y="470"/>
      <point x="238" y="470" type="curve" smooth="yes"/>
      <point x="281" y="470"/>
      <point x="310" y="440"/>
      <point x="310" y="394" type="curve" smooth="yes"/>
      <point x="310" y="0" type="line"/>
      <point x="396" y="0" type="line"/>
      <point x="396" y="391" type="line" smooth="yes"/>
      <point x="396" y="444"/>
      <point x="421" y="470"/>
      <point x="469" y="470" type="curve" smooth="yes"/>
      <point x="517" y="470"/>
      <point x="541" y="445"/>
      <point x="541" y="394" type="curve" smooth="yes"/>
      <point x="541" y="-678" type="line" smooth="yes"/>
      <point x="541" y="-779"/>
      <point x="593" y="-829"/>
    </contour>
  </outline>
</glyph>
<glyph name="dirgam" format="2">
  <advance width="677"/>
  <unicode hex="A9BB"/>
  <note>
uniA9BB
</note>
  <outline>
    <contour>
      <point x="697" y="-829" type="curve"/>
      <point x="697" y="-756" type="line"/>
      <point x="651" y="-756"/>
      <point x="628" y="-732"/>
      <point x="628" y="-684" type="curve" smooth="yes"/>
      <point x="628" y="393" type="line" smooth="yes"/>
      <point x="628" y="495"/>
      <point x="575" y="546"/>
      <point x="469" y="546" type="curve" smooth="yes"/>
      <point x="420" y="546"/>
      <point x="382" y="525"/>
      <point x="356" y="483" type="curve"/>
      <point x="332" y="522"/>
      <point x="288" y="546"/>
      <point x="238" y="546" type="curve" smooth="yes"/>
      <point x="132" y="546"/>
      <point x="78" y="493"/>
      <point x="78" y="388" type="curve" smooth="yes"/>
      <point x="78" y="150" type="line" smooth="yes"/>
      <point x="78" y="104"/>
      <point x="91" y="70"/>
      <point x="115" y="45" type="curve" smooth="yes"/>
      <point x="139" y="20"/>
      <point x="176" y="5"/>
      <point x="222" y="0" type="curve"/>
      <point x="240" y="68" type="line"/>
      <point x="190" y="76"/>
      <point x="165" y="104"/>
      <point x="165" y="154" type="curve" smooth="yes"/>
      <point x="165" y="391" type="line" smooth="yes"/>
      <point x="165" y="444"/>
      <point x="190" y="470"/>
      <point x="238" y="470" type="curve" smooth="yes"/>
      <point x="281" y="470"/>
      <point x="310" y="440"/>
      <point x="310" y="394" type="curve" smooth="yes"/>
      <point x="310" y="0" type="line"/>
      <point x="396" y="0" type="line"/>
      <point x="396" y="391" type="line" smooth="yes"/>
      <point x="396" y="444"/>
      <point x="421" y="470"/>
      <point x="469" y="470" type="curve" smooth="yes"/>
      <point x="517" y="470"/>
      <point x="541" y="445"/>
      <point x="541" y="394" type="curve" smooth="yes"/>
      <point x="541" y="-678" type="line" smooth="yes"/>
      <point x="541" y="-779"/>
      <point x="593" y="-829"/>
    </contour>
    <contour>
      <point x="346" y="579" type="line"/>
      <point x="415" y="620"/>
      <point x="473" y="662"/>
      <point x="473" y="721" type="curve" smooth="yes"/>
      <point x="473" y="759"/>
      <point x="450" y="784"/>
      <point x="408" y="803" type="curve" smooth="yes"/>
      <point x="363" y="824" type="line" smooth="yes"/>
      <point x="340" y="835"/>
      <point x="329" y="847"/>
      <point x="329" y="864" type="curve" smooth="yes"/>
      <point x="329" y="883"/>
      <point x="349" y="893"/>
      <point x="383" y="893" type="curve" smooth="yes"/>
      <point x="394" y="893"/>
      <point x="410" y="892"/>
      <point x="429" y="889" type="curve"/>
      <point x="429" y="947" type="line"/>
      <point x="412" y="951"/>
      <point x="395" y="954"/>
      <point x="378" y="954" type="curve" smooth="yes"/>
      <point x="312" y="954"/>
      <point x="253" y="923"/>
      <point x="253" y="856" type="curve" smooth="yes"/>
      <point x="253" y="834"/>
      <point x="259" y="815"/>
      <point x="275" y="799" type="curve" smooth="yes"/>
      <point x="290" y="784"/>
      <point x="312" y="768"/>
      <point x="345" y="755" type="curve" smooth="yes"/>
      <point x="382" y="740"/>
      <point x="397" y="735"/>
      <point x="397" y="712" type="curve" smooth="yes"/>
      <point x="397" y="687"/>
      <point x="360" y="659"/>
      <point x="310" y="621" type="curve"/>
    </contour>
  </outline>
</glyph>
<glyph name="ae.ns" format="2">
  <unicode hex="A9BC"/>
  <note>
ae.ns
</note>
  <outline>
    <contour>
      <point x="-508" y="596" type="curve"/>
      <point x="-508" y="667" type="line"/>
      <point x="-575" y="668"/>
      <point x="-624" y="679"/>
      <point x="-654" y="701" type="curve" smooth="yes"/>
      <point x="-685" y="723"/>
      <point x="-700" y="755"/>
      <point x="-700" y="797" type="curve" smooth="yes"/>
      <point x="-700" y="875"/>
      <point x="-643" y="915"/>
      <point x="-537" y="915" type="curve" smooth="yes"/>
      <point x="-462" y="915"/>
      <point x="-407" y="888"/>
      <point x="-370" y="836" type="curve" smooth="yes"/>
      <point x="-333" y="783"/>
      <point x="-312" y="716"/>
      <point x="-308" y="634" type="curve"/>
      <point x="-234" y="634" type="line"/>
      <point x="-234" y="799"/>
      <point x="-288" y="908"/>
      <point x="-394" y="961" type="curve" smooth="yes"/>
      <point x="-443" y="985"/>
      <point x="-494" y="998"/>
      <point x="-547" y="998" type="curve" smooth="yes"/>
      <point x="-692" y="998"/>
      <point x="-789" y="932"/>
      <point x="-789" y="784" type="curve" smooth="yes"/>
      <point x="-789" y="726"/>
      <point x="-762" y="680"/>
      <point x="-719" y="646" type="curve" smooth="yes"/>
      <point x="-677" y="612"/>
      <point x="-606" y="596"/>
    </contour>
  </outline>
</glyph>
<glyph name="keret.ns" format="2">
  <unicode hex="A9BD"/>
  <note>
keret.ns
</note>
  <outline>
    <contour>
      <point x="-343" y="-825" type="curve" smooth="yes"/>
      <point x="-128" y="-825"/>
      <point x="26" y="-711"/>
      <point x="26" y="-509" type="curve" smooth="yes"/>
      <point x="26" y="-356"/>
      <point x="-63" y="-227"/>
      <point x="-219" y="-165" type="curve"/>
      <point x="-219" y="-160" type="line"/>
      <point x="-105" y="-136"/>
      <point x="-49" y="-83"/>
      <point x="-49" y="0" type="curve"/>
      <point x="-49" y="10" type="line"/>
      <point x="-136" y="10" type="line"/>
      <point x="-136" y="0" type="line" smooth="yes"/>
      <point x="-136" y="-63"/>
      <point x="-198" y="-106"/>
      <point x="-321" y="-129" type="curve"/>
      <point x="-327" y="-180" type="line"/>
      <point x="-157" y="-238"/>
      <point x="-67" y="-348"/>
      <point x="-67" y="-504" type="curve" smooth="yes"/>
      <point x="-67" y="-669"/>
      <point x="-176" y="-747"/>
      <point x="-346" y="-747" type="curve" smooth="yes"/>
      <point x="-373" y="-747"/>
      <point x="-399" y="-744"/>
      <point x="-425" y="-738" type="curve"/>
      <point x="-423" y="-720"/>
      <point x="-423" y="-704"/>
      <point x="-423" y="-691" type="curve" smooth="yes"/>
      <point x="-423" y="-583"/>
      <point x="-466" y="-501"/>
      <point x="-562" y="-501" type="curve" smooth="yes"/>
      <point x="-621" y="-501"/>
      <point x="-661" y="-545"/>
      <point x="-661" y="-604" type="curve" smooth="yes"/>
      <point x="-661" y="-737"/>
      <point x="-522" y="-825"/>
    </contour>
    <contour>
      <point x="-494" y="-714" type="curve"/>
      <point x="-555" y="-690"/>
      <point x="-585" y="-657"/>
      <point x="-585" y="-615" type="curve" smooth="yes"/>
      <point x="-585" y="-594"/>
      <point x="-574" y="-578"/>
      <point x="-558" y="-578" type="curve" smooth="yes"/>
      <point x="-512" y="-578"/>
      <point x="-494" y="-645"/>
    </contour>
  </outline>
</glyph>
<glyph name="pengkal" format="2">
  <advance width="376"/>
  <unicode hex="A9BE"/>
  <note>
pengkal
</note>
  <outline>
    <contour>
      <point x="-257" y="-829" type="curve" smooth="yes"/>
      <point x="3" y="-829"/>
      <point x="135" y="-723"/>
      <point x="135" y="-510" type="curve" smooth="yes"/>
      <point x="135" y="391" type="line" smooth="yes"/>
      <point x="135" y="444"/>
      <point x="153" y="470"/>
      <point x="188" y="470" type="curve" smooth="yes"/>
      <point x="223" y="470"/>
      <point x="240" y="445"/>
      <point x="240" y="394" type="curve" smooth="yes"/>
      <point x="240" y="-678" type="line" smooth="yes"/>
      <point x="240" y="-779"/>
      <point x="292" y="-829"/>
      <point x="396" y="-829" type="curve"/>
      <point x="396" y="-756" type="line"/>
      <point x="350" y="-756"/>
      <point x="327" y="-732"/>
      <point x="327" y="-684" type="curve" smooth="yes"/>
      <point x="327" y="393" type="line" smooth="yes"/>
      <point x="327" y="495"/>
      <point x="281" y="546"/>
      <point x="188" y="546" type="curve" smooth="yes"/>
      <point x="95" y="546"/>
      <point x="48" y="493"/>
      <point x="48" y="388" type="curve" smooth="yes"/>
      <point x="48" y="-511" type="line" smooth="yes"/>
      <point x="48" y="-666"/>
      <point x="-49" y="-744"/>
      <point x="-252" y="-744" type="curve" smooth="yes"/>
      <point x="-434" y="-744"/>
      <point x="-541" y="-665"/>
      <point x="-541" y="-519" type="curve" smooth="yes"/>
      <point x="-541" y="-401"/>
      <point x="-451" y="-295"/>
      <point x="-338" y="-252" type="curve" smooth="yes"/>
      <point x="-155" y="-182"/>
      <point x="-49" y="-90"/>
      <point x="-49" y="5" type="curve" smooth="yes"/>
      <point x="-49" y="16" type="line"/>
      <point x="-136" y="16" type="line"/>
      <point x="-136" y="-7" type="line" smooth="yes"/>
      <point x="-136" y="-59"/>
      <point x="-211" y="-114"/>
      <point x="-361" y="-174" type="curve" smooth="yes"/>
      <point x="-544" y="-247"/>
      <point x="-635" y="-363"/>
      <point x="-635" y="-523" type="curve" smooth="yes"/>
      <point x="-635" y="-720"/>
      <point x="-500" y="-829"/>
    </contour>
  </outline>
</glyph>
<glyph name="cakra" format="2">
  <advance width="238"/>
  <unicode hex="A9BF"/>
  <note>
cakra
</note>
  <outline>
    <contour>
      <point x="299" y="-181" type="curve" smooth="yes"/>
      <point x="357" y="-181"/>
      <point x="413" y="-162"/>
      <point x="467" y="-125" type="curve"/>
      <point x="431" y="-57" type="line"/>
      <point x="388" y="-81"/>
      <point x="347" y="-93"/>
      <point x="310" y="-93" type="curve" smooth="yes"/>
      <point x="196" y="-93"/>
      <point x="158" y="-2"/>
      <point x="158" y="135" type="curve" smooth="yes"/>
      <point x="158" y="299"/>
      <point x="219" y="493"/>
      <point x="341" y="717" type="curve"/>
      <point x="281" y="750" type="line"/>
      <point x="140" y="520"/>
      <point x="69" y="309"/>
      <point x="69" y="118" type="curve" smooth="yes"/>
      <point x="69" y="-81"/>
      <point x="147" y="-181"/>
    </contour>
  </outline>
</glyph>
<glyph name="pangkon" format="2">
  <advance width="391"/>
  <unicode hex="A9C0"/>
  <note>
pangkon
</note>
  <outline>
    <contour>
      <point x="-145" y="-829" type="curve" smooth="yes"/>
      <point x="49" y="-829"/>
      <point x="149" y="-746"/>
      <point x="149" y="-582" type="curve" smooth="yes"/>
      <point x="149" y="391" type="line" smooth="yes"/>
      <point x="149" y="444"/>
      <point x="168" y="470"/>
      <point x="203" y="470" type="curve" smooth="yes"/>
      <point x="237" y="470"/>
      <point x="255" y="445"/>
      <point x="255" y="394" type="curve" smooth="yes"/>
      <point x="255" y="-678" type="line" smooth="yes"/>
      <point x="255" y="-779"/>
      <point x="307" y="-829"/>
      <point x="411" y="-829" type="curve"/>
      <point x="411" y="-756" type="line"/>
      <point x="365" y="-756"/>
      <point x="342" y="-732"/>
      <point x="342" y="-684" type="curve" smooth="yes"/>
      <point x="342" y="393" type="line" smooth="yes"/>
      <point x="342" y="495"/>
      <point x="295" y="546"/>
      <point x="203" y="546" type="curve" smooth="yes"/>
      <point x="110" y="546"/>
      <point x="63" y="493"/>
      <point x="63" y="388" type="curve" smooth="yes"/>
      <point x="63" y="-586" type="line" smooth="yes"/>
      <point x="63" y="-709"/>
      <point x="-17" y="-749"/>
      <point x="-145" y="-749" type="curve" smooth="yes"/>
      <point x="-236" y="-749"/>
      <point x="-282" y="-729"/>
      <point x="-282" y="-688" type="curve" smooth="yes"/>
      <point x="-282" y="-634"/>
      <point x="-214" y="-589"/>
      <point x="-80" y="-552" type="curve"/>
      <point x="-103" y="-481" type="line"/>
      <point x="-288" y="-525"/>
      <point x="-380" y="-595"/>
      <point x="-380" y="-695" type="curve" smooth="yes"/>
      <point x="-380" y="-793"/>
      <point x="-263" y="-829"/>
    </contour>
  </outline>
</glyph>
<glyph name="uniA9C1" format="2">
  <advance width="1562"/>
  <unicode hex="A9C1"/>
  <note>
uniA9C1
</note>
  <outline>
    <contour>
      <point x="579" y="62" type="curve" smooth="yes"/>
      <point x="788" y="62"/>
      <point x="1018" y="102"/>
      <point x="1271" y="172" type="curve"/>
      <point x="1263" y="188"/>
      <point x="1257" y="205"/>
      <point x="1255" y="224" type="curve"/>
      <point x="1032" y="166"/>
      <point x="809" y="136"/>
      <point x="586" y="136" type="curve" smooth="yes"/>
      <point x="357" y="136"/>
      <point x="222" y="174"/>
      <point x="182" y="244" type="curve"/>
      <point x="230" y="263"/>
      <point x="259" y="293"/>
      <point x="259" y="330" type="curve" smooth="yes"/>
      <point x="259" y="394"/>
      <point x="231" y="425"/>
      <point x="175" y="425" type="curve" smooth="yes"/>
      <point x="113" y="425"/>
      <point x="76" y="377"/>
      <point x="76" y="305" type="curve" smooth="yes"/>
      <point x="76" y="234"/>
      <point x="114" y="175"/>
      <point x="193" y="130" type="curve" smooth="yes"/>
      <point x="272" y="85"/>
      <point x="400" y="62"/>
    </contour>
    <contour>
      <point x="790" y="-247" type="curve" smooth="yes"/>
      <point x="881" y="-247"/>
      <point x="973" y="-218"/>
      <point x="1065" y="-162" type="curve" smooth="yes"/>
      <point x="1158" y="-106"/>
      <point x="1253" y="-21"/>
      <point x="1353" y="94" type="curve"/>
      <point x="1338" y="100"/>
      <point x="1324" y="109"/>
      <point x="1311" y="122" type="curve"/>
      <point x="1210" y="21"/>
      <point x="1117" y="-53"/>
      <point x="1033" y="-102" type="curve" smooth="yes"/>
      <point x="949" y="-151"/>
      <point x="867" y="-176"/>
      <point x="790" y="-176" type="curve" smooth="yes"/>
      <point x="740" y="-176"/>
      <point x="708" y="-162"/>
      <point x="693" y="-133" type="curve"/>
      <point x="734" y="-123"/>
      <point x="748" y="-104"/>
      <point x="748" y="-62" type="curve" smooth="yes"/>
      <point x="748" y="-15"/>
      <point x="713" y="12"/>
      <point x="669" y="12" type="curve" smooth="yes"/>
      <point x="615" y="12"/>
      <point x="584" y="-29"/>
      <point x="584" y="-79" type="curve" smooth="yes"/>
      <point x="584" y="-179"/>
      <point x="675" y="-247"/>
    </contour>
    <contour>
      <point x="1244" y="-372" type="curve" smooth="yes"/>
      <point x="1324" y="-372"/>
      <point x="1380" y="-331"/>
      <point x="1416" y="-266" type="curve" smooth="yes"/>
      <point x="1457" y="-193"/>
      <point x="1473" y="-90"/>
      <point x="1473" y="19" type="curve" smooth="yes"/>
      <point x="1473" y="41"/>
      <point x="1472" y="62"/>
      <point x="1471" y="82" type="curve"/>
      <point x="1458" y="80"/>
      <point x="1447" y="79"/>
      <point x="1436" y="79" type="curve" smooth="yes"/>
      <point x="1428" y="79"/>
      <point x="1419" y="80"/>
      <point x="1412" y="81" type="curve"/>
      <point x="1412" y="35" type="line" smooth="yes"/>
      <point x="1412" y="-126"/>
      <point x="1378" y="-301"/>
      <point x="1258" y="-306" type="curve"/>
      <point x="1262" y="-292"/>
      <point x="1265" y="-280"/>
      <point x="1265" y="-269" type="curve" smooth="yes"/>
      <point x="1265" y="-221"/>
      <point x="1237" y="-196"/>
      <point x="1193" y="-196" type="curve" smooth="yes"/>
      <point x="1155" y="-196"/>
      <point x="1119" y="-223"/>
      <point x="1119" y="-268" type="curve" smooth="yes"/>
      <point x="1119" y="-331"/>
      <point x="1173" y="-372"/>
    </contour>
    <contour>
      <point x="1254" y="283" type="curve"/>
      <point x="1258" y="304"/>
      <point x="1265" y="322"/>
      <point x="1275" y="339" type="curve"/>
      <point x="891" y="386"/>
      <point x="690" y="480"/>
      <point x="674" y="623" type="curve"/>
      <point x="674" y="623" type="line" smooth="yes"/>
      <point x="746" y="625"/>
      <point x="781" y="652"/>
      <point x="781" y="703" type="curve" smooth="yes"/>
      <point x="781" y="751"/>
      <point x="748" y="780"/>
      <point x="701" y="780" type="curve" smooth="yes"/>
      <point x="632" y="780"/>
      <point x="586" y="723"/>
      <point x="586" y="646" type="curve" smooth="yes"/>
      <point x="586" y="394"/>
      <point x="942" y="317"/>
    </contour>
    <contour>
      <point x="1424" y="179" type="curve" smooth="yes"/>
      <point x="1463" y="179"/>
      <point x="1498" y="207"/>
      <point x="1498" y="252" type="curve" smooth="yes"/>
      <point x="1498" y="295"/>
      <point x="1464" y="326"/>
      <point x="1424" y="326" type="curve" smooth="yes"/>
      <point x="1388" y="326"/>
      <point x="1351" y="295"/>
      <point x="1351" y="252" type="curve" smooth="yes"/>
      <point x="1351" y="211"/>
      <point x="1384" y="179"/>
    </contour>
    <contour>
      <point x="1318" y="389" type="curve"/>
      <point x="1334" y="402"/>
      <point x="1352" y="412"/>
      <point x="1372" y="417" type="curve"/>
      <point x="1236" y="501"/>
      <point x="1125" y="582"/>
      <point x="1125" y="695" type="curve" smooth="yes"/>
      <point x="1125" y="711"/>
      <point x="1128" y="728"/>
      <point x="1132" y="747" type="curve"/>
      <point x="1149" y="734"/>
      <point x="1166" y="728"/>
      <point x="1182" y="728" type="curve" smooth="yes"/>
      <point x="1221" y="728"/>
      <point x="1247" y="753"/>
      <point x="1247" y="790" type="curve" smooth="yes"/>
      <point x="1247" y="822"/>
      <point x="1224" y="854"/>
      <point x="1171" y="854" type="curve" smooth="yes"/>
      <point x="1096" y="854"/>
      <point x="1054" y="789"/>
      <point x="1054" y="700" type="curve" smooth="yes"/>
      <point x="1054" y="560"/>
      <point x="1168" y="470"/>
    </contour>
  </outline>
</glyph>
<glyph name="uniA9C2" format="2">
  <advance width="1562"/>
  <unicode hex="A9C2"/>
  <note>
uniA9C2
</note>
  <outline>
    <contour>
      <point x="1398" y="81" type="curve" smooth="yes"/>
      <point x="1464" y="81"/>
      <point x="1498" y="132"/>
      <point x="1498" y="201" type="curve" smooth="yes"/>
      <point x="1498" y="272"/>
      <point x="1458" y="331"/>
      <point x="1380" y="376" type="curve" smooth="yes"/>
      <point x="1301" y="421"/>
      <point x="1173" y="444"/>
      <point x="995" y="444" type="curve" smooth="yes"/>
      <point x="785" y="444"/>
      <point x="555" y="404"/>
      <point x="303" y="333" type="curve"/>
      <point x="311" y="317"/>
      <point x="316" y="300"/>
      <point x="318" y="282" type="curve"/>
      <point x="541" y="340"/>
      <point x="764" y="370"/>
      <point x="987" y="370" type="curve" smooth="yes"/>
      <point x="1216" y="370"/>
      <point x="1351" y="332"/>
      <point x="1392" y="262" type="curve"/>
      <point x="1343" y="243"/>
      <point x="1314" y="211"/>
      <point x="1314" y="176" type="curve" smooth="yes"/>
      <point x="1314" y="112"/>
      <point x="1342" y="81"/>
    </contour>
    <contour>
      <point x="402" y="-348" type="curve" smooth="yes"/>
      <point x="477" y="-348"/>
      <point x="520" y="-285"/>
      <point x="520" y="-194" type="curve" smooth="yes"/>
      <point x="520" y="-56"/>
      <point x="404" y="36"/>
      <point x="255" y="117" type="curve"/>
      <point x="239" y="104"/>
      <point x="221" y="94"/>
      <point x="201" y="88" type="curve"/>
      <point x="354" y="-5"/>
      <point x="473" y="-87"/>
      <point x="441" y="-241" type="curve"/>
      <point x="393" y="-205"/>
      <point x="327" y="-225"/>
      <point x="327" y="-279" type="curve" smooth="yes"/>
      <point x="327" y="-318"/>
      <point x="349" y="-348"/>
    </contour>
    <contour>
      <point x="149" y="180" type="curve" smooth="yes"/>
      <point x="187" y="180"/>
      <point x="222" y="210"/>
      <point x="222" y="254" type="curve" smooth="yes"/>
      <point x="222" y="296"/>
      <point x="190" y="327"/>
      <point x="149" y="327" type="curve" smooth="yes"/>
      <point x="107" y="327"/>
      <point x="76" y="295"/>
      <point x="76" y="254" type="curve" smooth="yes"/>
      <point x="76" y="213"/>
      <point x="109" y="180"/>
    </contour>
    <contour>
      <point x="873" y="-274" type="curve" smooth="yes"/>
      <point x="941" y="-274"/>
      <point x="987" y="-218"/>
      <point x="987" y="-140" type="curve" smooth="yes"/>
      <point x="987" y="111"/>
      <point x="635" y="188"/>
      <point x="319" y="223" type="curve"/>
      <point x="315" y="202"/>
      <point x="309" y="184"/>
      <point x="298" y="167" type="curve"/>
      <point x="683" y="120"/>
      <point x="883" y="25"/>
      <point x="899" y="-117" type="curve"/>
      <point x="828" y="-120"/>
      <point x="792" y="-146"/>
      <point x="792" y="-197" type="curve" smooth="yes"/>
      <point x="792" y="-244"/>
      <point x="823" y="-274"/>
    </contour>
    <contour>
      <point x="103" y="424" type="curve"/>
      <point x="115" y="426"/>
      <point x="126" y="427"/>
      <point x="137" y="427" type="curve" smooth="yes"/>
      <point x="146" y="427"/>
      <point x="154" y="426"/>
      <point x="162" y="425" type="curve"/>
      <point x="161" y="440"/>
      <point x="161" y="456"/>
      <point x="161" y="471" type="curve" smooth="yes"/>
      <point x="161" y="630"/>
      <point x="196" y="807"/>
      <point x="315" y="812" type="curve"/>
      <point x="311" y="798"/>
      <point x="309" y="786"/>
      <point x="309" y="774" type="curve" smooth="yes"/>
      <point x="309" y="728"/>
      <point x="338" y="702"/>
      <point x="380" y="702" type="curve" smooth="yes"/>
      <point x="419" y="702"/>
      <point x="454" y="729"/>
      <point x="454" y="774" type="curve" smooth="yes"/>
      <point x="454" y="831"/>
      <point x="409" y="878"/>
      <point x="329" y="878" type="curve" smooth="yes"/>
      <point x="255" y="878"/>
      <point x="198" y="843"/>
      <point x="159" y="774" type="curve" smooth="yes"/>
      <point x="120" y="706"/>
      <point x="101" y="610"/>
      <point x="101" y="487" type="curve" smooth="yes"/>
      <point x="101" y="465"/>
      <point x="101" y="444"/>
    </contour>
    <contour>
      <point x="263" y="384" type="curve"/>
      <point x="420" y="542"/>
      <point x="602" y="682"/>
      <point x="784" y="682" type="curve" smooth="yes"/>
      <point x="833" y="682"/>
      <point x="865" y="667"/>
      <point x="880" y="639" type="curve"/>
      <point x="841" y="630"/>
      <point x="825" y="607"/>
      <point x="825" y="567" type="curve" smooth="yes"/>
      <point x="825" y="520"/>
      <point x="862" y="494"/>
      <point x="904" y="494" type="curve" smooth="yes"/>
      <point x="951" y="494"/>
      <point x="989" y="528"/>
      <point x="989" y="584" type="curve" smooth="yes"/>
      <point x="989" y="685"/>
      <point x="901" y="752"/>
      <point x="784" y="752" type="curve" smooth="yes"/>
      <point x="574" y="752"/>
      <point x="388" y="606"/>
      <point x="221" y="412" type="curve"/>
      <point x="235" y="406"/>
      <point x="249" y="396"/>
    </contour>
  </outline>
</glyph>
<glyph name="uniA9C3" format="2">
  <advance width="2012"/>
  <unicode hex="A9C3"/>
  <note>
uniA9C3
</note>
  <outline>
    <contour>
      <point x="2032" y="-829" type="curve"/>
      <point x="2032" y="-756" type="line"/>
      <point x="1986" y="-756"/>
      <point x="1963" y="-732"/>
      <point x="1963" y="-684" type="curve" smooth="yes"/>
      <point x="1963" y="-417" type="line"/>
      <point x="2036" y="-455"/>
      <point x="2108" y="-496"/>
      <point x="2180" y="-541" type="curve"/>
      <point x="2209" y="-485" type="line"/>
      <point x="2122" y="-432"/>
      <point x="2040" y="-386"/>
      <point x="1963" y="-348" type="curve"/>
      <point x="1963" y="393" type="line" smooth="yes"/>
      <point x="1963" y="495"/>
      <point x="1917" y="546"/>
      <point x="1824" y="546" type="curve" smooth="yes"/>
      <point x="1731" y="546"/>
      <point x="1684" y="493"/>
      <point x="1684" y="388" type="curve" smooth="yes"/>
      <point x="1684" y="-237" type="line"/>
      <point x="1650" y="-228"/>
      <point x="1615" y="-219"/>
      <point x="1578" y="-213" type="curve"/>
      <point x="1578" y="393" type="line" smooth="yes"/>
      <point x="1578" y="495"/>
      <point x="1532" y="546"/>
      <point x="1439" y="546" type="curve" smooth="yes"/>
      <point x="1346" y="546"/>
      <point x="1299" y="493"/>
      <point x="1299" y="388" type="curve" smooth="yes"/>
      <point x="1299" y="-196" type="line"/>
      <point x="1170" y="-203"/>
      <point x="963" y="-239"/>
      <point x="880" y="-300" type="curve"/>
      <point x="880" y="-356" type="line"/>
      <point x="920" y="-344"/>
      <point x="957" y="-338"/>
      <point x="990" y="-338" type="curve" smooth="yes"/>
      <point x="1033" y="-338"/>
      <point x="1070" y="-354"/>
      <point x="1070" y="-388" type="curve" smooth="yes"/>
      <point x="1070" y="-437"/>
      <point x="994" y="-465"/>
      <point x="923" y="-465" type="curve" smooth="yes"/>
      <point x="806" y="-465"/>
      <point x="752" y="-425"/>
      <point x="752" y="-338" type="curve" smooth="yes"/>
      <point x="752" y="-219"/>
      <point x="905" y="-166"/>
      <point x="1040" y="-166" type="curve"/>
      <point x="1040" y="-93" type="line"/>
      <point x="933" y="-95"/>
      <point x="817" y="-125"/>
      <point x="766" y="-162" type="curve" smooth="yes"/>
      <point x="707" y="-205"/>
      <point x="665" y="-265"/>
      <point x="665" y="-342" type="curve" smooth="yes"/>
      <point x="665" y="-472"/>
      <point x="770" y="-534"/>
      <point x="921" y="-534" type="curve" smooth="yes"/>
      <point x="1025" y="-534"/>
      <point x="1157" y="-484"/>
      <point x="1157" y="-388" type="curve" smooth="yes"/>
      <point x="1157" y="-333"/>
      <point x="1112" y="-302"/>
      <point x="1021" y="-295" type="curve"/>
      <point x="1114" y="-271"/>
      <point x="1207" y="-259"/>
      <point x="1299" y="-258" type="curve" smooth="yes"/>
      <point x="1299" y="-258" type="line"/>
      <point x="1299" y="-442" type="line" smooth="yes"/>
      <point x="1299" y="-636"/>
      <point x="1134" y="-740"/>
      <point x="840" y="-740" type="curve" smooth="yes"/>
      <point x="651" y="-740"/>
      <point x="496" y="-684"/>
      <point x="373" y="-571" type="curve" smooth="yes"/>
      <point x="250" y="-458"/>
      <point x="168" y="-296"/>
      <point x="127" y="-82" type="curve"/>
      <point x="54" y="-94" type="line"/>
      <point x="86" y="-330"/>
      <point x="171" y="-511"/>
      <point x="311" y="-637" type="curve" smooth="yes"/>
      <point x="450" y="-763"/>
      <point x="624" y="-827"/>
      <point x="833" y="-827" type="curve" smooth="yes"/>
      <point x="1200" y="-827"/>
      <point x="1386" y="-699"/>
      <point x="1386" y="-447" type="curve" smooth="yes"/>
      <point x="1386" y="-260" type="line"/>
      <point x="1421" y="-261"/>
      <point x="1457" y="-264"/>
      <point x="1491" y="-269" type="curve"/>
      <point x="1491" y="-675" type="line" smooth="yes"/>
      <point x="1491" y="-777"/>
      <point x="1538" y="-828"/>
      <point x="1630" y="-828" type="curve" smooth="yes"/>
      <point x="1723" y="-828"/>
      <point x="1771" y="-775"/>
      <point x="1771" y="-670" type="curve" smooth="yes"/>
      <point x="1771" y="-334" type="line"/>
      <point x="1811" y="-349"/>
      <point x="1846" y="-363"/>
      <point x="1876" y="-376" type="curve"/>
      <point x="1876" y="-678" type="line" smooth="yes"/>
      <point x="1876" y="-779"/>
      <point x="1928" y="-829"/>
    </contour>
    <contour>
      <point x="515" y="0" type="curve"/>
      <point x="533" y="68" type="line"/>
      <point x="483" y="76"/>
      <point x="458" y="104"/>
      <point x="458" y="154" type="curve" smooth="yes"/>
      <point x="458" y="391" type="line" smooth="yes"/>
      <point x="458" y="444"/>
      <point x="483" y="470"/>
      <point x="531" y="470" type="curve" smooth="yes"/>
      <point x="579" y="470"/>
      <point x="603" y="445"/>
      <point x="603" y="394" type="curve" smooth="yes"/>
      <point x="603" y="133" type="line" smooth="yes"/>
      <point x="603" y="45"/>
      <point x="649" y="0"/>
      <point x="743" y="0" type="curve" smooth="yes"/>
      <point x="969" y="0" type="line"/>
      <point x="986" y="30" type="line"/>
      <point x="856" y="219" type="line"/>
      <point x="762" y="219" type="line"/>
      <point x="868" y="68" type="line"/>
      <point x="748" y="68" type="line" smooth="yes"/>
      <point x="709" y="68"/>
      <point x="689" y="89"/>
      <point x="689" y="131" type="curve" smooth="yes"/>
      <point x="689" y="393" type="line" smooth="yes"/>
      <point x="689" y="495"/>
      <point x="637" y="546"/>
      <point x="531" y="546" type="curve" smooth="yes"/>
      <point x="425" y="546"/>
      <point x="371" y="493"/>
      <point x="371" y="388" type="curve" smooth="yes"/>
      <point x="371" y="150" type="line" smooth="yes"/>
      <point x="371" y="57"/>
      <point x="425" y="10"/>
    </contour>
    <contour>
      <point x="1630" y="-752" type="curve" smooth="yes"/>
      <point x="1596" y="-752"/>
      <point x="1578" y="-727"/>
      <point x="1578" y="-676" type="curve" smooth="yes"/>
      <point x="1578" y="-282" type="line"/>
      <point x="1612" y="-288"/>
      <point x="1647" y="-296"/>
      <point x="1684" y="-307" type="curve"/>
      <point x="1684" y="-673" type="line" smooth="yes"/>
      <point x="1684" y="-726"/>
      <point x="1666" y="-752"/>
    </contour>
    <contour>
      <point x="1133" y="0" type="line"/>
      <point x="1220" y="0" type="line"/>
      <point x="1220" y="391" type="line" smooth="yes"/>
      <point x="1220" y="494"/>
      <point x="1174" y="546"/>
      <point x="1085" y="546" type="curve" smooth="yes"/>
      <point x="1032" y="546"/>
      <point x="997" y="526"/>
      <point x="979" y="485" type="curve"/>
      <point x="956" y="527"/>
      <point x="921" y="548"/>
      <point x="874" y="548" type="curve" smooth="yes"/>
      <point x="794" y="548"/>
      <point x="748" y="504"/>
      <point x="748" y="434" type="curve" smooth="yes"/>
      <point x="748" y="361"/>
      <point x="788" y="318"/>
      <point x="867" y="301" type="curve"/>
      <point x="896" y="360" type="line"/>
      <point x="851" y="373"/>
      <point x="828" y="395"/>
      <point x="828" y="428" type="curve" smooth="yes"/>
      <point x="828" y="458"/>
      <point x="845" y="473"/>
      <point x="872" y="473" type="curve" smooth="yes"/>
      <point x="911" y="473"/>
      <point x="934" y="441"/>
      <point x="940" y="384" type="curve"/>
      <point x="1008" y="384" type="line"/>
      <point x="1015" y="441"/>
      <point x="1038" y="470"/>
      <point x="1076" y="470" type="curve" smooth="yes"/>
      <point x="1114" y="470"/>
      <point x="1133" y="445"/>
      <point x="1133" y="394" type="curve" smooth="yes"/>
    </contour>
    <contour>
      <point x="1491" y="-201" type="line"/>
      <point x="1459" y="-198"/>
      <point x="1424" y="-196"/>
      <point x="1386" y="-195" type="curve"/>
      <point x="1386" y="391" type="line" smooth="yes"/>
      <point x="1386" y="444"/>
      <point x="1404" y="470"/>
      <point x="1439" y="470" type="curve" smooth="yes"/>
      <point x="1474" y="470"/>
      <point x="1491" y="445"/>
      <point x="1491" y="394" type="curve" smooth="yes"/>
    </contour>
    <contour>
      <point x="1876" y="-307" type="line"/>
      <point x="1839" y="-291"/>
      <point x="1804" y="-276"/>
      <point x="1771" y="-264" type="curve"/>
      <point x="1771" y="391" type="line" smooth="yes"/>
      <point x="1771" y="444"/>
      <point x="1789" y="470"/>
      <point x="1824" y="470" type="curve" smooth="yes"/>
      <point x="1858" y="470"/>
      <point x="1876" y="445"/>
      <point x="1876" y="394" type="curve" smooth="yes"/>
    </contour>
  </outline>
</glyph>
<glyph name="uniA9C4" format="2">
  <advance width="1981"/>
  <unicode hex="A9C4"/>
  <note>
uniA9C4
</note>
  <outline>
    <contour>
      <point x="2001" y="-829" type="curve"/>
      <point x="2001" y="-756" type="line"/>
      <point x="1956" y="-756"/>
      <point x="1933" y="-732"/>
      <point x="1933" y="-684" type="curve" smooth="yes"/>
      <point x="1933" y="-417" type="line"/>
      <point x="2005" y="-455"/>
      <point x="2078" y="-496"/>
      <point x="2149" y="-541" type="curve"/>
      <point x="2179" y="-485" type="line"/>
      <point x="2091" y="-432"/>
      <point x="2009" y="-386"/>
      <point x="1933" y="-348" type="curve"/>
      <point x="1933" y="393" type="line" smooth="yes"/>
      <point x="1933" y="495"/>
      <point x="1886" y="546"/>
      <point x="1793" y="546" type="curve" smooth="yes"/>
      <point x="1701" y="546"/>
      <point x="1653" y="493"/>
      <point x="1653" y="388" type="curve" smooth="yes"/>
      <point x="1653" y="-237" type="line"/>
      <point x="1620" y="-228"/>
      <point x="1585" y="-219"/>
      <point x="1548" y="-213" type="curve"/>
      <point x="1548" y="393" type="line" smooth="yes"/>
      <point x="1548" y="495"/>
      <point x="1501" y="546"/>
      <point x="1409" y="546" type="curve" smooth="yes"/>
      <point x="1316" y="546"/>
      <point x="1269" y="493"/>
      <point x="1269" y="388" type="curve" smooth="yes"/>
      <point x="1269" y="-196" type="line"/>
      <point x="1140" y="-203"/>
      <point x="933" y="-239"/>
      <point x="850" y="-300" type="curve"/>
      <point x="850" y="-356" type="line"/>
      <point x="890" y="-344"/>
      <point x="926" y="-338"/>
      <point x="960" y="-338" type="curve" smooth="yes"/>
      <point x="1003" y="-338"/>
      <point x="1040" y="-354"/>
      <point x="1040" y="-388" type="curve" smooth="yes"/>
      <point x="1040" y="-437"/>
      <point x="963" y="-465"/>
      <point x="893" y="-465" type="curve" smooth="yes"/>
      <point x="779" y="-465"/>
      <point x="722" y="-425"/>
      <point x="722" y="-341" type="curve" smooth="yes"/>
      <point x="722" y="-216"/>
      <point x="877" y="-166"/>
      <point x="1009" y="-166" type="curve"/>
      <point x="1009" y="-93" type="line"/>
      <point x="950" y="-93"/>
      <point x="885" y="-103"/>
      <point x="813" y="-125" type="curve" smooth="yes"/>
      <point x="708" y="-157"/>
      <point x="635" y="-243"/>
      <point x="635" y="-342" type="curve" smooth="yes"/>
      <point x="635" y="-472"/>
      <point x="740" y="-534"/>
      <point x="891" y="-534" type="curve" smooth="yes"/>
      <point x="996" y="-534"/>
      <point x="1126" y="-485"/>
      <point x="1126" y="-388" type="curve" smooth="yes"/>
      <point x="1126" y="-333"/>
      <point x="1082" y="-302"/>
      <point x="991" y="-295" type="curve"/>
      <point x="1083" y="-271"/>
      <point x="1176" y="-259"/>
      <point x="1269" y="-258" type="curve" smooth="yes"/>
      <point x="1269" y="-258" type="line"/>
      <point x="1269" y="-442" type="line" smooth="yes"/>
      <point x="1269" y="-636"/>
      <point x="1104" y="-740"/>
      <point x="810" y="-740" type="curve" smooth="yes"/>
      <point x="416" y="-740"/>
      <point x="162" y="-487"/>
      <point x="162" y="-83" type="curve" smooth="yes"/>
      <point x="162" y="104"/>
      <point x="208" y="301"/>
      <point x="293" y="505" type="curve"/>
      <point x="233" y="538" type="line"/>
      <point x="125" y="325"/>
      <point x="69" y="112"/>
      <point x="69" y="-100" type="curve" smooth="yes"/>
      <point x="69" y="-546"/>
      <point x="359" y="-827"/>
      <point x="802" y="-827" type="curve" smooth="yes"/>
      <point x="1170" y="-827"/>
      <point x="1355" y="-699"/>
      <point x="1355" y="-447" type="curve" smooth="yes"/>
      <point x="1355" y="-260" type="line"/>
      <point x="1391" y="-261"/>
      <point x="1426" y="-264"/>
      <point x="1461" y="-269" type="curve"/>
      <point x="1461" y="-675" type="line" smooth="yes"/>
      <point x="1461" y="-777"/>
      <point x="1507" y="-828"/>
      <point x="1600" y="-828" type="curve" smooth="yes"/>
      <point x="1693" y="-828"/>
      <point x="1740" y="-775"/>
      <point x="1740" y="-670" type="curve" smooth="yes"/>
      <point x="1740" y="-334" type="line"/>
      <point x="1781" y="-349"/>
      <point x="1816" y="-363"/>
      <point x="1846" y="-376" type="curve"/>
      <point x="1846" y="-678" type="line" smooth="yes"/>
      <point x="1846" y="-779"/>
      <point x="1897" y="-829"/>
    </contour>
    <contour>
      <point x="485" y="0" type="curve"/>
      <point x="503" y="68" type="line"/>
      <point x="453" y="76"/>
      <point x="428" y="104"/>
      <point x="428" y="154" type="curve" smooth="yes"/>
      <point x="428" y="391" type="line" smooth="yes"/>
      <point x="428" y="444"/>
      <point x="453" y="470"/>
      <point x="501" y="470" type="curve" smooth="yes"/>
      <point x="549" y="470"/>
      <point x="573" y="445"/>
      <point x="573" y="394" type="curve" smooth="yes"/>
      <point x="573" y="133" type="line" smooth="yes"/>
      <point x="573" y="45"/>
      <point x="619" y="0"/>
      <point x="713" y="0" type="curve" smooth="yes"/>
      <point x="939" y="0" type="line"/>
      <point x="956" y="30" type="line"/>
      <point x="826" y="219" type="line"/>
      <point x="732" y="219" type="line"/>
      <point x="838" y="68" type="line"/>
      <point x="718" y="68" type="line" smooth="yes"/>
      <point x="679" y="68"/>
      <point x="659" y="89"/>
      <point x="659" y="131" type="curve" smooth="yes"/>
      <point x="659" y="393" type="line" smooth="yes"/>
      <point x="659" y="495"/>
      <point x="607" y="546"/>
      <point x="501" y="546" type="curve" smooth="yes"/>
      <point x="395" y="546"/>
      <point x="341" y="493"/>
      <point x="341" y="388" type="curve" smooth="yes"/>
      <point x="341" y="150" type="line" smooth="yes"/>
      <point x="341" y="57"/>
      <point x="395" y="10"/>
    </contour>
    <contour>
      <point x="1600" y="-752" type="curve" smooth="yes"/>
      <point x="1565" y="-752"/>
      <point x="1548" y="-727"/>
      <point x="1548" y="-676" type="curve" smooth="yes"/>
      <point x="1548" y="-282" type="line"/>
      <point x="1582" y="-288"/>
      <point x="1617" y="-296"/>
      <point x="1653" y="-307" type="curve"/>
      <point x="1653" y="-673" type="line" smooth="yes"/>
      <point x="1653" y="-726"/>
      <point x="1635" y="-752"/>
    </contour>
    <contour>
      <point x="1103" y="0" type="line"/>
      <point x="1190" y="0" type="line"/>
      <point x="1190" y="391" type="line" smooth="yes"/>
      <point x="1190" y="494"/>
      <point x="1144" y="546"/>
      <point x="1055" y="546" type="curve" smooth="yes"/>
      <point x="1002" y="546"/>
      <point x="967" y="526"/>
      <point x="949" y="485" type="curve"/>
      <point x="926" y="527"/>
      <point x="891" y="548"/>
      <point x="844" y="548" type="curve" smooth="yes"/>
      <point x="764" y="548"/>
      <point x="718" y="504"/>
      <point x="718" y="434" type="curve" smooth="yes"/>
      <point x="718" y="361"/>
      <point x="758" y="318"/>
      <point x="837" y="301" type="curve"/>
      <point x="866" y="360" type="line"/>
      <point x="821" y="373"/>
      <point x="798" y="395"/>
      <point x="798" y="428" type="curve" smooth="yes"/>
      <point x="798" y="458"/>
      <point x="815" y="473"/>
      <point x="842" y="473" type="curve" smooth="yes"/>
      <point x="881" y="473"/>
      <point x="904" y="441"/>
      <point x="910" y="384" type="curve"/>
      <point x="978" y="384" type="line"/>
      <point x="985" y="441"/>
      <point x="1008" y="470"/>
      <point x="1046" y="470" type="curve" smooth="yes"/>
      <point x="1084" y="470"/>
      <point x="1103" y="445"/>
      <point x="1103" y="394" type="curve" smooth="yes"/>
    </contour>
    <contour>
      <point x="1461" y="-201" type="line"/>
      <point x="1429" y="-198"/>
      <point x="1394" y="-196"/>
      <point x="1355" y="-195" type="curve"/>
      <point x="1355" y="391" type="line" smooth="yes"/>
      <point x="1355" y="444"/>
      <point x="1374" y="470"/>
      <point x="1409" y="470" type="curve" smooth="yes"/>
      <point x="1443" y="470"/>
      <point x="1461" y="445"/>
      <point x="1461" y="394" type="curve" smooth="yes"/>
    </contour>
    <contour>
      <point x="1846" y="-307" type="line"/>
      <point x="1809" y="-291"/>
      <point x="1774" y="-276"/>
      <point x="1740" y="-264" type="curve"/>
      <point x="1740" y="391" type="line" smooth="yes"/>
      <point x="1740" y="444"/>
      <point x="1759" y="470"/>
      <point x="1793" y="470" type="curve" smooth="yes"/>
      <point x="1828" y="470"/>
      <point x="1846" y="445"/>
      <point x="1846" y="394" type="curve" smooth="yes"/>
    </contour>
  </outline>
</glyph>
<glyph name="uniA9C7" format="2">
  <advance width="269"/>
  <unicode hex="A9C7"/>
  <note>
uniA9C7
</note>
  <outline>
    <contour>
      <point x="111" y="382" type="curve" smooth="yes"/>
      <point x="165" y="382"/>
      <point x="207" y="409"/>
      <point x="239" y="464" type="curve"/>
      <point x="200" y="490" type="line"/>
      <point x="180" y="460"/>
      <point x="161" y="440"/>
      <point x="141" y="429" type="curve"/>
      <point x="137" y="433" type="line"/>
      <point x="140" y="439"/>
      <point x="142" y="445"/>
      <point x="142" y="449" type="curve" smooth="yes"/>
      <point x="142" y="466"/>
      <point x="125" y="482"/>
      <point x="102" y="482" type="curve" smooth="yes"/>
      <point x="73" y="482"/>
      <point x="49" y="460"/>
      <point x="49" y="432" type="curve" smooth="yes"/>
      <point x="49" y="402"/>
      <point x="80" y="382"/>
    </contour>
    <contour>
      <point x="111" y="55" type="curve" smooth="yes"/>
      <point x="165" y="55"/>
      <point x="207" y="82"/>
      <point x="239" y="137" type="curve"/>
      <point x="200" y="163" type="line"/>
      <point x="180" y="133"/>
      <point x="161" y="113"/>
      <point x="141" y="102" type="curve"/>
      <point x="137" y="106" type="line"/>
      <point x="140" y="112"/>
      <point x="142" y="118"/>
      <point x="142" y="122" type="curve" smooth="yes"/>
      <point x="142" y="139"/>
      <point x="125" y="155"/>
      <point x="102" y="155" type="curve" smooth="yes"/>
      <point x="73" y="155"/>
      <point x="49" y="133"/>
      <point x="49" y="105" type="curve" smooth="yes"/>
      <point x="49" y="75"/>
      <point x="80" y="55"/>
    </contour>
  </outline>
</glyph>
<glyph name="uniA9C8" format="2">
  <advance width="470"/>
  <unicode hex="A9C8"/>
  <note>
uniA9C8
</note>
  <outline>
    <contour>
      <point x="118" y="0" type="line"/>
      <point x="431" y="0" type="line"/>
      <point x="448" y="54" type="line"/>
      <point x="104" y="539" type="line"/>
      <point x="-1" y="539" type="line"/>
      <point x="330" y="73" type="line"/>
      <point x="118" y="73" type="line"/>
    </contour>
  </outline>
</glyph>
<glyph name="uniA9C9" format="2">
  <advance width="687"/>
  <unicode hex="A9C9"/>
  <note>
uniA9C9
</note>
  <outline>
    <contour>
      <point x="118" y="0" type="line"/>
      <point x="656" y="0" type="line"/>
      <point x="672" y="54" type="line"/>
      <point x="328" y="539" type="line"/>
      <point x="223" y="539" type="line"/>
      <point x="554" y="73" type="line"/>
      <point x="435" y="73" type="line"/>
      <point x="104" y="539" type="line"/>
      <point x="-1" y="539" type="line"/>
      <point x="330" y="73" type="line"/>
      <point x="118" y="73" type="line"/>
    </contour>
  </outline>
</glyph>
<glyph name="uniA9CA" format="2">
  <advance width="244"/>
  <unicode hex="A9CA"/>
  <note>
uniA9CA
</note>
  <outline>
    <contour>
      <point x="234" y="-819" type="curve"/>
      <point x="234" y="-747" type="line"/>
      <point x="188" y="-747"/>
      <point x="165" y="-723"/>
      <point x="165" y="-674" type="curve" smooth="yes"/>
      <point x="165" y="549" type="line"/>
      <point x="78" y="549" type="line"/>
      <point x="78" y="-668" type="line" smooth="yes"/>
      <point x="78" y="-769"/>
      <point x="130" y="-819"/>
    </contour>
  </outline>
</glyph>
<glyph name="uniA9CB" format="2">
  <advance width="439"/>
  <unicode hex="A9CB"/>
  <note>
uniA9CB
</note>
  <outline>
    <contour>
      <point x="234" y="-819" type="curve"/>
      <point x="234" y="-747" type="line"/>
      <point x="188" y="-747"/>
      <point x="165" y="-723"/>
      <point x="165" y="-674" type="curve" smooth="yes"/>
      <point x="165" y="549" type="line"/>
      <point x="78" y="549" type="line"/>
      <point x="78" y="-668" type="line" smooth="yes"/>
      <point x="78" y="-769"/>
      <point x="130" y="-819"/>
    </contour>
    <contour>
      <point x="429" y="-819" type="curve"/>
      <point x="429" y="-747" type="line"/>
      <point x="383" y="-747"/>
      <point x="360" y="-723"/>
      <point x="360" y="-674" type="curve" smooth="yes"/>
      <point x="360" y="549" type="line"/>
      <point x="273" y="549" type="line"/>
      <point x="273" y="-668" type="line" smooth="yes"/>
      <point x="273" y="-769"/>
      <point x="325" y="-819"/>
    </contour>
  </outline>
</glyph>
<glyph name="uniA9CC" format="2">
  <advance width="294"/>
  <unicode hex="A9CC"/>
  <note>
uniA9CC
</note>
  <outline>
    <contour>
      <point x="265" y="-819" type="curve"/>
      <point x="265" y="-747" type="line"/>
      <point x="219" y="-747"/>
      <point x="196" y="-723"/>
      <point x="196" y="-674" type="curve" smooth="yes"/>
      <point x="196" y="549" type="line"/>
      <point x="109" y="549" type="line"/>
      <point x="109" y="-668" type="line" smooth="yes"/>
      <point x="109" y="-769"/>
      <point x="161" y="-819"/>
    </contour>
    <contour>
      <point x="123" y="579" type="line"/>
      <point x="193" y="620"/>
      <point x="249" y="661"/>
      <point x="249" y="721" type="curve" smooth="yes"/>
      <point x="249" y="759"/>
      <point x="227" y="784"/>
      <point x="172" y="808" type="curve" smooth="yes"/>
      <point x="124" y="829"/>
      <point x="105" y="837"/>
      <point x="105" y="864" type="curve" smooth="yes"/>
      <point x="105" y="883"/>
      <point x="125" y="893"/>
      <point x="160" y="893" type="curve" smooth="yes"/>
      <point x="171" y="893"/>
      <point x="186" y="892"/>
      <point x="205" y="889" type="curve"/>
      <point x="205" y="947" type="line"/>
      <point x="189" y="951"/>
      <point x="172" y="954"/>
      <point x="155" y="954" type="curve" smooth="yes"/>
      <point x="89" y="954"/>
      <point x="30" y="924"/>
      <point x="30" y="856" type="curve" smooth="yes"/>
      <point x="30" y="808"/>
      <point x="63" y="780"/>
      <point x="135" y="750" type="curve" smooth="yes"/>
      <point x="159" y="740"/>
      <point x="174" y="735"/>
      <point x="174" y="712" type="curve" smooth="yes"/>
      <point x="174" y="687"/>
      <point x="137" y="659"/>
      <point x="87" y="621" type="curve"/>
    </contour>
  </outline>
</glyph>
<glyph name="uniA9CD" format="2">
  <advance width="294"/>
  <unicode hex="A9CD"/>
  <note>
uniA9CD
</note>
  <outline>
    <contour>
      <point x="98" y="-452" type="line"/>
      <point x="185" y="-452" type="line"/>
      <point x="185" y="766" type="line" smooth="yes"/>
      <point x="185" y="867"/>
      <point x="133" y="917"/>
      <point x="29" y="917" type="curve"/>
      <point x="29" y="844" type="line"/>
      <point x="75" y="844"/>
      <point x="98" y="820"/>
      <point x="98" y="772" type="curve" smooth="yes"/>
    </contour>
    <contour>
      <point x="140" y="-857" type="curve" smooth="yes"/>
      <point x="206" y="-857"/>
      <point x="265" y="-827"/>
      <point x="265" y="-759" type="curve" smooth="yes"/>
      <point x="265" y="-711"/>
      <point x="232" y="-683"/>
      <point x="160" y="-653" type="curve" smooth="yes"/>
      <point x="136" y="-643"/>
      <point x="121" y="-638"/>
      <point x="121" y="-615" type="curve" smooth="yes"/>
      <point x="121" y="-590"/>
      <point x="158" y="-562"/>
      <point x="208" y="-524" type="curve"/>
      <point x="172" y="-482" type="line"/>
      <point x="102" y="-523"/>
      <point x="46" y="-564"/>
      <point x="46" y="-624" type="curve" smooth="yes"/>
      <point x="46" y="-662"/>
      <point x="68" y="-687"/>
      <point x="123" y="-711" type="curve" smooth="yes"/>
      <point x="171" y="-732"/>
      <point x="190" y="-740"/>
      <point x="190" y="-767" type="curve" smooth="yes"/>
      <point x="190" y="-786"/>
      <point x="170" y="-796"/>
      <point x="135" y="-796" type="curve" smooth="yes"/>
      <point x="124" y="-796"/>
      <point x="109" y="-795"/>
      <point x="90" y="-792" type="curve"/>
      <point x="90" y="-850" type="line"/>
      <point x="106" y="-854"/>
      <point x="123" y="-857"/>
    </contour>
  </outline>
</glyph>
<glyph name="uniA9CF" format="2">
  <advance width="437"/>
  <unicode hex="A9CF"/>
  <note>
uniA9CF
</note>
  <outline>
    <contour>
      <point x="242" y="0" type="line"/>
      <point x="337" y="0" type="line"/>
      <point x="147" y="466" type="line"/>
      <point x="393" y="466" type="line"/>
      <point x="393" y="539" type="line"/>
      <point x="49" y="539" type="line"/>
      <point x="49" y="484" type="line"/>
    </contour>
  </outline>
</glyph>
<glyph name="zeroJV" format="2">
  <advance width="605"/>
  <unicode hex="A9D0"/>
  <note>
zeroJV
</note>
  <outline>
    <contour>
      <point x="300" y="-10" type="curve" smooth="yes"/>
      <point x="460" y="-10"/>
      <point x="550" y="97"/>
      <point x="550" y="269" type="curve" smooth="yes"/>
      <point x="550" y="434"/>
      <point x="462" y="546"/>
      <point x="304" y="546" type="curve" smooth="yes"/>
      <point x="143" y="546"/>
      <point x="55" y="441"/>
      <point x="55" y="269" type="curve" smooth="yes"/>
      <point x="55" y="108"/>
      <point x="143" y="-10"/>
    </contour>
    <contour>
      <point x="303" y="63" type="curve" smooth="yes"/>
      <point x="193" y="63"/>
      <point x="146" y="144"/>
      <point x="146" y="269" type="curve" smooth="yes"/>
      <point x="146" y="404"/>
      <point x="197" y="472"/>
      <point x="301" y="472" type="curve" smooth="yes"/>
      <point x="412" y="472"/>
      <point x="459" y="395"/>
      <point x="459" y="269" type="curve" smooth="yes"/>
      <point x="459" y="148"/>
      <point x="414" y="63"/>
    </contour>
  </outline>
</glyph>
